<svg width="900" height="340" viewBox="0,20,1100,300" id="svg" xmlns="http://www.w3.org/2000/svg">
  <style>.st0  {fill: hsl(120, 44%, 91%);;}
.st1  {fill: hsl(28, 89%, 67%);;}
.st2  {fill: hsl(11, 90%, 58%);;}
.st3  {fill: hsl(0, 100%, 51%);;}
.st4 {stroke:#800000; stroke-width:2;}</style>
  <rect x="150" y="40" width="800" height="40" class="st0" />
  <rect x="150" y="40" width="600" height="40" class="st1" />
  <rect x="150" y="40" width="400" height="40" class="st2" />
  <rect x="150" y="140" width="800" height="40" class="st0" />
  <rect x="150" y="140" width="600" height="40" class="st1" />
  <rect x="150" y="140" width="400" height="40" class="st2" />
  <rect x="150" y="240" width="800" height="40" class="st0" />
  <rect x="150" y="240" width="600" height="40" class="st1" />
  <rect x="150" y="240" width="400" height="40" class="st2" />
  <rect x="150" y="50" width="400" height="20" class="st3" />
  <rect x="150" y="150" width="600" height="20" class="st3" />
  <rect x="150" y="250" width="500" height="20" class="st3" />
  <line x1="500" y1="30" x2="500" y2="90" class="st4" />
  <line x1="800" y1="130" x2="800" y2="190" class="st4" />
  <line x1="700" y1="230" x2="700" y2="290" class="st4" />
</svg>