<?xml version='1.0' encoding='utf-8'?>
<svg width="900" height="340" viewBox="90,-30,880,340" style="max-width: 100%; height: auto; font: 10px sans-serif;" id="svg">
  <rect x="150" y="40" width="800" height="40" style="fill: hsl(90, 52%, 83%);;" id="rect_11" />
  <rect x="150" y="40" width="600" height="40" style="fill: hsl(56, 100%, 79%);;" id="rect_10" />
  <rect x="150" y="40" width="400" height="40" style="fill: hsl(60, 76%, 60%);;" id="rect_9" />
  <rect x="150" y="140" width="800" height="40" style="fill: hsl(90, 52%, 83%);;" id="rect_8" />
  <rect x="150" y="140" width="600" height="40" style="fill: hsl(56, 100%, 79%);;" id="rect_7" />
  <rect x="150" y="140" width="400" height="40" style="fill: hsl(60, 76%, 60%);;" id="rect_6" />
  <rect x="150" y="240" width="800" height="40" style="fill: hsl(90, 52%, 83%);;" id="rect_5" />
  <rect x="150" y="240" width="600" height="40" style="fill: hsl(56, 100%, 79%);;" id="rect_4" />
  <rect x="150" y="240" width="400" height="40" style="fill: hsl(60, 76%, 60%);;" id="rect_3" />
  <rect x="150" y="50" width="400" height="20" style="fill: hsl(351, 92%, 62%);;" id="rect_2" />
  <rect x="150" y="150" width="600" height="20" style="fill: hsl(351, 92%, 62%);;" id="rect_1" />
  <rect x="150" y="250" width="500" height="20" style="fill: hsl(351, 92%, 62%);;" id="rect" />
  <line x1="500" y1="30" x2="500" y2="90" style="stroke:#800000; stroke-width:2;" id="line_2" />
  <line x1="800" y1="130" x2="800" y2="190" style="stroke:#800000; stroke-width:2;" id="line_1" />
  <line x1="700" y1="230" x2="700" y2="290" style="stroke:#800000; stroke-width:2;" id="line" />
  <text x="120" y="70" font-size="16" text-anchor="end" id="text_8">xx</text>
  <text x="120" y="170" font-size="16" text-anchor="end" id="text_7">xx</text>
  <text x="120" y="270" font-size="16" text-anchor="end" id="text_6">xxx</text>
  <text x="150" y="350" font-size="12" id="text_5">x</text>
  <text x="350" y="350" font-size="12" id="text_4">xxxx</text>
  <text x="550" y="350" font-size="12" id="text_3">xxxx</text>
  <text x="750" y="350" font-size="12" id="text_2">xxxx</text>
  <text x="950" y="350" font-size="12" id="text_1">xxxx</text>
  <text x="1150" y="350" font-size="12" id="text">xxxxx</text>
</svg>