<?xml version='1.0' encoding='UTF-8'?>
<svg xmlns="http://www.w3.org/2000/svg" height="386" version="1.1" width="749">
  <style>.st0 {fill:url('#rr-1065-360_0.5_0.25699481865284973_0.6395508082454233_0.4886400428963789__-rgba_124_181_236_0.5_-rgba_67_67_72_0.5_'); stroke:url('#rr-1065-360_0.5_0.25699481865284973_0.6395508082454233_0.4886400428963789__-rgba_124_181_236_0.5_-rgba_67_67_72_0.5_'); stroke-width:1;}
.st1 {fill:url('#rr-1065-360_0.5385040774218707_0.26737430800400064_0.586168300995891_0.7482758695700457__-rgba_124_181_236_0.5_-rgba_142_237_125_0.5_'); stroke:url('#rr-1065-360_0.5385040774218707_0.26737430800400064_0.586168300995891_0.7482758695700457__-rgba_124_181_236_0.5_-rgba_142_237_125_0.5_'); stroke-width:1;}
.st2 {fill:url('#rr-1065-360_0.5656215753590261_0.28836723472433273_0.4614959225781293_0.7948018577991081__-rgba_124_181_236_0.5_-rgba_247_163_92_0.5_'); stroke:url('#rr-1065-360_0.5656215753590261_0.28836723472433273_0.4614959225781293_0.7948018577991081__-rgba_124_181_236_0.5_-rgba_247_163_92_0.5_'); stroke-width:1;}
.st3 {fill:url('#rr-1065-360_0.5822095594540739_0.3081973277913929_0.36229011444819187_0.5921098566570981__-rgba_124_181_236_0.5_-rgba_128_133_233_0.5_'); stroke:url('#rr-1065-360_0.5822095594540739_0.3081973277913929_0.36229011444819187_0.5921098566570981__-rgba_124_181_236_0.5_-rgba_128_133_233_0.5_'); stroke-width:1;}
.st4 {fill:url('#rr-1065-360_0.6162212028341997_0.3753027778876924_0.39924980304337465_0.33897357470745004__-rgba_124_181_236_0.5_-rgba_241_92_128_0.5_'); stroke:url('#rr-1065-360_0.6162212028341997_0.3753027778876924_0.39924980304337465_0.33897357470745004__-rgba_124_181_236_0.5_-rgba_241_92_128_0.5_'); stroke-width:1;}
.st5 {fill:url('#rr-1065-360_0.6395508082454233_0.4886400428963789_0.5613170958657293_0.7780106183658114__-rgba_67_67_72_0.5_-rgba_142_237_125_0.5_'); stroke:url('#rr-1065-360_0.6395508082454233_0.4886400428963789_0.5613170958657293_0.7780106183658114__-rgba_67_67_72_0.5_-rgba_142_237_125_0.5_'); stroke-width:1;}
.st6 {fill:url('#rr-1065-360_0.6410672420815007_0.5452158626831852_0.4431613039470155_0.7820125622716921__-rgba_67_67_72_0.5_-rgba_247_163_92_0.5_'); stroke:url('#rr-1065-360_0.6410672420815007_0.5452158626831852_0.4431613039470155_0.7820125622716921__-rgba_67_67_72_0.5_-rgba_247_163_92_0.5_'); stroke-width:1;}
.st7 {fill:url('#rr-1065-360_0.6387235089177998_0.5827470406629346_0.3589327579184993_0.5169603031199236__-rgba_67_67_72_0.5_-rgba_128_133_233_0.5_'); stroke:url('#rr-1065-360_0.6387235089177998_0.5827470406629346_0.3589327579184993_0.5169603031199236__-rgba_67_67_72_0.5_-rgba_128_133_233_0.5_'); stroke-width:1;}
.st8 {fill:url('#rr-1065-360_0.6262133157098684_0.654165683416563_0.4217560176808618_0.3028862937296404__-rgba_67_67_72_0.5_-rgba_241_92_128_0.5_'); stroke:url('#rr-1065-360_0.6262133157098684_0.654165683416563_0.4217560176808618_0.3028862937296404__-rgba_67_67_72_0.5_-rgba_241_92_128_0.5_'); stroke-width:1;}
.st9 {fill:url('#rr-1065-360_0.5613170958657293_0.7780106183658114_0.42590802525774096_0.7644495002652695__-rgba_142_237_125_0.5_-rgba_247_163_92_0.5_'); stroke:url('#rr-1065-360_0.5613170958657293_0.7780106183658114_0.42590802525774096_0.7644495002652695__-rgba_142_237_125_0.5_-rgba_247_163_92_0.5_'); stroke-width:1;}
.st10 {fill:url('#rr-1065-360_0.5432236691944485_0.7920337340177741_0.3634428129740487_0.4609880317307542__-rgba_142_237_125_0.5_-rgba_128_133_233_0.5_'); stroke:url('#rr-1065-360_0.5432236691944485_0.7920337340177741_0.3634428129740487_0.4609880317307542__-rgba_142_237_125_0.5_-rgba_128_133_233_0.5_'); stroke-width:1;}
.st11 {fill:url('#rr-1065-360_0.5146537159862891_0.8037024791676394_0.44760486866201915_0.2765479489839527__-rgba_142_237_125_0.5_-rgba_241_92_128_0.5_'); stroke:url('#rr-1065-360_0.5146537159862891_0.8037024791676394_0.44760486866201915_0.2765479489839527__-rgba_142_237_125_0.5_-rgba_241_92_128_0.5_'); stroke-width:1;}
.st12 {fill:url('#rr-1065-360_0.42590802525774096_0.7644495002652695_0.3737866842901316_0.40801048238654586__-rgba_247_163_92_0.5_-rgba_128_133_233_0.5_'); stroke:url('#rr-1065-360_0.42590802525774096_0.7644495002652695_0.3737866842901316_0.40801048238654586__-rgba_247_163_92_0.5_-rgba_128_133_233_0.5_'); stroke-width:1;}
.st13 {fill:url('#rr-1065-360_0.40276646981522135_0.7299083120546632_0.47569207542531644_0.2610837325397268__-rgba_247_163_92_0.5_-rgba_241_92_128_0.5_'); stroke:url('#rr-1065-360_0.40276646981522135_0.7299083120546632_0.47569207542531644_0.2610837325397268__-rgba_247_163_92_0.5_-rgba_241_92_128_0.5_'); stroke-width:1;}
.st14 {fill:url('#rr-1065-360_0.3737866842901316_0.40801048238654586_0.4950702713603143_0.25716178886367785__-rgba_128_133_233_0.5_-rgba_241_92_128_0.5_'); stroke:url('#rr-1065-360_0.3737866842901316_0.40801048238654586_0.4950702713603143_0.25716178886367785__-rgba_128_133_233_0.5_-rgba_241_92_128_0.5_'); stroke-width:1;}
.st15 {cursor: pointer; fill:#7cb5ec; stroke:#6390bc; stroke-width:0;}
.st16 {cursor: pointer; fill:#434348; stroke:#353539; stroke-width:0;}
.st17 {cursor: pointer; fill:#8eed7d; stroke:#71bd64; stroke-width:0;}
.st18 {cursor: pointer; fill:#f7a35c; stroke:#c58249; stroke-width:0;}
.st19 {cursor: pointer; fill:#8085e9; stroke:#666aba; stroke-width:0;}
.st20 {cursor: pointer; fill:#f15c80; stroke:#c04966; stroke-width:0;}</style>
  <linearGradient id="rr-1065-360_0.5_0.25699481865284973_0.6395508082454233_0.4886400428963789__-rgba_124_181_236_0.5_-rgba_67_67_72_0.5_" x1="0.5" y1="0.25699481865284973" x2="0.6395508082454233" y2="0.4886400428963789">
    <stop offset="0%" stop-color="#7cb5ec" stop-opacity="0.5"/>
    <stop offset="100%" stop-color="#434348" stop-opacity="0.5"/>
  </linearGradient>
  <linearGradient id="rr-1065-360_0.5385040774218707_0.26737430800400064_0.586168300995891_0.7482758695700457__-rgba_124_181_236_0.5_-rgba_142_237_125_0.5_" x1="0.5385040774218707" y1="0.26737430800400064" x2="0.586168300995891" y2="0.7482758695700457">
    <stop offset="0%" stop-color="#7cb5ec" stop-opacity="0.5"/>
    <stop offset="100%" stop-color="#8eed7d" stop-opacity="0.5"/>
  </linearGradient>
  <linearGradient id="rr-1065-360_0.5656215753590261_0.28836723472433273_0.4614959225781293_0.7948018577991081__-rgba_124_181_236_0.5_-rgba_247_163_92_0.5_" x1="0.5656215753590261" y1="0.28836723472433273" x2="0.4614959225781293" y2="0.7948018577991081">
    <stop offset="0%" stop-color="#7cb5ec" stop-opacity="0.5"/>
    <stop offset="100%" stop-color="#f7a35c" stop-opacity="0.5"/>
  </linearGradient>
  <linearGradient id="rr-1065-360_0.5822095594540739_0.3081973277913929_0.36229011444819187_0.5921098566570981__-rgba_124_181_236_0.5_-rgba_128_133_233_0.5_" x1="0.5822095594540739" y1="0.3081973277913929" x2="0.36229011444819187" y2="0.5921098566570981">
    <stop offset="0%" stop-color="#7cb5ec" stop-opacity="0.5"/>
    <stop offset="100%" stop-color="#8085e9" stop-opacity="0.5"/>
  </linearGradient>
  <linearGradient id="rr-1065-360_0.6162212028341997_0.3753027778876924_0.39924980304337465_0.33897357470745004__-rgba_124_181_236_0.5_-rgba_241_92_128_0.5_" x1="0.6162212028341997" y1="0.3753027778876924" x2="0.39924980304337465" y2="0.33897357470745004">
    <stop offset="0%" stop-color="#7cb5ec" stop-opacity="0.5"/>
    <stop offset="100%" stop-color="#f15c80" stop-opacity="0.5"/>
  </linearGradient>
  <linearGradient id="rr-1065-360_0.6395508082454233_0.4886400428963789_0.5613170958657293_0.7780106183658114__-rgba_67_67_72_0.5_-rgba_142_237_125_0.5_" x1="0.6395508082454233" y1="0.4886400428963789" x2="0.5613170958657293" y2="0.7780106183658114">
    <stop offset="0%" stop-color="#434348" stop-opacity="0.5"/>
    <stop offset="100%" stop-color="#8eed7d" stop-opacity="0.5"/>
  </linearGradient>
  <linearGradient id="rr-1065-360_0.6410672420815007_0.5452158626831852_0.4431613039470155_0.7820125622716921__-rgba_67_67_72_0.5_-rgba_247_163_92_0.5_" x1="0.6410672420815007" y1="0.5452158626831852" x2="0.4431613039470155" y2="0.7820125622716921">
    <stop offset="0%" stop-color="#434348" stop-opacity="0.5"/>
    <stop offset="100%" stop-color="#f7a35c" stop-opacity="0.5"/>
  </linearGradient>
  <linearGradient id="rr-1065-360_0.6387235089177998_0.5827470406629346_0.3589327579184993_0.5169603031199236__-rgba_67_67_72_0.5_-rgba_128_133_233_0.5_" x1="0.6387235089177998" y1="0.5827470406629346" x2="0.3589327579184993" y2="0.5169603031199236">
    <stop offset="0%" stop-color="#434348" stop-opacity="0.5"/>
    <stop offset="100%" stop-color="#8085e9" stop-opacity="0.5"/>
  </linearGradient>
  <linearGradient id="rr-1065-360_0.6262133157098684_0.654165683416563_0.4217560176808618_0.3028862937296404__-rgba_67_67_72_0.5_-rgba_241_92_128_0.5_" x1="0.6262133157098684" y1="0.654165683416563" x2="0.4217560176808618" y2="0.3028862937296404">
    <stop offset="0%" stop-color="#434348" stop-opacity="0.5"/>
    <stop offset="100%" stop-color="#f15c80" stop-opacity="0.5"/>
  </linearGradient>
  <linearGradient id="rr-1065-360_0.5613170958657293_0.7780106183658114_0.42590802525774096_0.7644495002652695__-rgba_142_237_125_0.5_-rgba_247_163_92_0.5_" x1="0.5613170958657293" y1="0.7780106183658114" x2="0.42590802525774096" y2="0.7644495002652695">
    <stop offset="0%" stop-color="#8eed7d" stop-opacity="0.5"/>
    <stop offset="100%" stop-color="#f7a35c" stop-opacity="0.5"/>
  </linearGradient>
  <linearGradient id="rr-1065-360_0.5432236691944485_0.7920337340177741_0.3634428129740487_0.4609880317307542__-rgba_142_237_125_0.5_-rgba_128_133_233_0.5_" x1="0.5432236691944485" y1="0.7920337340177741" x2="0.3634428129740487" y2="0.4609880317307542">
    <stop offset="0%" stop-color="#8eed7d" stop-opacity="0.5"/>
    <stop offset="100%" stop-color="#8085e9" stop-opacity="0.5"/>
  </linearGradient>
  <linearGradient id="rr-1065-360_0.5146537159862891_0.8037024791676394_0.44760486866201915_0.2765479489839527__-rgba_142_237_125_0.5_-rgba_241_92_128_0.5_" x1="0.5146537159862891" y1="0.8037024791676394" x2="0.44760486866201915" y2="0.2765479489839527">
    <stop offset="0%" stop-color="#8eed7d" stop-opacity="0.5"/>
    <stop offset="100%" stop-color="#f15c80" stop-opacity="0.5"/>
  </linearGradient>
  <linearGradient id="rr-1065-360_0.42590802525774096_0.7644495002652695_0.3737866842901316_0.40801048238654586__-rgba_247_163_92_0.5_-rgba_128_133_233_0.5_" x1="0.42590802525774096" y1="0.7644495002652695" x2="0.3737866842901316" y2="0.40801048238654586">
    <stop offset="0%" stop-color="#f7a35c" stop-opacity="0.5"/>
    <stop offset="100%" stop-color="#8085e9" stop-opacity="0.5"/>
  </linearGradient>
  <linearGradient id="rr-1065-360_0.40276646981522135_0.7299083120546632_0.47569207542531644_0.2610837325397268__-rgba_247_163_92_0.5_-rgba_241_92_128_0.5_" x1="0.40276646981522135" y1="0.7299083120546632" x2="0.47569207542531644" y2="0.2610837325397268">
    <stop offset="0%" stop-color="#f7a35c" stop-opacity="0.5"/>
    <stop offset="100%" stop-color="#f15c80" stop-opacity="0.5"/>
  </linearGradient>
  <linearGradient id="rr-1065-360_0.3737866842901316_0.40801048238654586_0.4950702713603143_0.25716178886367785__-rgba_128_133_233_0.5_-rgba_241_92_128_0.5_" x1="0.3737866842901316" y1="0.40801048238654586" x2="0.4950702713603143" y2="0.25716178886367785">
    <stop offset="0%" stop-color="#8085e9" stop-opacity="0.5"/>
    <stop offset="100%" stop-color="#f15c80" stop-opacity="0.5"/>
  </linearGradient>
  <g class="raphael-group-1070-plots">
    <g class="raphael-group-1089-link-container" transform="matrix(1,0,0,1,374.5,205)">
      <path fill-opacity="1" stroke-opacity="1" d="M 0 -105.8 A 105.80000000000001 105.80000000000001 0 0 1 28.8396 -101.7935 C 13.903952161241607 -49.075991148467644 46.330645679495326 -21.336450479310557 96.0991 -44.2561 A 105.80000000000001 105.80000000000001 0 0 1 104.5236 -16.3849 C 41.80944 -6.55396 0 -42.32 0 -105.8" stroke-linecap="round" class="st0"/>
      <path fill-opacity="1" stroke-opacity="1" d="M 28.8396 -101.7935 A 105.80000000000001 105.80000000000001 0 0 1 49.1506 -93.6902 C 19.66024 -37.47608 32.15856 27.510160000000003 80.3964 68.7754 A 105.80000000000001 105.80000000000001 0 0 1 64.5401 83.8345 C 25.81604 33.53380000000001 11.53584 -40.7174 28.8396 -101.7935" stroke-linecap="round" class="st1"/>
      <path fill-opacity="1" stroke-opacity="1" d="M 49.1506 -93.6902 A 105.80000000000001 105.80000000000001 0 0 1 61.575 -86.0358 C 24.630000000000003 -34.41432 -5.82332 41.91744 -14.5583 104.7936 A 105.80000000000001 105.80000000000001 0 0 1 -28.8396 101.7935 C -11.53584 40.7174 19.66024 -37.47608 49.1506 -93.6902" stroke-linecap="round" class="st2"/>
      <path fill-opacity="1" stroke-opacity="1" d="M 61.575 -86.0358 A 105.80000000000001 105.80000000000001 0 0 1 87.0497 -60.1331 C 34.819880000000005 -24.053240000000002 -35.63812 22.823400000000003 -89.0953 57.0585 A 105.80000000000001 105.80000000000001 0 0 1 -103.1447 23.5544 C -41.25788 9.42176 24.630000000000003 -34.41432 61.575 -86.0358" stroke-linecap="round" class="st3"/>
      <path fill-opacity="1" stroke-opacity="1" d="M 87.0497 -60.1331 A 105.80000000000001 105.80000000000001 0 0 1 94.4961 -47.5829 C 37.79844 -19.033160000000002 -33.97924 -25.226840000000003 -84.9481 -63.0671 A 105.80000000000001 105.80000000000001 0 0 1 -75.4619 -74.1562 C -30.18476 -29.662480000000002 34.819880000000005 -24.053240000000002 87.0497 -60.1331" stroke-linecap="round" class="st4"/>
      <path fill-opacity="1" stroke-opacity="1" d="M 104.5236 -16.3849 A 105.80000000000001 105.80000000000001 0 0 1 105.6594 5.4533 C 50.939792611044936 2.6291079737894716 31.11563485213905 40.417719991317824 64.5401 83.8345 A 105.80000000000001 105.80000000000001 0 0 1 45.9265 95.3121 C 18.3706 38.12484 41.80944 -6.55396 104.5236 -16.3849" stroke-linecap="round" class="st5"/>
      <path fill-opacity="1" stroke-opacity="1" d="M 105.6594 5.4533 A 105.80000000000001 105.80000000000001 0 0 1 103.9039 19.9404 C 41.56156 7.97616 -11.53584 40.7174 -28.8396 101.7935 A 105.80000000000001 105.80000000000001 0 0 1 -42.5722 96.8568 C -17.02888 38.742720000000006 42.263760000000005 2.18132 105.6594 5.4533" stroke-linecap="round" class="st6"/>
      <path fill-opacity="1" stroke-opacity="1" d="M 103.9039 19.9404 A 105.80000000000001 105.80000000000001 0 0 1 94.5338 47.508 C 37.813520000000004 19.003200000000003 -41.25788 9.42176 -103.1447 23.5544 A 105.80000000000001 105.80000000000001 0 0 1 -105.6594 -5.4533 C -42.263760000000005 -2.18132 41.56156 7.97616 103.9039 19.9404" stroke-linecap="round" class="st7"/>
      <path fill-opacity="1" stroke-opacity="1" d="M 94.5338 47.508 A 105.80000000000001 105.80000000000001 0 0 1 82.7477 65.9277 C 33.09908 26.371080000000003 -30.18476 -29.662480000000002 -75.4619 -74.1562 A 105.80000000000001 105.80000000000001 0 0 1 -58.6047 -88.0859 C -23.44188 -35.23436 37.813520000000004 19.003200000000003 94.5338 47.508" stroke-linecap="round" class="st8"/>
      <path fill-opacity="1" stroke-opacity="1" d="M 45.9265 95.3121 A 105.80000000000001 105.80000000000001 0 0 1 32.3745 100.725 C 18.289553468731892 56.903281074241136 -24.050611690730292 54.71799170366403 -42.5722 96.8568 A 105.80000000000001 105.80000000000001 0 0 1 -55.4949 90.0775 C -22.197960000000002 36.031 18.3706 38.12484 45.9265 95.3121" stroke-linecap="round" class="st9"/>
      <path fill-opacity="1" stroke-opacity="1" d="M 32.3745 100.725 A 105.80000000000001 105.80000000000001 0 0 1 10.9756 105.2292 C 4.39024 42.091680000000004 -42.263760000000005 -2.18132 -105.6594 -5.4533 A 105.80000000000001 105.80000000000001 0 0 1 -102.2813 -27.0586 C -40.91252 -10.82344 12.9498 40.29 32.3745 100.725" stroke-linecap="round" class="st10"/>
      <path fill-opacity="1" stroke-opacity="1" d="M 10.9756 105.2292 A 105.80000000000001 105.80000000000001 0 0 1 -10.8921 105.2378 C -4.35684 42.09512 -23.44188 -35.23436 -58.6047 -88.0859 A 105.80000000000001 105.80000000000001 0 0 1 -39.244 -98.2525 C -15.697600000000001 -39.301 4.39024 42.091680000000004 10.9756 105.2292" stroke-linecap="round" class="st11"/>
      <path fill-opacity="1" stroke-opacity="1" d="M -55.4949 90.0775 A 105.80000000000001 105.80000000000001 0 0 1 -72.8279 76.7446 C -29.13116 30.697840000000003 -40.91252 -10.82344 -102.2813 -27.0586 A 105.80000000000001 105.80000000000001 0 0 1 -94.5338 -47.508 C -37.813520000000004 -19.003200000000003 -22.197960000000002 36.031 -55.4949 90.0775" stroke-linecap="round" class="st12"/>
      <path fill-opacity="1" stroke-opacity="1" d="M -72.8279 76.7446 A 105.80000000000001 105.80000000000001 0 0 1 -87.0497 60.1331 C -34.819880000000005 24.053240000000002 -15.697600000000001 -39.301 -39.244 -98.2525 A 105.80000000000001 105.80000000000001 0 0 1 -18.2066 -104.2217 C -7.282640000000001 -41.688680000000005 -29.13116 30.697840000000003 -72.8279 76.7446" stroke-linecap="round" class="st13"/>
      <path fill-opacity="1" stroke-opacity="1" d="M -94.5338 -47.508 A 105.80000000000001 105.80000000000001 0 0 1 -87.0974 -60.064 C -45.597676282006326 -31.445012459642058 -9.531612344294738 -54.5626773951964 -18.2066 -104.2217 A 105.80000000000001 105.80000000000001 0 0 1 -3.6924 -105.7355 C -1.47696 -42.294200000000004 -37.813520000000004 -19.003200000000003 -94.5338 -47.508" stroke-linecap="round" class="st14"/>
    </g>
    <g class="raphael-group-1090-node-container" transform="matrix(1,0,0,1,374.5,205)">
      <g class="raphael-group-1091-text-path-container">
        <path fill-opacity="1" stroke-opacity="1" stroke-dasharray="none" d="M0,-120.8A120.80000000000001,120.80000000000001,0,0,1,107.8934,-54.3291L98.0687,-49.3819A109.80000000000001,109.80000000000001,0,0,0,0,-109.8Z" stroke-linecap="round" class="st15"/>
      </g>
      <g class="raphael-group-1094-text-path-container">
        <path fill-opacity="1" stroke-opacity="1" stroke-dasharray="none" d="M109.7237,-50.5306A120.80000000000001,120.80000000000001,0,0,1,94.4794,75.2747L85.8761,68.4203A109.80000000000001,109.80000000000001,0,0,0,99.7323,-45.9293Z" stroke-linecap="round" class="st16"/>
      </g>
      <g class="raphael-group-1097-text-path-container">
        <path fill-opacity="1" stroke-opacity="1" stroke-dasharray="none" d="M91.7948,78.5262A120.80000000000001,120.80000000000001,0,0,1,-12.4364,120.1581L-11.3039,109.2166A109.80000000000001,109.80000000000001,0,0,0,83.436,71.3756Z" stroke-linecap="round" class="st17"/>
      </g>
      <g class="raphael-group-1100-text-path-container">
        <path fill-opacity="1" stroke-opacity="1" stroke-dasharray="none" d="M-16.6223,119.6509A120.80000000000001,120.80000000000001,0,0,1,-99.3913,68.6586L-90.3408,62.4066A109.80000000000001,109.80000000000001,0,0,0,-15.1087,108.7555Z" stroke-linecap="round" class="st18"/>
      </g>
      <g class="raphael-group-1103-text-path-container">
        <path fill-opacity="1" stroke-opacity="1" stroke-dasharray="none" d="M-101.7269,65.1481A120.80000000000001,120.80000000000001,0,0,1,-99.4458,-68.5797L-90.3903,-62.3349A109.80000000000001,109.80000000000001,0,0,0,-92.4637,59.2157Z" stroke-linecap="round" class="st19"/>
      </g>
      <g class="raphael-group-1106-text-path-container">
        <path fill-opacity="1" stroke-opacity="1" stroke-dasharray="none" d="M-96.9918,-72.0086A120.80000000000001,120.80000000000001,0,0,1,-4.2159,-120.7264L-3.832,-109.7331A109.80000000000001,109.80000000000001,0,0,0,-88.1597,-65.4515Z" stroke-linecap="round" class="st20"/>
      </g>
    </g>
  </g>
</svg>
