<?xml version='1.0' encoding='utf-8'?>
<svg xmlns="http://www.w3.org/2000/svg" width="880" height="340" viewBox="-440,-170,880,340" style="max-width: 100%; height: auto; font: 10px sans-serif;">

  <defs id="defs">
    <linearGradient id="linearGradient_4" x1="0%" y1="100%" x2="0%" y2="0%">
      <stop offset="0%" style="stop-color:hsl(0, 70%, 50%);stop-opacity:0.5" id="stop_9" />
      <stop offset="100%" style="stop-color:hsl(0, 70%, 50%);stop-opacity:1" id="stop_8" />
    </linearGradient>
    <linearGradient id="linearGradient_3" x1="0%" y1="100%" x2="0%" y2="0%">
      <stop offset="0%" style="stop-color:hsl(60, 70%, 50%);stop-opacity:0.5" id="stop_7" />
      <stop offset="100%" style="stop-color:hsl(60, 70%, 50%);stop-opacity:1" id="stop_6" />
    </linearGradient>
    <linearGradient id="linearGradient_2" x1="0%" y1="100%" x2="0%" y2="0%">
      <stop offset="0%" style="stop-color:hsl(120, 70%, 50%);stop-opacity:0.5" id="stop_5" />
      <stop offset="100%" style="stop-color:hsl(120, 70%, 50%);stop-opacity:1" id="stop_4" />
    </linearGradient>
    <linearGradient id="linearGradient_1" x1="0%" y1="100%" x2="0%" y2="0%">
      <stop offset="0%" style="stop-color:hsl(180, 70%, 50%);stop-opacity:0.5" id="stop_3" />
      <stop offset="100%" style="stop-color:hsl(180, 70%, 50%);stop-opacity:1" id="stop_2" />
    </linearGradient>
    <linearGradient id="linearGradient" x1="0%" y1="100%" x2="0%" y2="0%">
      <stop offset="0%" style="stop-color:hsl(240, 70%, 50%);stop-opacity:0.5" id="stop_1" />
      <stop offset="100%" style="stop-color:hsl(240, 70%, 50%);stop-opacity:1" id="stop" />
    </linearGradient>
  </defs>
  
  
  <path d="M-350,0 L-300,-50 L-250,-30 L-200,-40 L-150,-20 L-100,-40 L-50,-10 L0,-30 L50,-10 L100,-20 L150,0 Z" fill="url(#linearGradient_1)" id="path_4" />
  
  <path d="M-350,0 L-300,-40 L-250,-20 L-200,-30 L-150,-10 L-100,-30 L-50,0 Z" fill="url(#linearGradient_2)" id="path_3" />
  
  <path d="M-350,0 L-300,-30 L-250,-10 L-200,-20 L-150,0 L-100,-20 L-50,0 Z" fill="url(#linearGradient_3)" id="path_2" />
  
  <path d="M-350,0 L-300,-20 L-250,0 L-200,-10 L-150,0 L-100,-10 L-50,0 Z" fill="url(#linearGradient_4)" id="path_1" />
  
  <path d="M-350,0 L-300,-10 L-250,0 L-200,-5 L-150,0 L-100,-5 L-50,0 Z" fill="url(#linearGradient)" id="path" />
  
  

</svg>