<?xml version='1.0' encoding='UTF-8'?>
<svg xmlns="http://www.w3.org/2000/svg" width="900" height="340" viewBox="-420,-170,880,340" style="max-width: 100%; height: auto; font: 10px sans-serif;">
  <line x1="-380" y1="-40" x2="-380" y2="70" stroke="#000" stroke-width="1.5"/>
  <rect x="-400" y="10" width="40" height="30" fill="hsl(222, 77%, 39%)" stroke="#000" stroke-width="1.5" opacity="0.7"/>
  <line x1="-400" y1="20" x2="-360" y2="20" stroke="#000" stroke-width="2"/>
  <line x1="-400" y1="-40" x2="-360" y2="-40" stroke="#000" stroke-width="1.5"/>
  <line x1="-400" y1="70" x2="-360" y2="70" stroke="#000" stroke-width="1.5"/>
  <circle cx="-380" cy="80" r="3" fill="hsl(234, 88%, 30%)"/>
  <line x1="-330" y1="-30" x2="-330" y2="80" stroke="#000" stroke-width="1.5"/>
  <rect x="-350" y="5" width="40" height="50" fill="hsl(70, 94%, 47%)" stroke="#000" stroke-width="1.5" opacity="0.7"/>
  <line x1="-350" y1="25" x2="-310" y2="25" stroke="#000" stroke-width="2"/>
  <line x1="-350" y1="-30" x2="-310" y2="-30" stroke="#000" stroke-width="1.5"/>
  <line x1="-350" y1="80" x2="-310" y2="80" stroke="#000" stroke-width="1.5"/>
  <circle cx="-330" cy="90" r="3" fill="hsl(21, 100%, 53%)"/>
  <line x1="-260" y1="-50" x2="-260" y2="60" stroke="#000" stroke-width="1.5"/>
  <rect x="-280" y="-5" width="40" height="60" fill="hsl(128, 72%, 48%)" stroke="#000" stroke-width="1.5" opacity="0.7"/>
  <line x1="-280" y1="15" x2="-240" y2="15" stroke="#000" stroke-width="2"/>
  <line x1="-280" y1="-50" x2="-240" y2="-50" stroke="#000" stroke-width="1.5"/>
  <line x1="-280" y1="60" x2="-240" y2="60" stroke="#000" stroke-width="1.5"/>
  <circle cx="-260" cy="70" r="3" fill="hsl(71, 71%, 47%)"/>
  <circle cx="-260" cy="80" r="3" fill="hsl(71, 71%, 47%)"/>
  <line x1="-210" y1="-60" x2="-210" y2="50" stroke="#000" stroke-width="1.5"/>
  <rect x="-230" y="0" width="40" height="40" fill="hsl(345, 85%, 31%)" stroke="#000" stroke-width="1.5" opacity="0.7"/>
  <line x1="-230" y1="20" x2="-190" y2="20" stroke="#000" stroke-width="2"/>
  <line x1="-230" y1="-60" x2="-190" y2="-60" stroke="#000" stroke-width="1.5"/>
  <line x1="-230" y1="50" x2="-190" y2="50" stroke="#000" stroke-width="1.5"/>
  <circle cx="-210" cy="-80" r="3" fill="hsl(312, 68%, 34%)"/>
  <line x1="-140" y1="-20" x2="-140" y2="80" stroke="#000" stroke-width="1.5"/>
  <rect x="-160" y="20" width="40" height="50" fill="hsl(297, 31%, 72%)" stroke="#000" stroke-width="1.5" opacity="0.7"/>
  <line x1="-160" y1="40" x2="-120" y2="40" stroke="#000" stroke-width="2"/>
  <line x1="-160" y1="-20" x2="-120" y2="-20" stroke="#000" stroke-width="1.5"/>
  <line x1="-160" y1="80" x2="-120" y2="80" stroke="#000" stroke-width="1.5"/>
  <circle cx="-140" cy="90" r="3" fill="hsl(237, 47%, 47%)"/>
  <line x1="-90" y1="-40" x2="-90" y2="70" stroke="#000" stroke-width="1.5"/>
  <rect x="-110" y="10" width="40" height="50" fill="hsl(49, 21%, 31%)" stroke="#000" stroke-width="1.5" opacity="0.7"/>
  <line x1="-110" y1="30" x2="-70" y2="30" stroke="#000" stroke-width="2"/>
  <line x1="-110" y1="-40" x2="-70" y2="-40" stroke="#000" stroke-width="1.5"/>
  <line x1="-110" y1="70" x2="-70" y2="70" stroke="#000" stroke-width="1.5"/>
  <circle cx="-90" cy="80" r="3" fill="hsl(328, 34%, 28%)"/>
  <line x1="-20" y1="-30" x2="-20" y2="60" stroke="#000" stroke-width="1.5"/>
  <rect x="-40" y="0" width="40" height="50" fill="hsl(308, 70%, 64%)" stroke="#000" stroke-width="1.5" opacity="0.7"/>
  <line x1="-40" y1="35" x2="0" y2="35" stroke="#000" stroke-width="2"/>
  <line x1="-40" y1="-30" x2="0" y2="-30" stroke="#000" stroke-width="1.5"/>
  <line x1="-40" y1="60" x2="0" y2="60" stroke="#000" stroke-width="1.5"/>
  <circle cx="-20" cy="70" r="3" fill="hsl(319, 74%, 82%)"/>
  <line x1="30" y1="-50" x2="30" y2="50" stroke="#000" stroke-width="1.5"/>
  <rect x="10" y="5" width="40" height="40" fill="hsl(339, 0%, 66%)" stroke="#000" stroke-width="1.5" opacity="0.7"/>
  <line x1="10" y1="25" x2="50" y2="25" stroke="#000" stroke-width="2"/>
  <line x1="10" y1="-50" x2="50" y2="-50" stroke="#000" stroke-width="1.5"/>
  <line x1="10" y1="50" x2="50" y2="50" stroke="#000" stroke-width="1.5"/>
  <circle cx="30" cy="60" r="3" fill="hsl(46, 1%, 55%)"/>
  <line x1="100" y1="-30" x2="100" y2="70" stroke="#000" stroke-width="1.5"/>
  <rect x="80" y="0" width="40" height="70" fill="hsl(27, 74%, 26%)" stroke="#000" stroke-width="1.5" opacity="0.7"/>
  <line x1="80" y1="50" x2="120" y2="50" stroke="#000" stroke-width="2"/>
  <line x1="80" y1="-30" x2="120" y2="-30" stroke="#000" stroke-width="1.5"/>
  <line x1="80" y1="70" x2="120" y2="70" stroke="#000" stroke-width="1.5"/>
  <circle cx="100" cy="80" r="3" fill="hsl(59, 58%, 45%)"/>
  <line x1="150" y1="-40" x2="150" y2="60" stroke="#000" stroke-width="1.5"/>
  <rect x="130" y="0" width="40" height="40" fill="hsl(142, 78%, 35%)" stroke="#000" stroke-width="1.5" opacity="0.7"/>
  <line x1="130" y1="15" x2="170" y2="15" stroke="#000" stroke-width="2"/>
  <line x1="130" y1="-40" x2="170" y2="-40" stroke="#000" stroke-width="1.5"/>
  <line x1="130" y1="60" x2="170" y2="60" stroke="#000" stroke-width="1.5"/>
  <circle cx="150" cy="70" r="3" fill="hsl(229, 72%, 42%)"/>
  <text x="-355" y="140" font-size="14" text-anchor="middle" fill="hsl(355, 0%, 10%)">Group 1</text>
  <text x="-235" y="140" font-size="14" text-anchor="middle" fill="hsl(355, 0%, 10%)">Group 2</text>
  <text x="-110" y="140" font-size="14" text-anchor="middle" fill="hsl(355, 0%, 10%)">Group 3</text>
  <text x="5" y="140" font-size="14" text-anchor="middle" fill="hsl(355, 0%, 10%)">Group 4</text>
  <text x="125" y="140" font-size="14" text-anchor="middle" fill="hsl(355, 0%, 10%)">Group 5</text>
  <rect x="300" y="-150" width="20" height="20" fill="hsl(177, 63%, 34%)" opacity="0.7"/>
  <text x="330" y="-135" font-size="12" fill="hsl(355, 0%, 10%)">Category 1</text>
  <rect x="300" y="-120" width="20" height="20" fill="hsl(349, 100%, 71%)" opacity="0.7"/>
  <text x="330" y="-105" font-size="12" fill="hsl(355, 0%, 10%)">Category 2</text>
  <rect x="300" y="-90" width="20" height="20" fill="hsl(143, 54%, 27%)" opacity="0.7"/>
  <text x="330" y="-75" font-size="12" fill="hsl(355, 0%, 10%)">Category 3</text>
  <rect x="300" y="-60" width="20" height="20" fill="hsl(322, 77%, 33%)" opacity="0.7"/>
  <text x="330" y="-45" font-size="12" fill="hsl(355, 0%, 10%)">Category 4</text>
  <rect x="300" y="-30" width="20" height="20" fill="hsl(295, 21%, 68%)" opacity="0.7"/>
  <text x="330" y="-15" font-size="12" fill="hsl(355, 0%, 10%)">Category 5</text>
</svg>
