<?xml version='1.0' encoding='UTF-8'?>
<svg xmlns="http://www.w3.org/2000/svg" width="880" height="340" viewBox="-440,-170,880,340" style="max-width: 100%; height: auto; font: 10px sans-serif;">
  <line x1="-380" y1="-40" x2="-380" y2="70" style="stroke:#000; stroke-width:1.5;"/>
  <rect x="-400" y="10" width="40" height="30" style="fill: hsl(244, 55%, 24%); stroke:#000; stroke-width:1.5; opacity:0.7;;"/>
  <line x1="-400" y1="20" x2="-360" y2="20" style="stroke:#000; stroke-width:2;"/>
  <line x1="-400" y1="-40" x2="-360" y2="-40" style="stroke:#000; stroke-width:1.5;"/>
  <line x1="-400" y1="70" x2="-360" y2="70" style="stroke:#000; stroke-width:1.5;"/>
  <circle cx="-380" cy="80" r="3" style="fill: hsl(249, 71%, 24%);;"/>
  <line x1="-330" y1="-30" x2="-330" y2="80" style="stroke:#000; stroke-width:1.5;"/>
  <rect x="-350" y="5" width="40" height="50" style="fill: hsl(45, 92%, 33%); stroke:#000; stroke-width:1.5; opacity:0.7;;"/>
  <line x1="-350" y1="25" x2="-310" y2="25" style="stroke:#000; stroke-width:2;"/>
  <line x1="-350" y1="-30" x2="-310" y2="-30" style="stroke:#000; stroke-width:1.5;"/>
  <line x1="-350" y1="80" x2="-310" y2="80" style="stroke:#000; stroke-width:1.5;"/>
  <circle cx="-330" cy="90" r="3" style="fill: hsl(346, 100%, 46%);;"/>
  <line x1="-260" y1="-50" x2="-260" y2="60" style="stroke:#000; stroke-width:1.5;"/>
  <rect x="-280" y="-5" width="40" height="60" style="fill: hsl(164, 44%, 37%); stroke:#000; stroke-width:1.5; opacity:0.7;;"/>
  <line x1="-280" y1="15" x2="-240" y2="15" style="stroke:#000; stroke-width:2;"/>
  <line x1="-280" y1="-50" x2="-240" y2="-50" style="stroke:#000; stroke-width:1.5;"/>
  <line x1="-280" y1="60" x2="-240" y2="60" style="stroke:#000; stroke-width:1.5;"/>
  <circle cx="-260" cy="70" r="3" style="fill: hsl(116, 38%, 20%);;"/>
  <circle cx="-260" cy="80" r="3" style="fill: hsl(116, 38%, 20%);;"/>
  <line x1="-210" y1="-60" x2="-210" y2="50" style="stroke:#000; stroke-width:1.5;"/>
  <rect x="-230" y="0" width="40" height="40" style="fill: hsl(12, 63%, 40%); stroke:#000; stroke-width:1.5; opacity:0.7;;"/>
  <line x1="-230" y1="20" x2="-190" y2="20" style="stroke:#000; stroke-width:2;"/>
  <line x1="-230" y1="-60" x2="-190" y2="-60" style="stroke:#000; stroke-width:1.5;"/>
  <line x1="-230" y1="50" x2="-190" y2="50" style="stroke:#000; stroke-width:1.5;"/>
  <circle cx="-210" cy="-80" r="3" style="fill: hsl(20, 68%, 54%);;"/>
  <line x1="-140" y1="-20" x2="-140" y2="80" style="stroke:#000; stroke-width:1.5;"/>
  <rect x="-160" y="20" width="40" height="50" style="fill: hsl(262, 40%, 61%); stroke:#000; stroke-width:1.5; opacity:0.7;;"/>
  <line x1="-160" y1="40" x2="-120" y2="40" style="stroke:#000; stroke-width:2;"/>
  <line x1="-160" y1="-20" x2="-120" y2="-20" style="stroke:#000; stroke-width:1.5;"/>
  <line x1="-160" y1="80" x2="-120" y2="80" style="stroke:#000; stroke-width:1.5;"/>
  <circle cx="-140" cy="90" r="3" style="fill: hsl(280, 37%, 40%);;"/>
  <line x1="-90" y1="-40" x2="-90" y2="70" style="stroke:#000; stroke-width:1.5;"/>
  <rect x="-110" y="10" width="40" height="50" style="fill: hsl(8, 45%, 29%); stroke:#000; stroke-width:1.5; opacity:0.7;;"/>
  <line x1="-110" y1="30" x2="-70" y2="30" style="stroke:#000; stroke-width:2;"/>
  <line x1="-110" y1="-40" x2="-70" y2="-40" style="stroke:#000; stroke-width:1.5;"/>
  <line x1="-110" y1="70" x2="-70" y2="70" style="stroke:#000; stroke-width:1.5;"/>
  <circle cx="-90" cy="80" r="3" style="fill: hsl(345, 27%, 26%);;"/>
  <line x1="-20" y1="-30" x2="-20" y2="60" style="stroke:#000; stroke-width:1.5;"/>
  <rect x="-40" y="0" width="40" height="50" style="fill: hsl(282, 61%, 71%); stroke:#000; stroke-width:1.5; opacity:0.7;;"/>
  <line x1="-40" y1="35" x2="0" y2="35" style="stroke:#000; stroke-width:2;"/>
  <line x1="-40" y1="-30" x2="0" y2="-30" style="stroke:#000; stroke-width:1.5;"/>
  <line x1="-40" y1="60" x2="0" y2="60" style="stroke:#000; stroke-width:1.5;"/>
  <circle cx="-20" cy="70" r="3" style="fill: hsl(269, 48%, 68%);;"/>
  <line x1="30" y1="-50" x2="30" y2="50" style="stroke:#000; stroke-width:1.5;"/>
  <rect x="10" y="5" width="40" height="40" style="fill: hsl(28, 0%, 59%); stroke:#000; stroke-width:1.5; opacity:0.7;;"/>
  <line x1="10" y1="25" x2="50" y2="25" style="stroke:#000; stroke-width:2;"/>
  <line x1="10" y1="-50" x2="50" y2="-50" style="stroke:#000; stroke-width:1.5;"/>
  <line x1="10" y1="50" x2="50" y2="50" style="stroke:#000; stroke-width:1.5;"/>
  <circle cx="30" cy="60" r="3" style="fill: hsl(38, 13%, 65%);;"/>
  <line x1="100" y1="-30" x2="100" y2="70" style="stroke:#000; stroke-width:1.5;"/>
  <rect x="80" y="0" width="40" height="70" style="fill: hsl(71, 54%, 43%); stroke:#000; stroke-width:1.5; opacity:0.7;;"/>
  <line x1="80" y1="50" x2="120" y2="50" style="stroke:#000; stroke-width:2;"/>
  <line x1="80" y1="-30" x2="120" y2="-30" style="stroke:#000; stroke-width:1.5;"/>
  <line x1="80" y1="70" x2="120" y2="70" style="stroke:#000; stroke-width:1.5;"/>
  <circle cx="100" cy="80" r="3" style="fill: hsl(92, 60%, 26%);;"/>
  <line x1="150" y1="-40" x2="150" y2="60" style="stroke:#000; stroke-width:1.5;"/>
  <rect x="130" y="0" width="40" height="40" style="fill: hsl(214, 84%, 44%); stroke:#000; stroke-width:1.5; opacity:0.7;;"/>
  <line x1="130" y1="15" x2="170" y2="15" style="stroke:#000; stroke-width:2;"/>
  <line x1="130" y1="-40" x2="170" y2="-40" style="stroke:#000; stroke-width:1.5;"/>
  <line x1="130" y1="60" x2="170" y2="60" style="stroke:#000; stroke-width:1.5;"/>
  <circle cx="150" cy="70" r="3" style="fill: hsl(159, 75%, 59%);;"/>
  <text x="-355" y="140" font-size="14" text-anchor="middle" style="fill: hsl(347, 0%, 5%);;">Group 1</text>
  <text x="-235" y="140" font-size="14" text-anchor="middle" style="fill: hsl(347, 0%, 5%);;">Group 2</text>
  <text x="-110" y="140" font-size="14" text-anchor="middle" style="fill: hsl(347, 0%, 5%);;">Group 3</text>
  <text x="5" y="140" font-size="14" text-anchor="middle" style="fill: hsl(347, 0%, 5%);;">Group 4</text>
  <text x="125" y="140" font-size="14" text-anchor="middle" style="fill: hsl(347, 0%, 5%);;">Group 5</text>
  <rect x="300" y="-150" width="20" height="20" style="fill: hsl(177, 54%, 56%); opacity:0.7;;"/>
  <text x="330" y="-135" font-size="12" style="fill: hsl(347, 0%, 5%);;">Category 1</text>
  <rect x="300" y="-120" width="20" height="20" style="fill: hsl(68, 85%, 50%); opacity:0.7;;"/>
  <text x="330" y="-105" font-size="12" style="fill: hsl(347, 0%, 5%);;">Category 2</text>
  <rect x="300" y="-90" width="20" height="20" style="fill: hsl(118, 53%, 44%); opacity:0.7;;"/>
  <text x="330" y="-75" font-size="12" style="fill: hsl(347, 0%, 5%);;">Category 3</text>
  <rect x="300" y="-60" width="20" height="20" style="fill: hsl(345, 65%, 43%); opacity:0.7;;"/>
  <text x="330" y="-45" font-size="12" style="fill: hsl(347, 0%, 5%);;">Category 4</text>
  <rect x="300" y="-30" width="20" height="20" style="fill: hsl(234, 34%, 57%); opacity:0.7;;"/>
  <text x="330" y="-15" font-size="12" style="fill: hsl(347, 0%, 5%);;">Category 5</text>
</svg>
