<?xml version='1.0' encoding='utf-8'?>
<svg width="880" height="340" viewBox="-400,-130,880,340" style="max-width: 100%; height: auto; font: 10px sans-serif;" id="svg">
  <line x1="0" y1="0" x2="100" y2="30" id="line_11" style="stroke:lightgray; stroke-width:1;" />
  <line x1="0" y1="0" x2="-80" y2="50" id="line_10" style="stroke:lightgray; stroke-width:1;" />
  <line x1="0" y1="0" x2="120" y2="-40" id="line_9" style="stroke:lightgray; stroke-width:1;" />
  <line x1="0" y1="0" x2="60" y2="80" id="line_8" style="stroke:lightgray; stroke-width:1;" />
  <line x1="100" y1="30" x2="150" y2="10" id="line_7" style="stroke:lightgray; stroke-width:1;" />
  <line x1="-80" y1="50" x2="-120" y2="90" id="line_6" style="stroke:lightgray; stroke-width:1;" />
  <line x1="-80" y1="50" x2="-50" y2="-30" id="line_5" style="stroke:lightgray; stroke-width:1;" />
  <line x1="120" y1="-40" x2="180" y2="-80" id="line_4" style="stroke:lightgray; stroke-width:1;" />
  <line x1="60" y1="80" x2="90" y2="140" id="line_3" style="stroke:lightgray; stroke-width:1;" />
  <line x1="60" y1="80" x2="30" y2="130" id="line_2" style="stroke:lightgray; stroke-width:1;" />
  <line x1="150" y1="10" x2="200" y2="40" id="line_1" style="stroke:lightgray; stroke-width:1;" />
  <line x1="200" y1="40" x2="250" y2="70" id="line" style="stroke:lightgray; stroke-width:1;" />
  <circle cx="0" cy="0" r="30" id="circle_12" style="fill: hsl(21, 81%, 69%);;" />
  <circle cx="100" cy="30" r="20" id="circle_11" style="fill: hsl(184, 65%, 87%);;" />
  <circle cx="-80" cy="50" r="15" id="circle_10" style="fill: hsl(43, 83%, 67%);;" />
  <circle cx="120" cy="-40" r="25" id="circle_9" style="fill: hsl(184, 65%, 87%);;" />
  <circle cx="60" cy="80" r="10" id="circle_8" style="fill: hsl(43, 83%, 67%);;" />
  <circle cx="150" cy="10" r="25" id="circle_7" style="fill: hsl(184, 65%, 87%);;" />
  <circle cx="-120" cy="90" r="20" id="circle_6" style="fill: hsl(43, 83%, 67%);;" />
  <circle cx="-50" cy="-30" r="10" id="circle_5" style="fill: hsl(184, 65%, 87%);;" />
  <circle cx="180" cy="-80" r="15" id="circle_4" style="fill: hsl(43, 83%, 67%);;" />
  <circle cx="90" cy="140" r="20" id="circle_3" style="fill: hsl(184, 65%, 87%);;" />
  <circle cx="30" cy="130" r="15" id="circle_2" style="fill: hsl(43, 83%, 67%);;" />
  <circle cx="200" cy="40" r="20" id="circle_1" style="fill: hsl(184, 65%, 87%);;" />
  <circle cx="250" cy="70" r="15" id="circle" style="fill: hsl(334, 99%, 34%);;" />
</svg>