<?xml version='1.0' encoding='UTF-8'?>
<svg xmlns="http://www.w3.org/2000/svg" width="900" height="340" viewBox="-440,-170,880,340" style="max-width: 100%; height: auto; font: 10px sans-serif;">
  <rect x="-400" y="-160" width="80" height="80" id="rect_39" fill="hsl(193, 87%, 56%)" stroke="black" stroke-width="1"/>
  <rect x="-320" y="-160" width="80" height="80" id="rect_38" fill="hsl(100, 65%, 66%)" stroke="black" stroke-width="1"/>
  <rect x="-240" y="-160" width="80" height="80" id="rect_37" fill="hsl(345, 100%, 67%)" stroke="black" stroke-width="1"/>
  <rect x="-160" y="-160" width="80" height="80" id="rect_36" fill="hsl(291, 36%, 71%)" stroke="black" stroke-width="1"/>
  <rect x="-80" y="-160" width="80" height="80" id="rect_35" fill="hsl(32, 100%, 37%)" stroke="black" stroke-width="1"/>
  <rect x="0" y="-160" width="80" height="80" id="rect_34" fill="hsl(44, 100%, 57%)" stroke="black" stroke-width="1"/>
  <rect x="80" y="-160" width="80" height="80" id="rect_33" fill="hsl(220, 61%, 95%)" stroke="black" stroke-width="1"/>
  <rect x="160" y="-160" width="80" height="80" id="rect_32" fill="hsl(100, 65%, 66%)" stroke="black" stroke-width="1"/>
  <rect x="240" y="-160" width="80" height="80" id="rect_31" fill="hsl(345, 100%, 67%)" stroke="black" stroke-width="1"/>
  <rect x="320" y="-160" width="80" height="80" id="rect_30" fill="hsl(291, 36%, 71%)" stroke="black" stroke-width="1"/>
  <rect x="-400" y="-80" width="80" height="80" id="rect_29" fill="hsl(32, 100%, 37%)" stroke="black" stroke-width="1"/>
  <rect x="-320" y="-80" width="80" height="80" id="rect_28" fill="hsl(44, 100%, 57%)" stroke="black" stroke-width="1"/>
  <rect x="-240" y="-80" width="80" height="80" id="rect_27" fill="hsl(220, 61%, 95%)" stroke="black" stroke-width="1"/>
  <rect x="-160" y="-80" width="80" height="80" id="rect_26" fill="hsl(100, 65%, 66%)" stroke="black" stroke-width="1"/>
  <rect x="-80" y="-80" width="80" height="80" id="rect_25" fill="hsl(345, 100%, 67%)" stroke="black" stroke-width="1"/>
  <rect x="0" y="-80" width="80" height="80" id="rect_24" fill="hsl(291, 36%, 71%)" stroke="black" stroke-width="1"/>
  <rect x="80" y="-80" width="80" height="80" id="rect_23" fill="hsl(32, 100%, 37%)" stroke="black" stroke-width="1"/>
  <rect x="160" y="-80" width="80" height="80" id="rect_22" fill="hsl(44, 100%, 57%)" stroke="black" stroke-width="1"/>
  <rect x="240" y="-80" width="80" height="80" id="rect_21" fill="hsl(220, 61%, 95%)" stroke="black" stroke-width="1"/>
  <rect x="320" y="-80" width="80" height="80" id="rect_20" fill="hsl(100, 65%, 66%)" stroke="black" stroke-width="1"/>
  <rect x="-400" y="0" width="80" height="80" id="rect_19" fill="hsl(345, 100%, 67%)" stroke="black" stroke-width="1"/>
  <rect x="-320" y="0" width="80" height="80" id="rect_18" fill="hsl(291, 36%, 71%)" stroke="black" stroke-width="1"/>
  <rect x="-240" y="0" width="80" height="80" id="rect_17" fill="hsl(32, 100%, 37%)" stroke="black" stroke-width="1"/>
  <rect x="-160" y="0" width="80" height="80" id="rect_16" fill="hsl(44, 100%, 57%)" stroke="black" stroke-width="1"/>
  <rect x="-80" y="0" width="80" height="80" id="rect_15" fill="hsl(220, 61%, 95%)" stroke="black" stroke-width="1"/>
  <rect x="0" y="0" width="80" height="80" id="rect_14" fill="hsl(100, 65%, 66%)" stroke="black" stroke-width="1"/>
  <rect x="80" y="0" width="80" height="80" id="rect_13" fill="hsl(345, 100%, 67%)" stroke="black" stroke-width="1"/>
  <rect x="160" y="0" width="80" height="80" id="rect_12" fill="hsl(291, 36%, 71%)" stroke="black" stroke-width="1"/>
  <rect x="240" y="0" width="80" height="80" id="rect_11" fill="hsl(32, 100%, 37%)" stroke="black" stroke-width="1"/>
  <rect x="320" y="0" width="80" height="80" id="rect_10" fill="hsl(44, 100%, 57%)" stroke="black" stroke-width="1"/>
  <rect x="-400" y="80" width="80" height="80" id="rect_9" fill="hsl(220, 61%, 95%)" stroke="black" stroke-width="1"/>
  <rect x="-320" y="80" width="80" height="80" id="rect_8" fill="hsl(100, 65%, 66%)" stroke="black" stroke-width="1"/>
  <rect x="-240" y="80" width="80" height="80" id="rect_7" fill="hsl(345, 100%, 67%)" stroke="black" stroke-width="1"/>
  <rect x="-160" y="80" width="80" height="80" id="rect_6" fill="hsl(291, 36%, 71%)" stroke="black" stroke-width="1"/>
  <rect x="-80" y="80" width="80" height="80" id="rect_5" fill="hsl(32, 100%, 37%)" stroke="black" stroke-width="1"/>
  <rect x="0" y="80" width="80" height="80" id="rect_4" fill="hsl(44, 100%, 57%)" stroke="black" stroke-width="1"/>
  <rect x="80" y="80" width="80" height="80" id="rect_3" fill="hsl(220, 61%, 95%)" stroke="black" stroke-width="1"/>
  <rect x="160" y="80" width="80" height="80" id="rect_2" fill="hsl(100, 65%, 66%)" stroke="black" stroke-width="1"/>
  <rect x="240" y="80" width="80" height="80" id="rect_1" fill="hsl(345, 100%, 67%)" stroke="black" stroke-width="1"/>
  <rect x="320" y="80" width="80" height="80" id="rect" fill="hsl(291, 36%, 71%)" stroke="black" stroke-width="1"/>
</svg>
