<?xml version='1.0' encoding='UTF-8'?>
<svg xmlns="http://www.w3.org/2000/svg" width="900" height="340" viewBox="-70,-30,880,340" style="max-width: 100%; height: auto; font: 10px sans-serif;">
  <g id="Layer_1">
    <circle cx="202.5" cy="161.2" r="148.5" style="fill:none;stroke:#CCCCCC;"/>
    <circle cx="202.5" cy="161.2" r="132.9" style="fill:none;stroke:#CCCCCC;"/>
    <circle cx="202.5" cy="161.2" r="117.2" style="fill:none;stroke:#CCCCCC;"/>
    <circle cx="202.5" cy="161.2" r="101.6" style="fill:none;stroke:#CCCCCC;"/>
    <circle cx="202.5" cy="161.2" r="86" style="fill:none;stroke:#CCCCCC;"/>
    <circle cx="202.5" cy="161.2" r="70.3" style="fill:none;stroke:#CCCCCC;"/>
    <circle cx="202.5" cy="161.2" r="54.7" style="fill:none;stroke:#CCCCCC;"/>
    <circle cx="202.5" cy="161.2" r="39.1" style="fill:none;stroke:#CCCCCC;"/>
    <circle cx="202.5" cy="161.2" r="23.4" style="fill:none;stroke:#CCCCCC;"/>
    <line x1="351.5" y1="161.2" x2="54.2" y2="161.2" style="fill:none;stroke:#CCCCCC;"/>
    <line x1="202.5" y1="309.5" x2="202.5" y2="12.2" style="fill:none;stroke:#CCCCCC;"/>
    <line x1="307.5" y1="56.2" x2="97.3" y2="266.3" style="fill:none;stroke:#CCCCCC;"/>
    <line x1="202.5" y1="161.2" x2="307.6" y2="266.3" style="fill:none;stroke:#CCCCCC;"/>
    <path d="M225.5,161c0,12.7-10.3,23.1-23.1,23.1c-12.7,0-23.1-10.3-23.1-23.1c0-12.7,10.3-23.1,23.1-23.1   C215.2,138,225.5,148.3,225.5,161z" style="fill:#FFFFFF;"/>
    <circle cx="524.5" cy="162.2" r="148.5" style="fill:none;stroke:#CCCCCC;"/>
    <circle cx="524.5" cy="162.2" r="132.9" style="fill:none;stroke:#CCCCCC;"/>
    <circle cx="524.5" cy="162.2" r="117.2" style="fill:none;stroke:#CCCCCC;"/>
    <circle cx="524.5" cy="162.2" r="101.6" style="fill:none;stroke:#CCCCCC;"/>
    <circle cx="524.5" cy="162.2" r="86" style="fill:none;stroke:#CCCCCC;"/>
    <circle cx="524.5" cy="162.2" r="70.3" style="fill:none;stroke:#CCCCCC;"/>
    <circle cx="524.5" cy="162.2" r="54.7" style="fill:none;stroke:#CCCCCC;"/>
    <circle cx="524.5" cy="162.2" r="39.1" style="fill:none;stroke:#CCCCCC;"/>
    <circle cx="524.5" cy="162.2" r="23.4" style="fill:none;stroke:#CCCCCC;"/>
    <line x1="673.5" y1="162.2" x2="376.2" y2="162.2" style="fill:none;stroke:#CCCCCC;"/>
    <line x1="524.5" y1="310.5" x2="524.5" y2="13.2" style="fill:none;stroke:#CCCCCC;"/>
    <line x1="629.5" y1="57.2" x2="419.3" y2="267.3" style="fill:none;stroke:#CCCCCC;"/>
    <line x1="524.5" y1="162.2" x2="629.6" y2="267.3" style="fill:none;stroke:#CCCCCC;"/>
    <path d="M562.5,162.1c0,21-17.1,38.1-38.1,38.1c-21,0-38.1-17-38.1-38.1c0-21,17.1-38.1,38.1-38.1   C545.5,124,562.5,141,562.5,162.1z" style="fill:#FFFFFF;"/>
  </g>
  <g id="Layer_2">
    <g>
      <path d="M221.5,190.7l-6.5-10.1c6.8-4.3,10.8-11.7,10.8-19.7c0-12.9-10.5-23.4-23.4-23.4v-12    c19.5,0,35.4,15.9,35.4,35.4C237.9,173,231.8,184.2,221.5,190.7z" style="fill:#FF0000;"/>
    </g>
    <g>
      <path d="M202.5,211.4v-12c21.2,0,38.5-17.3,38.5-38.5c0-21.2-17.3-38.5-38.5-38.5v-12c27.8,0,50.5,22.7,50.5,50.5    C253,188.8,230.4,211.4,202.5,211.4z" style="fill:#FF0000;"/>
    </g>
    <g>
      <path d="M243.8,213.1l-7.5-9.4c13.1-10.4,20.7-26,20.7-42.8c0-30.1-24.5-54.5-54.5-54.5v-12    c36.7,0,66.5,29.8,66.5,66.5C269,181.4,259.8,200.4,243.8,213.1z" style="fill:#FF0000;"/>
    </g>
    <g>
      <path d="M202.5,243.3c-22.2,0-43-8.7-58.6-24.5l8.5-8.4c13.3,13.5,31.1,20.9,50.1,20.9c38.8,0,70.3-31.6,70.3-70.3    c0-38.8-31.6-70.3-70.3-70.3v-12c45.4,0,82.3,36.9,82.3,82.3C284.8,206.3,247.9,243.3,202.5,243.3z" style="fill:#FF0000;"/>
    </g>
    <g>
      <path d="M202.5,258.2c-42.1,0-79.2-26.8-92.4-66.7l11.4-3.8c11.6,35,44.1,58.5,81,58.5c47,0,85.3-38.3,85.3-85.3    c0-47-38.3-85.3-85.3-85.3v-12c53.6,0,97.3,43.6,97.3,97.3C299.8,214.6,256.1,258.2,202.5,258.2z" style="fill:#FF0000;"/>
    </g>
    <g>
      <path d="M202.5,274.5v-12c56,0,101.6-45.6,101.6-101.6c0-56-45.6-101.6-101.6-101.6v-12c62.6,0,113.6,51,113.6,113.6    C316.1,223.6,265.1,274.5,202.5,274.5z" style="fill:#FF0000;"/>
    </g>
    <g>
      <path d="M202.5,290.2c-29.7,0-58.7-10.3-81.6-29l7.6-9.3c20.8,17,47.1,26.3,74,26.3c64.6,0,117.2-52.6,117.2-117.2    c0-64.6-52.6-117.2-117.2-117.2v-12c71.3,0,129.2,58,129.2,129.2C331.7,232.2,273.8,290.2,202.5,290.2z" style="fill:#FF0000;"/>
    </g>
    <g>
      <path d="M202.5,305.8c-28.1,0-55.4-8.1-78.9-23.3c-22.9-14.9-41-35.8-52.5-60.4l10.9-5.1    c21.7,46.7,69,76.9,120.5,76.9c73.3,0,132.9-59.6,132.9-132.9c0-73.3-59.6-132.9-132.9-132.9v-12c79.9,0,144.9,65,144.9,144.9    C347.4,240.8,282.4,305.8,202.5,305.8z" style="fill:#FF0000;"/>
    </g>
    <g>
      <path d="M524.5,212.4c-12,0-23.6-4.3-32.7-12l7.8-9.1c6.9,5.9,15.8,9.1,24.9,9.1c21.2,0,38.5-17.3,38.5-38.5    c0-21.2-17.3-38.5-38.5-38.5v-12c27.8,0,50.5,22.7,50.5,50.5C575,189.8,552.4,212.4,524.5,212.4z" style="fill:#FF8080;"/>
    </g>
    <g>
      <path d="M591,161.9h-12c0-30.1-24.5-54.5-54.5-54.5v-12C561.2,95.4,591,125.2,591,161.9z" style="fill:#FF8080;"/>
    </g>
    <g>
      <path d="M576.4,225.9l-7.6-9.3c16.5-13.4,26-33.3,26-54.6c0-38.8-31.6-70.3-70.3-70.3v-12c45.4,0,82.3,36.9,82.3,82.3    C606.8,186.8,595.7,210.2,576.4,225.9z" style="fill:#FF8080;"/>
    </g>
    <g>
      <path d="M603.8,130.4c-13-32.6-44.1-53.7-79.2-53.7v-12c19.8,0,38.9,5.9,55.2,17.2c15.9,11,28.1,26.2,35.2,44.1    L603.8,130.4z" style="fill:#FF8080;"/>
    </g>
    <g>
      <path d="M524.5,275.5c-10.8,0-21.5-1.5-31.8-4.5l3.3-11.5c9.2,2.7,18.7,4,28.4,4c56,0,101.6-45.6,101.6-101.6    c0-56-45.6-101.6-101.6-101.6v-12c62.6,0,113.6,51,113.6,113.6C638.1,224.6,587.1,275.5,524.5,275.5z" style="fill:#FF8080;"/>
    </g>
    <g>
      <path d="M524.5,291.2c-40.2,0-77.4-18.2-102.1-50l9.5-7.4c22.4,28.8,56.2,45.3,92.6,45.3    c64.6,0,117.2-52.6,117.2-117.2c0-64.6-52.6-117.2-117.2-117.2v-12c71.3,0,129.2,58,129.2,129.2    C653.7,233.2,595.8,291.2,524.5,291.2z" style="fill:#FF8080;"/>
    </g>
    <g>
      <path d="M634.9,255.7l-9.1-7.8c20.4-24,31.6-54.5,31.6-86c0-73.3-59.6-132.9-132.9-132.9v-12    c79.9,0,144.9,65,144.9,144.9C669.4,196.3,657.1,229.6,634.9,255.7z" style="fill:#FF8080;"/>
    </g>
    <g>
      <path d="M176.1,20.1c0-0.4,0-0.8-0.1-1.1c0.3,0,0.6,0,1.1,0h5.4c0.5,0,0.7,0,1.1,0c0,0.3-0.1,0.6-0.1,1.1v5    c0,0.6,0,0.8,0.1,1h-0.6v-0.5h-6.2v0.5h-0.6c0-0.3,0.1-0.5,0.1-1.1V20.1z M179.1,19.6c0,1.3-0.2,2.2-0.5,2.8    c-0.3,0.6-0.7,1.1-1.4,1.6c-0.1-0.2-0.2-0.3-0.4-0.5c0.7-0.5,1.1-0.8,1.4-1.5c0.2-0.6,0.3-1.2,0.4-2.4h-1.8v5.5h6.2v-5.5h-2v3.1    c0,0.2,0,0.2,0.4,0.2c0.4,0,0.6,0,1.3-0.1v0.6c-0.4,0-0.7,0.1-1.2,0.1c-0.9,0-1-0.1-1-0.6v-3.2H179.1z" style="fill:#4D4D4D;"/>
      <path d="M187.3,23.5c-0.1,0.5-0.2,1-0.4,1.4c-0.2,0.6-0.5,1-1,1.6c-0.2-0.2-0.3-0.3-0.5-0.5c0.6-0.6,0.8-1,1.1-1.8    c0.3-0.9,0.4-2,0.4-4c0-0.8,0-1.1,0-1.5c0.3,0,0.6,0,0.9,0h3.4c0.4,0,0.6,0,0.9,0c0,0.2,0,0.5,0,0.9v5.9c0,0.3-0.1,0.5-0.3,0.6    c-0.1,0.1-0.3,0.1-0.7,0.1c-0.3,0-0.6,0-1.1,0c0-0.2-0.1-0.4-0.1-0.6c0.5,0.1,0.8,0.1,1.3,0.1c0.3,0,0.3-0.1,0.3-0.3v-2H187.3z     M191.5,21.4h-4c0,0.5,0,0.9-0.1,1.6h4.1V21.4z M191.5,19.4h-4l0,1.3v0.2h4V19.4z" style="fill:#4D4D4D;"/>
    </g>
    <g>
      <path d="M492.8,18.9c0.2,0,0.4,0,0.7,0h0.6c0.3,0,0.5,0,0.7,0c-0.1,0.5-0.1,1-0.1,1.5v4.4c0,0.4,0,0.7,0.1,1H494    c0.1-0.3,0.1-0.6,0.1-1v-5.2h-0.5c-0.3,0-0.5,0-0.8,0.1V18.9z" style="fill:#4D4D4D;"/>
      <path d="M499.1,24.3c0.1,0.3,0.2,0.4,0.3,0.6c0.3,0.3,0.6,0.4,1.1,0.4c0.6,0,1.1-0.3,1.5-0.8c0.2-0.3,0.3-0.7,0.4-1.2    c0-0.2,0.1-0.6,0.1-1.1c-0.1,0.2-0.2,0.3-0.4,0.5c-0.5,0.4-1,0.6-1.6,0.6c-0.7,0-1.2-0.2-1.6-0.6s-0.6-1-0.6-1.6    c0-1.4,1-2.4,2.4-2.4c1,0,1.8,0.6,2.2,1.5c0.2,0.5,0.3,1.1,0.3,1.9c0,1.3-0.3,2.3-0.7,2.9c-0.5,0.6-1,0.8-1.9,0.8    c-0.6,0-1.1-0.2-1.5-0.5c-0.3-0.2-0.4-0.4-0.6-0.9L499.1,24.3z M502.3,21.1c0-1-0.7-1.7-1.7-1.7c-0.6,0-1.1,0.3-1.4,0.8    c-0.1,0.2-0.2,0.6-0.2,0.9c0,1,0.6,1.7,1.6,1.7C501.5,22.8,502.3,22.1,502.3,21.1z" style="fill:#4D4D4D;"/>
      <path d="M505.6,25.8c-0.6,0-0.7,0-1,0c0.1-0.7,0.1-0.8,0.3-1.2c0.2-0.6,0.6-1.1,1.2-1.5c0.3-0.3,0.3-0.3,1.4-1    c0.9-0.6,1.2-1,1.2-1.5c0-0.7-0.6-1.1-1.5-1.1c-0.6,0-1,0.2-1.3,0.6c-0.2,0.2-0.3,0.5-0.3,0.9l-0.8-0.1c0.1-0.6,0.3-1,0.6-1.3    c0.4-0.5,1-0.7,1.8-0.7c1.4,0,2.2,0.7,2.2,1.7c0,0.5-0.2,0.9-0.5,1.3c-0.3,0.3-0.5,0.5-1.5,1.2c-0.7,0.5-1,0.7-1.3,1.1    c-0.3,0.4-0.4,0.6-0.5,1h2.9c0.5,0,0.8,0,1.1-0.1v0.8c-0.4,0-0.7-0.1-1.1-0.1H505.6z" style="fill:#4D4D4D;"/>
      <path d="M512,25.8c-0.6,0-0.7,0-1,0c0.1-0.7,0.1-0.8,0.3-1.2c0.2-0.6,0.6-1.1,1.2-1.5c0.3-0.3,0.3-0.3,1.4-1    c0.9-0.6,1.2-1,1.2-1.5c0-0.7-0.6-1.1-1.5-1.1c-0.6,0-1,0.2-1.3,0.6c-0.2,0.2-0.3,0.5-0.3,0.9l-0.8-0.1c0.1-0.6,0.3-1,0.6-1.3    c0.4-0.5,1-0.7,1.8-0.7c1.4,0,2.2,0.7,2.2,1.7c0,0.5-0.2,0.9-0.5,1.3c-0.3,0.3-0.5,0.5-1.5,1.2c-0.7,0.5-1,0.7-1.3,1.1    c-0.3,0.4-0.4,0.6-0.5,1h2.9c0.5,0,0.8,0,1.1-0.1v0.8c-0.4,0-0.7-0.1-1.1-0.1H512z" style="fill:#4D4D4D;"/>
    </g>
    <g>
      <path d="M492.8,34.2c0.2,0,0.4,0,0.7,0h0.6c0.3,0,0.5,0,0.7,0c-0.1,0.5-0.1,1-0.1,1.5v4.4c0,0.4,0,0.7,0.1,1H494    c0.1-0.3,0.1-0.6,0.1-1v-5.2h-0.5c-0.3,0-0.5,0-0.8,0.1V34.2z" style="fill:#4D4D4D;"/>
      <path d="M499.1,39.6c0.1,0.3,0.2,0.4,0.3,0.6c0.3,0.3,0.6,0.4,1.1,0.4c0.6,0,1.1-0.3,1.5-0.8c0.2-0.3,0.3-0.7,0.4-1.2    c0-0.2,0.1-0.6,0.1-1.1c-0.1,0.2-0.2,0.3-0.4,0.5c-0.5,0.4-1,0.6-1.6,0.6c-0.7,0-1.2-0.2-1.6-0.6s-0.6-1-0.6-1.6    c0-1.4,1-2.4,2.4-2.4c1,0,1.8,0.6,2.2,1.5c0.2,0.5,0.3,1.1,0.3,1.9c0,1.3-0.3,2.3-0.7,2.9c-0.5,0.6-1,0.8-1.9,0.8    c-0.6,0-1.1-0.2-1.5-0.5c-0.3-0.2-0.4-0.4-0.6-0.9L499.1,39.6z M502.3,36.4c0-1-0.7-1.7-1.7-1.7c-0.6,0-1.1,0.3-1.4,0.8    c-0.1,0.2-0.2,0.6-0.2,0.9c0,1,0.6,1.7,1.6,1.7C501.5,38.1,502.3,37.4,502.3,36.4z" style="fill:#4D4D4D;"/>
      <path d="M505.6,41.1c-0.6,0-0.7,0-1,0c0.1-0.7,0.1-0.8,0.3-1.2c0.2-0.6,0.6-1.1,1.2-1.5c0.3-0.3,0.3-0.3,1.4-1    c0.9-0.6,1.2-1,1.2-1.5c0-0.7-0.6-1.1-1.5-1.1c-0.6,0-1,0.2-1.3,0.6c-0.2,0.2-0.3,0.5-0.3,0.9l-0.8-0.1c0.1-0.6,0.3-1,0.6-1.3    c0.4-0.5,1-0.7,1.8-0.7c1.4,0,2.2,0.7,2.2,1.7c0,0.5-0.2,0.9-0.5,1.3c-0.3,0.3-0.5,0.5-1.5,1.2c-0.7,0.5-1,0.7-1.3,1.1    c-0.3,0.4-0.4,0.6-0.5,1h2.9c0.5,0,0.8,0,1.1-0.1v0.8c-0.4,0-0.7-0.1-1.1-0.1H505.6z" style="fill:#4D4D4D;"/>
      <path d="M511.6,39.4c0.1,0.5,0.3,0.7,0.5,0.9c0.3,0.2,0.7,0.3,1.2,0.3c1,0,1.7-0.5,1.7-1.4c0-0.9-0.6-1.4-1.8-1.4    c-0.3,0-0.5,0-0.7,0v-0.7c0.2,0,0.4,0.1,0.7,0.1c0.6,0,1-0.1,1.3-0.4c0.2-0.2,0.4-0.5,0.4-0.9c0-0.8-0.5-1.2-1.4-1.2    c-0.5,0-0.9,0.2-1.2,0.5c-0.1,0.2-0.2,0.3-0.3,0.6l-0.7-0.2c0.2-0.5,0.3-0.7,0.5-0.9c0.4-0.4,1-0.7,1.8-0.7c1.3,0,2.1,0.7,2.1,1.8    c0,0.5-0.2,1-0.6,1.3c-0.2,0.2-0.4,0.2-0.8,0.3c0.5,0.1,0.8,0.2,1.1,0.4c0.4,0.3,0.6,0.8,0.6,1.4c0,1.2-0.9,2-2.4,2    c-0.9,0-1.6-0.3-2-0.7c-0.2-0.2-0.3-0.4-0.5-0.9L511.6,39.4z" style="fill:#4D4D4D;"/>
    </g>
    <g>
      <path d="M492.8,49.9c0.2,0,0.4,0,0.7,0h0.6c0.3,0,0.5,0,0.7,0c-0.1,0.5-0.1,1-0.1,1.5v4.4c0,0.4,0,0.7,0.1,1H494    c0.1-0.3,0.1-0.6,0.1-1v-5.2h-0.5c-0.3,0-0.5,0-0.8,0.1V49.9z" style="fill:#4D4D4D;"/>
      <path d="M499,55.3c0.1,0.3,0.2,0.4,0.3,0.6c0.3,0.3,0.6,0.4,1.1,0.4c0.6,0,1.1-0.3,1.5-0.8c0.2-0.3,0.3-0.7,0.4-1.2    c0-0.2,0.1-0.6,0.1-1.1c-0.1,0.2-0.2,0.3-0.4,0.5c-0.5,0.4-1,0.6-1.6,0.6c-0.7,0-1.2-0.2-1.6-0.6s-0.6-1-0.6-1.6    c0-1.4,1-2.4,2.4-2.4c1,0,1.8,0.6,2.2,1.5c0.2,0.5,0.3,1.1,0.3,1.9c0,1.3-0.3,2.3-0.7,2.9c-0.5,0.6-1,0.8-1.9,0.8    c-0.6,0-1.1-0.2-1.5-0.5c-0.3-0.2-0.4-0.4-0.6-0.9L499,55.3z M502.2,52.1c0-1-0.7-1.7-1.7-1.7c-0.6,0-1.1,0.3-1.4,0.8    c-0.1,0.2-0.2,0.6-0.2,0.9c0,1,0.6,1.7,1.6,1.7C501.5,53.8,502.2,53.1,502.2,52.1z" style="fill:#4D4D4D;"/>
      <path d="M505.6,56.8c-0.6,0-0.7,0-1,0c0.1-0.7,0.1-0.8,0.3-1.2c0.2-0.6,0.6-1.1,1.2-1.5c0.3-0.3,0.3-0.3,1.4-1    c0.9-0.6,1.2-1,1.2-1.5c0-0.7-0.6-1.1-1.5-1.1c-0.6,0-1,0.2-1.3,0.6c-0.2,0.2-0.3,0.5-0.3,0.9l-0.8-0.1c0.1-0.6,0.3-1,0.6-1.3    c0.4-0.5,1-0.7,1.8-0.7c1.4,0,2.2,0.7,2.2,1.7c0,0.5-0.2,0.9-0.5,1.3c-0.3,0.3-0.5,0.5-1.5,1.2c-0.7,0.5-1,0.7-1.3,1.1    c-0.3,0.4-0.4,0.6-0.5,1h2.9c0.5,0,0.8,0,1.1-0.1v0.8c-0.4,0-0.7-0.1-1.1-0.1H505.6z" style="fill:#4D4D4D;"/>
      <path d="M510.7,54.4c0.2-0.2,0.4-0.5,0.6-0.7l2.3-2.8c0.3-0.4,0.5-0.6,0.7-0.9h0.7c0,0.5-0.1,0.8-0.1,1.5v3h0.3    c0.4,0,0.6,0,0.9-0.1v0.7c-0.3,0-0.6-0.1-0.9-0.1h-0.3v0.8c0,0.4,0,0.6,0.1,1h-0.8c0.1-0.3,0.1-0.6,0.1-1V55h-2.4    c-0.5,0-0.8,0-1.1,0V54.4z M514.2,52.1c0-0.5,0-0.8,0.1-1.2c-0.2,0.3-0.4,0.6-0.7,0.9l-2.1,2.6h2.7V52.1z" style="fill:#4D4D4D;"/>
    </g>
    <g>
      <path d="M492.8,66.6c0.2,0,0.4,0,0.7,0h0.6c0.3,0,0.5,0,0.7,0c-0.1,0.5-0.1,1-0.1,1.5v4.4c0,0.4,0,0.7,0.1,1H494    c0.1-0.3,0.1-0.6,0.1-1v-5.2h-0.5c-0.3,0-0.5,0-0.8,0.1V66.6z" style="fill:#4D4D4D;"/>
      <path d="M499.1,72c0.1,0.3,0.2,0.4,0.3,0.6c0.3,0.3,0.6,0.4,1.1,0.4c0.6,0,1.1-0.3,1.5-0.8c0.2-0.3,0.3-0.7,0.4-1.2    c0-0.2,0.1-0.6,0.1-1.1c-0.1,0.2-0.2,0.3-0.4,0.5c-0.5,0.4-1,0.6-1.6,0.6c-0.7,0-1.2-0.2-1.6-0.6s-0.6-1-0.6-1.6    c0-1.4,1-2.4,2.4-2.4c1,0,1.8,0.6,2.2,1.5c0.2,0.5,0.3,1.1,0.3,1.9c0,1.3-0.3,2.3-0.7,2.9c-0.5,0.6-1,0.8-1.9,0.8    c-0.6,0-1.1-0.2-1.5-0.5c-0.3-0.2-0.4-0.4-0.6-0.9L499.1,72z M502.3,68.8c0-1-0.7-1.7-1.7-1.7c-0.6,0-1.1,0.3-1.4,0.8    c-0.1,0.2-0.2,0.6-0.2,0.9c0,1,0.6,1.7,1.6,1.7C501.5,70.4,502.3,69.7,502.3,68.8z" style="fill:#4D4D4D;"/>
      <path d="M505.6,73.4c-0.6,0-0.7,0-1,0c0.1-0.7,0.1-0.8,0.3-1.2c0.2-0.6,0.6-1.1,1.2-1.5c0.3-0.3,0.3-0.3,1.4-1    c0.9-0.6,1.2-1,1.2-1.5c0-0.7-0.6-1.1-1.5-1.1c-0.6,0-1,0.2-1.3,0.6c-0.2,0.2-0.3,0.5-0.3,0.9l-0.8-0.1c0.1-0.6,0.3-1,0.6-1.3    c0.4-0.5,1-0.7,1.8-0.7c1.4,0,2.2,0.7,2.2,1.7c0,0.5-0.2,0.9-0.5,1.3c-0.3,0.3-0.5,0.5-1.5,1.2c-0.7,0.5-1,0.7-1.3,1.1    c-0.3,0.4-0.4,0.6-0.5,1h2.9c0.5,0,0.8,0,1.1-0.1v0.8c-0.4,0-0.7-0.1-1.1-0.1H505.6z" style="fill:#4D4D4D;"/>
      <path d="M512,69.2c0,0.2,0,0.2-0.1,0.4c0.4-0.4,1-0.6,1.6-0.6c0.7,0,1.2,0.2,1.6,0.6c0.4,0.4,0.6,0.9,0.6,1.6    c0,1.4-0.9,2.4-2.4,2.4c-0.7,0-1.3-0.2-1.7-0.6c-0.2-0.2-0.4-0.4-0.6-0.8l0.7-0.2c0.1,0.3,0.2,0.4,0.3,0.5    c0.3,0.3,0.8,0.5,1.3,0.5c1,0,1.7-0.7,1.7-1.7c0-1-0.6-1.6-1.6-1.6c-0.5,0-0.9,0.1-1.2,0.4c-0.2,0.2-0.3,0.3-0.4,0.5l-0.7-0.1    c0.1-0.4,0.1-0.5,0.1-0.9l0.2-2c0-0.3,0-0.4,0-0.5c0-0.1,0-0.2,0-0.4c0.3,0,0.4,0,1,0h1.9c0.5,0,0.7,0,1.1-0.1v0.8    c-0.3-0.1-0.6-0.1-1.1-0.1h-2.1L512,69.2z" style="fill:#4D4D4D;"/>
    </g>
    <g>
      <path d="M492.8,81.2c0.2,0,0.4,0,0.7,0h0.6c0.3,0,0.5,0,0.7,0c-0.1,0.5-0.1,1-0.1,1.5v4.4c0,0.4,0,0.7,0.1,1H494    c0.1-0.3,0.1-0.6,0.1-1v-5.2h-0.5c-0.3,0-0.5,0-0.8,0.1V81.2z" style="fill:#4D4D4D;"/>
      <path d="M499.1,86.6c0.1,0.3,0.2,0.4,0.3,0.6c0.3,0.3,0.6,0.4,1.1,0.4c0.6,0,1.1-0.3,1.5-0.8c0.2-0.3,0.3-0.7,0.4-1.2    c0-0.2,0.1-0.6,0.1-1.1c-0.1,0.2-0.2,0.3-0.4,0.5c-0.5,0.4-1,0.6-1.6,0.6c-0.7,0-1.2-0.2-1.6-0.6s-0.6-1-0.6-1.6    c0-1.4,1-2.4,2.4-2.4c1,0,1.8,0.6,2.2,1.5c0.2,0.5,0.3,1.1,0.3,1.9c0,1.3-0.3,2.3-0.7,2.9c-0.5,0.6-1,0.8-1.9,0.8    c-0.6,0-1.1-0.2-1.5-0.5c-0.3-0.2-0.4-0.4-0.6-0.9L499.1,86.6z M502.3,83.4c0-1-0.7-1.7-1.7-1.7c-0.6,0-1.1,0.3-1.4,0.8    c-0.1,0.2-0.2,0.6-0.2,0.9c0,1,0.6,1.7,1.6,1.7C501.5,85.1,502.3,84.4,502.3,83.4z" style="fill:#4D4D4D;"/>
      <path d="M505.6,88.1c-0.6,0-0.7,0-1,0c0.1-0.7,0.1-0.8,0.3-1.2c0.2-0.6,0.6-1.1,1.2-1.5c0.3-0.3,0.3-0.3,1.4-1    c0.9-0.6,1.2-1,1.2-1.5c0-0.7-0.6-1.1-1.5-1.1c-0.6,0-1,0.2-1.3,0.6c-0.2,0.2-0.3,0.5-0.3,0.9l-0.8-0.1c0.1-0.6,0.3-1,0.6-1.3    c0.4-0.5,1-0.7,1.8-0.7c1.4,0,2.2,0.7,2.2,1.7c0,0.5-0.2,0.9-0.5,1.3c-0.3,0.3-0.5,0.5-1.5,1.2c-0.7,0.5-1,0.7-1.3,1.1    c-0.3,0.4-0.4,0.6-0.5,1h2.9c0.5,0,0.8,0,1.1-0.1v0.8c-0.4,0-0.7-0.1-1.1-0.1H505.6z" style="fill:#4D4D4D;"/>
      <path d="M515,82.8c-0.1-0.3-0.2-0.4-0.3-0.6c-0.3-0.3-0.6-0.5-1.1-0.5c-0.7,0-1.2,0.4-1.6,1.1c-0.2,0.5-0.3,1-0.4,1.9    c0.2-0.3,0.3-0.4,0.5-0.6c0.4-0.4,0.9-0.5,1.5-0.5c1.4,0,2.3,0.9,2.3,2.3c0,1.4-0.9,2.3-2.4,2.3c-0.6,0-1.2-0.2-1.6-0.6    c-0.6-0.5-0.9-1.5-0.9-2.8c0-1.1,0.3-2.1,0.7-2.7c0.5-0.6,1.1-1,1.9-1c0.5,0,1,0.1,1.4,0.4c0.3,0.2,0.5,0.5,0.8,1L515,82.8z     M513.5,84.3c-0.5,0-0.9,0.2-1.2,0.5c-0.3,0.3-0.5,0.7-0.5,1.1c0,1,0.7,1.7,1.7,1.7c0.6,0,1.1-0.3,1.4-0.7c0.1-0.2,0.2-0.6,0.2-1    C515.2,84.9,514.6,84.3,513.5,84.3z" style="fill:#4D4D4D;"/>
    </g>
    <g>
      <path d="M492.8,96.9c0.2,0,0.4,0,0.7,0h0.6c0.3,0,0.5,0,0.7,0c-0.1,0.5-0.1,1-0.1,1.5v4.4c0,0.4,0,0.7,0.1,1H494    c0.1-0.3,0.1-0.6,0.1-1v-5.2h-0.5c-0.3,0-0.5,0-0.8,0.1V96.9z" style="fill:#4D4D4D;"/>
      <path d="M499.1,102.3c0.1,0.3,0.2,0.4,0.3,0.6c0.3,0.3,0.6,0.4,1.1,0.4c0.6,0,1.1-0.3,1.5-0.8    c0.2-0.3,0.3-0.7,0.4-1.2c0-0.2,0.1-0.6,0.1-1.1c-0.1,0.2-0.2,0.3-0.4,0.5c-0.5,0.4-1,0.6-1.6,0.6c-0.7,0-1.2-0.2-1.6-0.6    s-0.6-1-0.6-1.6c0-1.4,1-2.4,2.4-2.4c1,0,1.8,0.6,2.2,1.5c0.2,0.5,0.3,1.1,0.3,1.9c0,1.3-0.3,2.3-0.7,2.9c-0.5,0.6-1,0.8-1.9,0.8    c-0.6,0-1.1-0.2-1.5-0.5c-0.3-0.2-0.4-0.4-0.6-0.9L499.1,102.3z M502.3,99.1c0-1-0.7-1.7-1.7-1.7c-0.6,0-1.1,0.3-1.4,0.8    c-0.1,0.2-0.2,0.6-0.2,0.9c0,1,0.6,1.7,1.6,1.7C501.5,100.8,502.3,100.1,502.3,99.1z" style="fill:#4D4D4D;"/>
      <path d="M505.6,103.8c-0.6,0-0.7,0-1,0c0.1-0.7,0.1-0.8,0.3-1.2c0.2-0.6,0.6-1.1,1.2-1.5c0.3-0.3,0.3-0.3,1.4-1    c0.9-0.6,1.2-1,1.2-1.5c0-0.7-0.6-1.1-1.5-1.1c-0.6,0-1,0.2-1.3,0.6c-0.2,0.2-0.3,0.5-0.3,0.9l-0.8-0.1c0.1-0.6,0.3-1,0.6-1.3    c0.4-0.5,1-0.7,1.8-0.7c1.4,0,2.2,0.7,2.2,1.7c0,0.5-0.2,0.9-0.5,1.3c-0.3,0.3-0.5,0.5-1.5,1.2c-0.7,0.5-1,0.7-1.3,1.1    c-0.3,0.4-0.4,0.6-0.5,1h2.9c0.5,0,0.8,0,1.1-0.1v0.8c-0.4,0-0.7-0.1-1.1-0.1H505.6z" style="fill:#4D4D4D;"/>
      <path d="M515.8,97.5c-0.2,0.1-0.3,0.3-0.7,0.9c-0.8,1.3-1.2,2-1.5,3.1c-0.2,0.7-0.3,1.2-0.5,2.3h-0.9    c0.3-1.6,0.5-2.4,1.1-3.6c0.4-0.9,0.8-1.5,1.6-2.6H512c-0.4,0-0.7,0-1,0.1v-0.8c0.4,0,0.6,0.1,1,0.1h2.7c0.5,0,0.7,0,1,0V97.5z" style="fill:#4D4D4D;"/>
    </g>
    <g>
      <path d="M492.8,113.2c0.2,0,0.4,0,0.7,0h0.6c0.3,0,0.5,0,0.7,0c-0.1,0.5-0.1,1-0.1,1.5v4.4c0,0.4,0,0.7,0.1,1H494    c0.1-0.3,0.1-0.6,0.1-1v-5.2h-0.5c-0.3,0-0.5,0-0.8,0.1V113.2z" style="fill:#4D4D4D;"/>
      <path d="M499.1,118.6c0.1,0.3,0.2,0.4,0.3,0.6c0.3,0.3,0.6,0.4,1.1,0.4c0.6,0,1.1-0.3,1.5-0.8    c0.2-0.3,0.3-0.7,0.4-1.2c0-0.2,0.1-0.6,0.1-1.1c-0.1,0.2-0.2,0.3-0.4,0.5c-0.5,0.4-1,0.6-1.6,0.6c-0.7,0-1.2-0.2-1.6-0.6    s-0.6-1-0.6-1.6c0-1.4,1-2.4,2.4-2.4c1,0,1.8,0.6,2.2,1.5c0.2,0.5,0.3,1.1,0.3,1.9c0,1.3-0.3,2.3-0.7,2.9c-0.5,0.6-1,0.8-1.9,0.8    c-0.6,0-1.1-0.2-1.5-0.5c-0.3-0.2-0.4-0.4-0.6-0.9L499.1,118.6z M502.3,115.4c0-1-0.7-1.7-1.7-1.7c-0.6,0-1.1,0.3-1.4,0.8    c-0.1,0.2-0.2,0.6-0.2,0.9c0,1,0.6,1.7,1.6,1.7C501.5,117.1,502.3,116.4,502.3,115.4z" style="fill:#4D4D4D;"/>
      <path d="M505.6,120.1c-0.6,0-0.7,0-1,0c0.1-0.7,0.1-0.8,0.3-1.2c0.2-0.6,0.6-1.1,1.2-1.5c0.3-0.3,0.3-0.3,1.4-1    c0.9-0.6,1.2-1,1.2-1.5c0-0.7-0.6-1.1-1.5-1.1c-0.6,0-1,0.2-1.3,0.6c-0.2,0.2-0.3,0.5-0.3,0.9l-0.8-0.1c0.1-0.6,0.3-1,0.6-1.3    c0.4-0.5,1-0.7,1.8-0.7c1.4,0,2.2,0.7,2.2,1.7c0,0.5-0.2,0.9-0.5,1.3c-0.3,0.3-0.5,0.5-1.5,1.2c-0.7,0.5-1,0.7-1.3,1.1    c-0.3,0.4-0.4,0.6-0.5,1h2.9c0.5,0,0.8,0,1.1-0.1v0.8c-0.4,0-0.7-0.1-1.1-0.1H505.6z" style="fill:#4D4D4D;"/>
      <path d="M515.3,116.9c0.5,0.3,0.7,0.8,0.7,1.4c0,1.2-0.9,1.9-2.5,1.9c-1.6,0-2.6-0.7-2.6-1.9c0-0.6,0.3-1.1,0.8-1.5    c0.3-0.2,0.5-0.3,0.8-0.3c-0.8-0.1-1.3-0.8-1.3-1.6c0-1.1,0.9-1.8,2.2-1.8c1.4,0,2.2,0.7,2.2,1.8c0,0.8-0.5,1.5-1.3,1.6    C514.7,116.6,515,116.7,515.3,116.9z M511.6,118.3c0,0.9,0.7,1.4,1.8,1.4c0.6,0,1.1-0.2,1.4-0.5c0.2-0.2,0.3-0.5,0.3-0.9    c0-0.9-0.7-1.4-1.8-1.4S511.6,117.4,511.6,118.3z M511.9,115c0,0.8,0.6,1.3,1.5,1.3s1.5-0.5,1.5-1.3c0-0.8-0.6-1.2-1.5-1.2    C512.5,113.7,511.9,114.2,511.9,115z" style="fill:#4D4D4D;"/>
    </g>
    <g>
      <path d="M182.8,40.4c0.5,0,0.7,0,1-0.1V41c-0.3,0-0.6-0.1-1-0.1h-6c-0.4,0-0.7,0-1,0.1v-0.7c0.3,0,0.5,0.1,1,0.1h1    c0.4-1.2,0.6-2.1,0.9-3.2h-1c-0.4,0-0.7,0-0.9,0.1v-0.7c0.2,0,0.5,0.1,0.9,0.1h1.1c0.2-0.8,0.2-1.3,0.3-2.2h-1.8    c-0.4,0-0.7,0-1,0.1v-0.7c0.3,0,0.5,0.1,1,0.1h5.1c0.5,0,0.7,0,1-0.1v0.7c-0.3,0-0.6-0.1-1-0.1h-2.7c-0.1,0.9-0.2,1.5-0.3,2.2h1.8    c0.4,0,0.7,0,1,0c0,0.3,0,0.6,0,1v2.8H182.8z M181.6,37.2h-2.3c0,0.1,0,0.1,0,0.2c-0.2,1-0.5,2-0.8,3h3.1V37.2z" style="fill:#4D4D4D;"/>
      <path d="M187.3,38.5c-0.1,0.5-0.2,1-0.4,1.4c-0.2,0.6-0.5,1-1,1.6c-0.2-0.2-0.3-0.3-0.5-0.5c0.6-0.6,0.8-1,1.1-1.8    c0.3-0.9,0.4-2,0.4-4c0-0.8,0-1.1,0-1.5c0.3,0,0.6,0,0.9,0h3.4c0.4,0,0.6,0,0.9,0c0,0.2,0,0.5,0,0.9v5.9c0,0.3-0.1,0.5-0.3,0.6    c-0.1,0.1-0.3,0.1-0.7,0.1c-0.3,0-0.6,0-1.1,0c0-0.2-0.1-0.4-0.1-0.6c0.5,0.1,0.8,0.1,1.3,0.1c0.3,0,0.3-0.1,0.3-0.3v-2H187.3z     M191.5,36.4h-4c0,0.5,0,0.9-0.1,1.6h4.1V36.4z M191.5,34.4h-4l0,1.3v0.2h4V34.4z" style="fill:#4D4D4D;"/>
    </g>
    <g>
      <path d="M178.7,51.5c0,0.1,0,0.1-0.1,0.3c-0.5,1.7-1.4,3.1-2.4,4.1c-0.2-0.2-0.3-0.3-0.6-0.4c0.9-0.8,1.6-1.9,2.1-3.1    c0.2-0.4,0.3-0.8,0.3-1.1L178.7,51.5z M182.7,49.7c0.4,0,0.7,0,1.1-0.1v0.7c-0.1,0-0.1,0-0.2,0c-0.2,0-0.2,0-0.9,0h-5.8    c-0.5,0-0.8,0-1.1,0.1v-0.7c0.3,0,0.6,0.1,1.1,0.1h2.8c-0.3-0.6-0.5-0.9-0.9-1.5l0.5-0.3c0.5,0.8,0.7,1,1.1,1.8H182.7z     M181.4,51.3c1.1,1.8,1.8,3.1,2.4,4.2l-0.6,0.4c-0.8-1.6-1.6-3.1-2.4-4.3L181.4,51.3z" style="fill:#4D4D4D;"/>
      <path d="M187.3,53c-0.1,0.5-0.2,1-0.4,1.4c-0.2,0.6-0.5,1-1,1.6c-0.2-0.2-0.3-0.3-0.5-0.5c0.6-0.6,0.8-1,1.1-1.8    c0.3-0.9,0.4-2,0.4-4c0-0.8,0-1.1,0-1.5c0.3,0,0.6,0,0.9,0h3.4c0.4,0,0.6,0,0.9,0c0,0.2,0,0.5,0,0.9v5.9c0,0.3-0.1,0.5-0.3,0.6    c-0.1,0.1-0.3,0.1-0.7,0.1c-0.3,0-0.6,0-1.1,0c0-0.2-0.1-0.4-0.1-0.6c0.5,0.1,0.8,0.1,1.3,0.1c0.3,0,0.3-0.1,0.3-0.3v-2H187.3z     M191.5,50.9h-4c0,0.5,0,0.9-0.1,1.6h4.1V50.9z M191.5,48.9h-4l0,1.3v0.2h4V48.9z" style="fill:#4D4D4D;"/>
    </g>
    <g>
      <path d="M179.2,71.3c0,0.2,0,0.3,0.1,0.3c0.2,0.1,0.7,0.1,1.4,0.1c0.5,0,1.1,0,1.3-0.1c0.1,0,0.2-0.1,0.3-0.3    c0.1-0.3,0.2-0.8,0.2-1.5c0.2,0.1,0.4,0.2,0.6,0.3c-0.1,1-0.3,1.6-0.5,1.8c-0.2,0.3-0.7,0.4-2.1,0.4c-0.9,0-1.4-0.1-1.7-0.2    c-0.2-0.1-0.3-0.3-0.3-0.7v-3.2l-1.8,0.3c-0.6,0.1-0.7,0.2-1,0.2l-0.1-0.7c0.3,0,0.6,0,1-0.1l1.9-0.4v-1.9c0-0.4,0-0.7-0.1-1h0.7    c0,0.3-0.1,0.6-0.1,1v1.8l3.3-0.6c0.4-0.1,0.7-0.2,0.9-0.2l0.1,0.7c-0.3,0-0.5,0-1,0.1l-3.5,0.7V71.3z" style="fill:#4D4D4D;"/>
      <path d="M187.3,69.8c-0.1,0.5-0.2,1-0.4,1.4c-0.2,0.6-0.5,1-1,1.6c-0.2-0.2-0.3-0.3-0.5-0.5c0.6-0.6,0.8-1,1.1-1.8    c0.3-0.9,0.4-2,0.4-4c0-0.8,0-1.1,0-1.5c0.3,0,0.6,0,0.9,0h3.4c0.4,0,0.6,0,0.9,0c0,0.2,0,0.5,0,0.9v5.9c0,0.3-0.1,0.5-0.3,0.6    c-0.1,0.1-0.3,0.1-0.7,0.1c-0.3,0-0.6,0-1.1,0c0-0.2-0.1-0.4-0.1-0.6c0.5,0.1,0.8,0.1,1.3,0.1c0.3,0,0.3-0.1,0.3-0.3v-2H187.3z     M191.5,67.6h-4c0,0.5,0,0.9-0.1,1.6h4.1V67.6z M191.5,65.6h-4l0,1.3v0.2h4V65.6z" style="fill:#4D4D4D;"/>
    </g>
    <g>
      <path d="M178.7,80.2c0,0.2-0.1,0.4-0.1,0.9c-0.1,1.4-0.2,1.8-0.4,2.6c-0.3,0.9-0.7,1.8-1.2,2.7    c-0.2,0.3-0.4,0.6-0.8,1c-0.2-0.2-0.3-0.3-0.5-0.4c0.7-0.7,1.3-1.6,1.7-2.7c0.3-0.7,0.5-1.6,0.6-2.5c0-0.3,0.1-1.2,0.1-1.3    c0-0.2,0-0.4,0-0.4L178.7,80.2z M181.4,79.8c0,0.1,0,0.2,0,0.3c0,0.5,0.1,1.5,0.2,2.3c0.2,1.1,0.6,2.2,1.3,3.2    c0.4,0.7,0.7,1,1.1,1.4c-0.2,0.1-0.3,0.2-0.5,0.5c-0.7-0.8-1.3-1.7-1.8-2.8c-0.4-0.8-0.6-1.6-0.7-2.4c-0.1-0.4-0.1-0.4-0.2-1.7    c0-0.3-0.1-0.4-0.1-0.7L181.4,79.8z" style="fill:#4D4D4D;"/>
      <path d="M187.3,84.8c-0.1,0.5-0.2,1-0.4,1.4c-0.2,0.6-0.5,1-1,1.6c-0.2-0.2-0.3-0.3-0.5-0.5c0.6-0.6,0.8-1,1.1-1.8    c0.3-0.9,0.4-2,0.4-4c0-0.8,0-1.1,0-1.5c0.3,0,0.6,0,0.9,0h3.4c0.4,0,0.6,0,0.9,0c0,0.2,0,0.5,0,0.9v5.9c0,0.3-0.1,0.5-0.3,0.6    c-0.1,0.1-0.3,0.1-0.7,0.1c-0.3,0-0.6,0-1.1,0c0-0.2-0.1-0.4-0.1-0.6c0.5,0.1,0.8,0.1,1.3,0.1c0.3,0,0.3-0.1,0.3-0.3v-2H187.3z     M191.5,82.6h-4c0,0.5,0,0.9-0.1,1.6h4.1V82.6z M191.5,80.6h-4l0,1.3v0.2h4V80.6z" style="fill:#4D4D4D;"/>
    </g>
    <g>
      <path d="M177.2,98c-0.5,0-0.8,0-1.1,0.1v-0.7c0.3,0,0.5,0.1,1.1,0.1h1.5c0-0.6,0-0.9,0-1.3c0-0.3,0-0.5,0-0.8h0.7    c0,0.2,0,0.3,0,0.7c0,0.3-0.1,1.1-0.1,1.3h1.6c0.4,0,0.7,0,1,0c0,0.3,0,0.6,0,1l0,4.1c0,0.3,0,0.3,0.6,0.3s0.7-0.1,0.8-0.3    c0.1-0.3,0.2-0.8,0.2-1.6c0.2,0.1,0.4,0.2,0.6,0.2c-0.1,1.1-0.2,1.6-0.4,1.9c-0.2,0.3-0.5,0.4-1.3,0.4c-0.9,0-1.1-0.1-1.1-0.6    l0-4.7h-2c-0.1,0.9-0.1,1.1-0.2,1.5c-0.4,1.8-1.3,3-2.9,3.9c-0.1-0.2-0.2-0.3-0.4-0.5c0.6-0.3,0.8-0.5,1.2-0.8    c0.8-0.7,1.3-1.5,1.5-2.6c0.1-0.5,0.2-1,0.2-1.5H177.2z" style="fill:#4D4D4D;"/>
      <path d="M187.3,100.5c-0.1,0.5-0.2,1-0.4,1.4c-0.2,0.6-0.5,1-1,1.6c-0.2-0.2-0.3-0.3-0.5-0.5c0.6-0.6,0.8-1,1.1-1.8    c0.3-0.9,0.4-2,0.4-4c0-0.8,0-1.1,0-1.5c0.3,0,0.6,0,0.9,0h3.4c0.4,0,0.6,0,0.9,0c0,0.2,0,0.5,0,0.9v5.9c0,0.3-0.1,0.5-0.3,0.6    c-0.1,0.1-0.3,0.1-0.7,0.1c-0.3,0-0.6,0-1.1,0c0-0.2-0.1-0.4-0.1-0.6c0.5,0.1,0.8,0.1,1.3,0.1c0.3,0,0.3-0.1,0.3-0.3v-2H187.3z     M191.5,98.4h-4c0,0.5,0,0.9-0.1,1.6h4.1V98.4z M191.5,96.4h-4l0,1.3v0.2h4V96.4z" style="fill:#4D4D4D;"/>
    </g>
    <g>
      <path d="M182.8,115.1c0.4,0,0.7,0,1-0.1v0.7c-0.3,0-0.6-0.1-1-0.1H180v3.3c0,0.4,0,0.8,0.1,1.1h-0.8    c0-0.3,0.1-0.6,0.1-1.1v-3.3h-2.6c-0.4,0-0.7,0-1,0.1V115c0.3,0,0.6,0.1,1,0.1h2.6v-2.3c0-0.4,0-0.7-0.1-1h0.7    c0,0.3-0.1,0.6-0.1,1v2.3H182.8z" style="fill:#4D4D4D;"/>
      <path d="M187.3,117c-0.1,0.5-0.2,1-0.4,1.4c-0.2,0.6-0.5,1-1,1.6c-0.2-0.2-0.3-0.3-0.5-0.5c0.6-0.6,0.8-1,1.1-1.8    c0.3-0.9,0.4-2,0.4-4c0-0.8,0-1.1,0-1.5c0.3,0,0.6,0,0.9,0h3.4c0.4,0,0.6,0,0.9,0c0,0.2,0,0.5,0,0.9v5.9c0,0.3-0.1,0.5-0.3,0.6    c-0.1,0.1-0.3,0.1-0.7,0.1c-0.3,0-0.6,0-1.1,0c0-0.2-0.1-0.4-0.1-0.6c0.5,0.1,0.8,0.1,1.3,0.1c0.3,0,0.3-0.1,0.3-0.3v-2H187.3z     M191.5,114.9h-4c0,0.5,0,0.9-0.1,1.6h4.1V114.9z M191.5,112.9h-4l0,1.3v0.2h4V112.9z" style="fill:#4D4D4D;"/>
    </g>
    <g>
      <path d="M172.5,129.6c0.4,0,0.7,0,1-0.1v0.7c-0.3,0-0.6-0.1-1-0.1h-2.8v3.3c0,0.4,0,0.8,0.1,1.1H169    c0-0.3,0.1-0.6,0.1-1.1v-3.3h-2.6c-0.4,0-0.7,0-1,0.1v-0.7c0.3,0,0.6,0.1,1,0.1h2.6v-2.3c0-0.4,0-0.7-0.1-1h0.7    c0,0.3-0.1,0.6-0.1,1v2.3H172.5z" style="fill:#4D4D4D;"/>
      <path d="M183.3,130.7c-0.3,0-0.6-0.1-1.2-0.1h-5.5c-0.5,0-0.9,0-1.2,0.1v-0.7c0.3,0,0.7,0.1,1.2,0.1h5.5    c0.5,0,0.9,0,1.2-0.1V130.7z" style="fill:#4D4D4D;"/>
      <path d="M187.3,131.5c-0.1,0.5-0.2,1-0.4,1.4c-0.2,0.6-0.5,1-1,1.6c-0.2-0.2-0.3-0.3-0.5-0.5c0.6-0.6,0.8-1,1.1-1.8    c0.3-0.9,0.4-2,0.4-4c0-0.8,0-1.1,0-1.5c0.3,0,0.6,0,0.9,0h3.4c0.4,0,0.6,0,0.9,0c0,0.2,0,0.5,0,0.9v5.9c0,0.3-0.1,0.5-0.3,0.6    c-0.1,0.1-0.3,0.1-0.7,0.1c-0.3,0-0.6,0-1.1,0c0-0.2-0.1-0.4-0.1-0.6c0.5,0.1,0.8,0.1,1.3,0.1c0.3,0,0.3-0.1,0.3-0.3v-2H187.3z     M191.5,129.4h-4c0,0.5,0,0.9-0.1,1.6h4.1V129.4z M191.5,127.4h-4l0,1.3v0.2h4V127.4z" style="fill:#4D4D4D;"/>
    </g>
    <g>
	</g>
    <g>
	</g>
    <g>
	</g>
    <g>
	</g>
    <g>
	</g>
    <g>
	</g>
    <g>
	</g>
    <g>
	</g>
    <g>
	</g>
    <g>
	</g>
  </g>
</svg>
