<?xml version='1.0' encoding='UTF-8'?>
<svg xmlns="http://www.w3.org/2000/svg" width="880" height="340" viewBox="0 0 880 340" style="max-width: 100%; height: auto; font: 10px sans-serif;">
  <line x1="50" y1="300" x2="830" y2="300" style="stroke:#000; stroke-width:1;"/>
  <line x1="50" y1="50" x2="50" y2="300" style="stroke:#000; stroke-width:1;"/>
  <line x1="70" y1="100" x2="70" y2="150" style="stroke:#000; stroke-width:1;"/>
  <line x1="70" y1="250" x2="70" y2="270" style="stroke:#000; stroke-width:1;"/>
  <rect x="60" y="150" width="20" height="100" style="fill: hsl(17, 100%, 33%);;"/>
  <line x1="110" y1="90" x2="110" y2="130" style="stroke:#000; stroke-width:1;"/>
  <line x1="110" y1="180" x2="110" y2="240" style="stroke:#000; stroke-width:1;"/>
  <rect x="100" y="130" width="20" height="50" style="fill: hsl(134, 100%, 12%);;"/>
  <line x1="150" y1="80" x2="150" y2="120" style="stroke:#000; stroke-width:1;"/>
  <line x1="150" y1="170" x2="150" y2="220" style="stroke:#000; stroke-width:1;"/>
  <rect x="140" y="120" width="20" height="50" style="fill: hsl(134, 100%, 12%);;"/>
  <line x1="190" y1="70" x2="190" y2="150" style="stroke:#000; stroke-width:1;"/>
  <line x1="190" y1="180" x2="190" y2="250" style="stroke:#000; stroke-width:1;"/>
  <rect x="180" y="150" width="20" height="30" style="fill: hsl(17, 100%, 33%);;"/>
  <line x1="230" y1="60" x2="230" y2="100" style="stroke:#000; stroke-width:1;"/>
  <line x1="230" y1="200" x2="230" y2="260" style="stroke:#000; stroke-width:1;"/>
  <rect x="220" y="100" width="20" height="100" style="fill: hsl(17, 100%, 33%);;"/>
  <line x1="270" y1="50" x2="270" y2="120" style="stroke:#000; stroke-width:1;"/>
  <line x1="270" y1="140" x2="270" y2="190" style="stroke:#000; stroke-width:1;"/>
  <rect x="260" y="120" width="20" height="20" style="fill: hsl(134, 100%, 12%);;"/>
  <line x1="310" y1="80" x2="310" y2="130" style="stroke:#000; stroke-width:1;"/>
  <line x1="310" y1="160" x2="310" y2="200" style="stroke:#000; stroke-width:1;"/>
  <rect x="300" y="130" width="20" height="30" style="fill: hsl(134, 100%, 12%);;"/>
  <line x1="350" y1="70" x2="350" y2="140" style="stroke:#000; stroke-width:1;"/>
  <line x1="350" y1="160" x2="350" y2="210" style="stroke:#000; stroke-width:1;"/>
  <rect x="340" y="140" width="20" height="20" style="fill: hsl(17, 100%, 33%);;"/>
  <line x1="390" y1="90" x2="390" y2="150" style="stroke:#000; stroke-width:1;"/>
  <line x1="390" y1="180" x2="390" y2="230" style="stroke:#000; stroke-width:1;"/>
  <rect x="380" y="150" width="20" height="30" style="fill: hsl(17, 100%, 33%);;"/>
  <line x1="430" y1="80" x2="430" y2="130" style="stroke:#000; stroke-width:1;"/>
  <line x1="430" y1="160" x2="430" y2="210" style="stroke:#000; stroke-width:1;"/>
  <rect x="420" y="130" width="20" height="30" style="fill: hsl(134, 100%, 12%);;"/>
  <line x1="470" y1="60" x2="470" y2="100" style="stroke:#000; stroke-width:1;"/>
  <line x1="470" y1="120" x2="470" y2="180" style="stroke:#000; stroke-width:1;"/>
  <rect x="460" y="100" width="20" height="20" style="fill: hsl(134, 100%, 12%);;"/>
  <line x1="510" y1="70" x2="510" y2="140" style="stroke:#000; stroke-width:1;"/>
  <line x1="510" y1="160" x2="510" y2="210" style="stroke:#000; stroke-width:1;"/>
  <rect x="500" y="140" width="20" height="20" style="fill: hsl(17, 100%, 33%);;"/>
  <line x1="550" y1="50" x2="550" y2="90" style="stroke:#000; stroke-width:1;"/>
  <line x1="550" y1="110" x2="550" y2="160" style="stroke:#000; stroke-width:1;"/>
  <rect x="540" y="90" width="20" height="20" style="fill: hsl(134, 100%, 12%);;"/>
  <line x1="590" y1="60" x2="590" y2="120" style="stroke:#000; stroke-width:1;"/>
  <line x1="590" y1="140" x2="590" y2="190" style="stroke:#000; stroke-width:1;"/>
  <rect x="580" y="120" width="20" height="20" style="fill: hsl(17, 100%, 33%);;"/>
  <line x1="630" y1="80" x2="630" y2="140" style="stroke:#000; stroke-width:1;"/>
  <line x1="630" y1="160" x2="630" y2="220" style="stroke:#000; stroke-width:1;"/>
  <rect x="620" y="140" width="20" height="20" style="fill: hsl(17, 100%, 33%);;"/>
  <line x1="670" y1="50" x2="670" y2="90" style="stroke:#000; stroke-width:1;"/>
  <line x1="670" y1="110" x2="670" y2="160" style="stroke:#000; stroke-width:1;"/>
  <rect x="660" y="90" width="20" height="20" style="fill: hsl(134, 100%, 12%);;"/>
  <line x1="710" y1="40" x2="710" y2="70" style="stroke:#000; stroke-width:1;"/>
  <line x1="710" y1="90" x2="710" y2="120" style="stroke:#000; stroke-width:1;"/>
  <rect x="700" y="70" width="20" height="20" style="fill: hsl(134, 100%, 12%);;"/>
  <line x1="750" y1="70" x2="750" y2="110" style="stroke:#000; stroke-width:1;"/>
  <line x1="750" y1="150" x2="750" y2="220" style="stroke:#000; stroke-width:1;"/>
  <rect x="740" y="110" width="20" height="40" style="fill: hsl(134, 100%, 12%);;"/>
  <line x1="790" y1="60" x2="790" y2="100" style="stroke:#000; stroke-width:1;"/>
  <line x1="790" y1="120" x2="790" y2="160" style="stroke:#000; stroke-width:1;"/>
  <rect x="780" y="100" width="20" height="20" style="fill: hsl(17, 100%, 33%);;"/>
  <line x1="830" y1="50" x2="830" y2="90" style="stroke:#000; stroke-width:1;"/>
  <line x1="830" y1="110" x2="830" y2="150" style="stroke:#000; stroke-width:1;"/>
  <rect x="820" y="90" width="20" height="20" style="fill: hsl(134, 100%, 12%);;"/>
  <text x="400" y="320" font-size="12">日期</text>
  <text x="10" y="40" font-size="12" transform="rotate(-90 30,40)">价格</text>
</svg>
