<?xml version='1.0' encoding='UTF-8'?>
<svg xmlns="http://www.w3.org/2000/svg" width="900" height="340" viewBox="-530,-100,880,340" style="max-width: 100%; height: auto; font: 10px sans-serif;">
  <line x1="-400" y1="180" x2="250" y2="180" style="stroke:#000; stroke-width:2;"/>
  <line x1="-400" y1="180" x2="-400" y2="-40" style="stroke:#000; stroke-width:2;"/>
  <rect x="-350" y="80" width="20" height="100" style="fill: hsl(237, 72%, 41%);;"/>
  <text x="-340" y="60" text-anchor="middle" style="fill: hsl(351, 0%, 0%);;">20</text>
  <rect x="-325" y="100" width="20" height="80" style="fill: hsl(46, 92%, 53%);;"/>
  <text x="-315" y="80" text-anchor="middle" style="fill: hsl(351, 0%, 0%);;">18</text>
  <text x="-337.5" y="200" text-anchor="middle" style="fill: hsl(37, 0%, 9%);;">Product A</text>
  <rect x="-250" y="30" width="20" height="150" style="fill: hsl(237, 72%, 41%);;"/>
  <text x="-240" y="10" text-anchor="middle" style="fill: hsl(351, 0%, 0%);;">35</text>
  <rect x="-225" y="60" width="20" height="120" style="fill: hsl(46, 92%, 53%);;"/>
  <text x="-215" y="40" text-anchor="middle" style="fill: hsl(351, 0%, 0%);;">32</text>
  <text x="-237.5" y="200" text-anchor="middle" style="fill: hsl(37, 0%, 9%);;">Product B</text>
  <rect x="-150" y="-20" width="20" height="200" style="fill: hsl(237, 72%, 41%);;"/>
  <text x="-140" y="-40" text-anchor="middle" style="fill: hsl(351, 0%, 0%);;">50</text>
  <rect x="-125" y="20" width="20" height="160" style="fill: hsl(46, 92%, 53%);;"/>
  <text x="-115" y="0" text-anchor="middle" style="fill: hsl(351, 0%, 0%);;">45</text>
  <text x="-137.5" y="200" text-anchor="middle" style="fill: hsl(37, 0%, 9%);;">Product C</text>
  <rect x="-50" y="50" width="20" height="130" style="fill: hsl(237, 72%, 41%);;"/>
  <text x="-40" y="30" text-anchor="middle" style="fill: hsl(351, 0%, 0%);;">28</text>
  <rect x="-25" y="70" width="20" height="110" style="fill: hsl(46, 92%, 53%);;"/>
  <text x="-15" y="50" text-anchor="middle" style="fill: hsl(351, 0%, 0%);;">22</text>
  <text x="-37.5" y="200" text-anchor="middle" style="fill: hsl(37, 0%, 9%);;">Product D</text>
  <rect x="50" y="10" width="20" height="170" style="fill: hsl(237, 72%, 41%);;"/>
  <text x="60" y="-10" text-anchor="middle" style="fill: hsl(351, 0%, 0%);;">38</text>
  <rect x="75" y="40" width="20" height="140" style="fill: hsl(46, 92%, 53%);;"/>
  <text x="85" y="20" text-anchor="middle" style="fill: hsl(351, 0%, 0%);;">34</text>
  <text x="62.5" y="200" text-anchor="middle" style="fill: hsl(37, 0%, 9%);;">Product E</text>
  <rect x="150" y="-30" width="20" height="210" style="fill: hsl(237, 72%, 41%);;"/>
  <text x="160" y="-50" text-anchor="middle" style="fill: hsl(351, 0%, 0%);;">42</text>
  <rect x="175" y="-10" width="20" height="190" style="fill: hsl(46, 92%, 53%);;"/>
  <text x="185" y="-30" text-anchor="middle" style="fill: hsl(351, 0%, 0%);;">40</text>
  <text x="162.5" y="200" text-anchor="middle" style="fill: hsl(37, 0%, 9%);;">Product F</text>
</svg>
