<?xml version='1.0' encoding='UTF-8'?>
<svg xmlns="http://www.w3.org/2000/svg" width="880" height="340" viewBox="-400 -130 880 340">
  <line x1="-400" y1="180" x2="400" y2="180" stroke="#000" stroke-width="2"/>
  <line x1="-400" y1="180" x2="-400" y2="-40" stroke="#000" stroke-width="2"/>
  <rect x="-350" y="80" width="20" height="100" fill="#3498db"/>
  <text x="-340" y="60" fill="#000" text-anchor="middle">20</text>
  <rect x="-325" y="100" width="20" height="80" fill="#e74c3c"/>
  <text x="-315" y="80" fill="#000" text-anchor="middle">18</text>
  <text x="-337.5" y="200" fill="#333" text-anchor="middle">Product A</text>
  <rect x="-250" y="30" width="20" height="150" fill="#3498db"/>
  <text x="-240" y="10" fill="#000" text-anchor="middle">35</text>
  <rect x="-225" y="60" width="20" height="120" fill="#e74c3c"/>
  <text x="-215" y="40" fill="#000" text-anchor="middle">32</text>
  <text x="-237.5" y="200" fill="#333" text-anchor="middle">Product B</text>
  <rect x="-150" y="-20" width="20" height="200" fill="#3498db"/>
  <text x="-140" y="-40" fill="#000" text-anchor="middle">50</text>
  <rect x="-125" y="20" width="20" height="160" fill="#e74c3c"/>
  <text x="-115" y="0" fill="#000" text-anchor="middle">45</text>
  <text x="-137.5" y="200" fill="#333" text-anchor="middle">Product C</text>
  <rect x="-50" y="50" width="20" height="130" fill="#3498db"/>
  <text x="-40" y="30" fill="#000" text-anchor="middle">28</text>
  <rect x="-25" y="70" width="20" height="110" fill="#e74c3c"/>
  <text x="-15" y="50" fill="#000" text-anchor="middle">22</text>
  <text x="-37.5" y="200" fill="#333" text-anchor="middle">Product D</text>
  <rect x="50" y="10" width="20" height="170" fill="#3498db"/>
  <text x="60" y="-10" fill="#000" text-anchor="middle">38</text>
  <rect x="75" y="40" width="20" height="140" fill="#e74c3c"/>
  <text x="85" y="20" fill="#000" text-anchor="middle">34</text>
  <text x="62.5" y="200" fill="#333" text-anchor="middle">Product E</text>
  <rect x="150" y="-30" width="20" height="210" fill="#3498db"/>
  <text x="160" y="-50" fill="#000" text-anchor="middle">42</text>
  <rect x="175" y="-10" width="20" height="190" fill="#e74c3c"/>
  <text x="185" y="-30" fill="#000" text-anchor="middle">40</text>
  <text x="162.5" y="200" fill="#333" text-anchor="middle">Product F</text>
</svg>
