<?xml version='1.0' encoding='utf-8'?>
<svg width="880" height="340" viewBox="-440,-170,880,340" style="max-width: 100%; height: auto; font: 10px sans-serif;" id="svg">
  <line x1="-380" y1="-40" x2="-380" y2="70" style="stroke:#000; stroke-width:1.5;" id="line_39" />
  <rect x="-400" y="10" width="40" height="30" style="fill: hsl(245, 75%, 48%); stroke:#000; stroke-width:1.5; opacity:0.7;;" id="rect_14" />
  <line x1="-400" y1="20" x2="-360" y2="20" style="stroke:#000; stroke-width:2;" id="line_38" />
  <line x1="-400" y1="-40" x2="-360" y2="-40" style="stroke:#000; stroke-width:1.5;" id="line_37" />
  <line x1="-400" y1="70" x2="-360" y2="70" style="stroke:#000; stroke-width:1.5;" id="line_36" />
  <circle cx="-380" cy="80" r="3" style="fill: hsl(159, 56%, 34%);;" id="circle_10" />
  <line x1="-330" y1="-30" x2="-330" y2="80" style="stroke:#000; stroke-width:1.5;" id="line_35" />
  <rect x="-350" y="5" width="40" height="50" style="fill: hsl(23, 100%, 48%); stroke:#000; stroke-width:1.5; opacity:0.7;;" id="rect_13" />
  <line x1="-350" y1="25" x2="-310" y2="25" style="stroke:#000; stroke-width:2;" id="line_34" />
  <line x1="-350" y1="-30" x2="-310" y2="-30" style="stroke:#000; stroke-width:1.5;" id="line_33" />
  <line x1="-350" y1="80" x2="-310" y2="80" style="stroke:#000; stroke-width:1.5;" id="line_32" />
  <circle cx="-330" cy="90" r="3" style="fill: hsl(16, 97%, 71%);;" id="circle_9" />
  <line x1="-260" y1="-50" x2="-260" y2="60" style="stroke:#000; stroke-width:1.5;" id="line_31" />
  <rect x="-280" y="-5" width="40" height="60" style="fill: hsl(150, 74%, 30%); stroke:#000; stroke-width:1.5; opacity:0.7;;" id="rect_12" />
  <line x1="-280" y1="15" x2="-240" y2="15" style="stroke:#000; stroke-width:2;" id="line_30" />
  <line x1="-280" y1="-50" x2="-240" y2="-50" style="stroke:#000; stroke-width:1.5;" id="line_29" />
  <line x1="-280" y1="60" x2="-240" y2="60" style="stroke:#000; stroke-width:1.5;" id="line_28" />
  <circle cx="-260" cy="70" r="3" style="fill: hsl(129, 68%, 45%);;" id="circle_8" />
  <circle cx="-260" cy="80" r="3" style="fill: hsl(129, 68%, 45%);;" id="circle_7" />
  <line x1="-210" y1="-60" x2="-210" y2="50" style="stroke:#000; stroke-width:1.5;" id="line_27" />
  <rect x="-230" y="0" width="40" height="40" style="fill: hsl(357, 69%, 38%); stroke:#000; stroke-width:1.5; opacity:0.7;;" id="rect_11" />
  <line x1="-230" y1="20" x2="-190" y2="20" style="stroke:#000; stroke-width:2;" id="line_26" />
  <line x1="-230" y1="-60" x2="-190" y2="-60" style="stroke:#000; stroke-width:1.5;" id="line_25" />
  <line x1="-230" y1="50" x2="-190" y2="50" style="stroke:#000; stroke-width:1.5;" id="line_24" />
  <circle cx="-210" cy="-80" r="3" style="fill: hsl(323, 77%, 57%);;" id="circle_6" />
  <line x1="-140" y1="-20" x2="-140" y2="80" style="stroke:#000; stroke-width:1.5;" id="line_23" />
  <rect x="-160" y="20" width="40" height="50" style="fill: hsl(273, 23%, 76%); stroke:#000; stroke-width:1.5; opacity:0.7;;" id="rect_10" />
  <line x1="-160" y1="40" x2="-120" y2="40" style="stroke:#000; stroke-width:2;" id="line_22" />
  <line x1="-160" y1="-20" x2="-120" y2="-20" style="stroke:#000; stroke-width:1.5;" id="line_21" />
  <line x1="-160" y1="80" x2="-120" y2="80" style="stroke:#000; stroke-width:1.5;" id="line_20" />
  <circle cx="-140" cy="90" r="3" style="fill: hsl(302, 20%, 55%);;" id="circle_5" />
  <line x1="-90" y1="-40" x2="-90" y2="70" style="stroke:#000; stroke-width:1.5;" id="line_19" />
  <rect x="-110" y="10" width="40" height="50" style="fill: hsl(340, 42%, 33%); stroke:#000; stroke-width:1.5; opacity:0.7;;" id="rect_9" />
  <line x1="-110" y1="30" x2="-70" y2="30" style="stroke:#000; stroke-width:2;" id="line_18" />
  <line x1="-110" y1="-40" x2="-70" y2="-40" style="stroke:#000; stroke-width:1.5;" id="line_17" />
  <line x1="-110" y1="70" x2="-70" y2="70" style="stroke:#000; stroke-width:1.5;" id="line_16" />
  <circle cx="-90" cy="80" r="3" style="fill: hsl(39, 45%, 41%);;" id="circle_4" />
  <line x1="-20" y1="-30" x2="-20" y2="60" style="stroke:#000; stroke-width:1.5;" id="line_15" />
  <rect x="-40" y="0" width="40" height="50" style="fill: hsl(295, 50%, 55%); stroke:#000; stroke-width:1.5; opacity:0.7;;" id="rect_8" />
  <line x1="-40" y1="35" x2="0" y2="35" style="stroke:#000; stroke-width:2;" id="line_14" />
  <line x1="-40" y1="-30" x2="0" y2="-30" style="stroke:#000; stroke-width:1.5;" id="line_13" />
  <line x1="-40" y1="60" x2="0" y2="60" style="stroke:#000; stroke-width:1.5;" id="line_12" />
  <circle cx="-20" cy="70" r="3" style="fill: hsl(312, 65%, 83%);;" id="circle_3" />
  <line x1="30" y1="-50" x2="30" y2="50" style="stroke:#000; stroke-width:1.5;" id="line_11" />
  <rect x="10" y="5" width="40" height="40" style="fill: hsl(27, 0%, 51%); stroke:#000; stroke-width:1.5; opacity:0.7;;" id="rect_7" />
  <line x1="10" y1="25" x2="50" y2="25" style="stroke:#000; stroke-width:2;" id="line_10" />
  <line x1="10" y1="-50" x2="50" y2="-50" style="stroke:#000; stroke-width:1.5;" id="line_9" />
  <line x1="10" y1="50" x2="50" y2="50" style="stroke:#000; stroke-width:1.5;" id="line_8" />
  <circle cx="30" cy="60" r="3" style="fill: hsl(31, 9%, 32%);;" id="circle_2" />
  <line x1="100" y1="-30" x2="100" y2="70" style="stroke:#000; stroke-width:1.5;" id="line_7" />
  <rect x="80" y="0" width="40" height="70" style="fill: hsl(67, 68%, 42%); stroke:#000; stroke-width:1.5; opacity:0.7;;" id="rect_6" />
  <line x1="80" y1="50" x2="120" y2="50" style="stroke:#000; stroke-width:2;" id="line_6" />
  <line x1="80" y1="-30" x2="120" y2="-30" style="stroke:#000; stroke-width:1.5;" id="line_5" />
  <line x1="80" y1="70" x2="120" y2="70" style="stroke:#000; stroke-width:1.5;" id="line_4" />
  <circle cx="100" cy="80" r="3" style="fill: hsl(95, 73%, 47%);;" id="circle_1" />
  <line x1="150" y1="-40" x2="150" y2="60" style="stroke:#000; stroke-width:1.5;" id="line_3" />
  <rect x="130" y="0" width="40" height="40" style="fill: hsl(144, 75%, 42%); stroke:#000; stroke-width:1.5; opacity:0.7;;" id="rect_5" />
  <line x1="130" y1="15" x2="170" y2="15" style="stroke:#000; stroke-width:2;" id="line_2" />
  <line x1="130" y1="-40" x2="170" y2="-40" style="stroke:#000; stroke-width:1.5;" id="line_1" />
  <line x1="130" y1="60" x2="170" y2="60" style="stroke:#000; stroke-width:1.5;" id="line" />
  <circle cx="150" cy="70" r="3" style="fill: hsl(195, 82%, 49%);;" id="circle" />
  <text x="-355" y="140" font-size="14" text-anchor="middle" style="fill: hsl(330, 7%, 14%);;" id="text_9">xxxxxxx</text>
  <text x="-235" y="140" font-size="14" text-anchor="middle" style="fill: hsl(330, 7%, 14%);;" id="text_8">xxxxxxx</text>
  <text x="-110" y="140" font-size="14" text-anchor="middle" style="fill: hsl(330, 7%, 14%);;" id="text_7">xxxxxxx</text>
  <text x="5" y="140" font-size="14" text-anchor="middle" style="fill: hsl(330, 7%, 14%);;" id="text_6">xxxxxxx</text>
  <text x="125" y="140" font-size="14" text-anchor="middle" style="fill: hsl(330, 7%, 14%);;" id="text_5">xxxxxxx</text>
  <rect x="300" y="-150" width="20" height="20" style="fill: hsl(241, 64%, 24%); opacity:0.7;;" id="rect_4" />
  <text x="330" y="-135" font-size="12" style="fill: hsl(330, 7%, 14%);;" id="text_4">xxxxxxxxxx</text>
  <rect x="300" y="-120" width="20" height="20" style="fill: hsl(19, 100%, 36%); opacity:0.7;;" id="rect_3" />
  <text x="330" y="-105" font-size="12" style="fill: hsl(330, 7%, 14%);;" id="text_3">xxxxxxxxxx</text>
  <rect x="300" y="-90" width="20" height="20" style="fill: hsl(132, 57%, 39%); opacity:0.7;;" id="rect_2" />
  <text x="330" y="-75" font-size="12" style="fill: hsl(330, 7%, 14%);;" id="text_2">xxxxxxxxxx</text>
  <rect x="300" y="-60" width="20" height="20" style="fill: hsl(47, 67%, 33%); opacity:0.7;;" id="rect_1" />
  <text x="330" y="-45" font-size="12" style="fill: hsl(330, 7%, 14%);;" id="text_1">xxxxxxxxxx</text>
  <rect x="300" y="-30" width="20" height="20" style="fill: hsl(268, 58%, 61%); opacity:0.7;;" id="rect" />
  <text x="330" y="-15" font-size="12" style="fill: hsl(330, 7%, 14%);;" id="text">xxxxxxxxxx</text>
</svg>