<?xml version='1.0' encoding='utf-8'?>
<svg width="880" height="auto" viewBox="-440,-170,880,340" max-width="100%" font="10px sans-serif" id="svg">
  <line x1="-380" y1="-40" x2="-380" y2="70" stroke="#000" stroke-width="1.5" id="line_39" />
  <rect x="-400" y="10" width="40" height="30" fill="hsl(163, 72%, 25%)" stroke="#000" stroke-width="1.5" opacity="0.7" id="rect_14" />
  <line x1="-400" y1="20" x2="-360" y2="20" stroke="#000" stroke-width="2" id="line_38" />
  <line x1="-400" y1="-40" x2="-360" y2="-40" stroke="#000" stroke-width="1.5" id="line_37" />
  <line x1="-400" y1="70" x2="-360" y2="70" stroke="#000" stroke-width="1.5" id="line_36" />
  <circle cx="-380" cy="80" r="3" fill="hsl(203, 61%, 35%)" id="circle_10" />
  <line x1="-330" y1="-30" x2="-330" y2="80" stroke="#000" stroke-width="1.5" id="line_35" />
  <rect x="-350" y="5" width="40" height="50" fill="hsl(350, 100%, 38%)" stroke="#000" stroke-width="1.5" opacity="0.7" id="rect_13" />
  <line x1="-350" y1="25" x2="-310" y2="25" stroke="#000" stroke-width="2" id="line_34" />
  <line x1="-350" y1="-30" x2="-310" y2="-30" stroke="#000" stroke-width="1.5" id="line_33" />
  <line x1="-350" y1="80" x2="-310" y2="80" stroke="#000" stroke-width="1.5" id="line_32" />
  <circle cx="-330" cy="90" r="3" fill="hsl(349, 100%, 66%)" id="circle_9" />
  <line x1="-260" y1="-50" x2="-260" y2="60" stroke="#000" stroke-width="1.5" id="line_31" />
  <rect x="-280" y="-5" width="40" height="60" fill="hsl(167, 75%, 32%)" stroke="#000" stroke-width="1.5" opacity="0.7" id="rect_12" />
  <line x1="-280" y1="15" x2="-240" y2="15" stroke="#000" stroke-width="2" id="line_30" />
  <line x1="-280" y1="-50" x2="-240" y2="-50" stroke="#000" stroke-width="1.5" id="line_29" />
  <line x1="-280" y1="60" x2="-240" y2="60" stroke="#000" stroke-width="1.5" id="line_28" />
  <circle cx="-260" cy="70" r="3" fill="hsl(149, 54%, 38%)" id="circle_8" />
  <circle cx="-260" cy="80" r="3" fill="hsl(149, 54%, 38%)" id="circle_7" />
  <line x1="-210" y1="-60" x2="-210" y2="50" stroke="#000" stroke-width="1.5" id="line_27" />
  <rect x="-230" y="0" width="40" height="40" fill="hsl(355, 82%, 59%)" stroke="#000" stroke-width="1.5" opacity="0.7" id="rect_11" />
  <line x1="-230" y1="20" x2="-190" y2="20" stroke="#000" stroke-width="2" id="line_26" />
  <line x1="-230" y1="-60" x2="-190" y2="-60" stroke="#000" stroke-width="1.5" id="line_25" />
  <line x1="-230" y1="50" x2="-190" y2="50" stroke="#000" stroke-width="1.5" id="line_24" />
  <circle cx="-210" cy="-80" r="3" fill="hsl(4, 60%, 46%)" id="circle_6" />
  <line x1="-140" y1="-20" x2="-140" y2="80" stroke="#000" stroke-width="1.5" id="line_23" />
  <rect x="-160" y="20" width="40" height="50" fill="hsl(291, 37%, 39%)" stroke="#000" stroke-width="1.5" opacity="0.7" id="rect_10" />
  <line x1="-160" y1="40" x2="-120" y2="40" stroke="#000" stroke-width="2" id="line_22" />
  <line x1="-160" y1="-20" x2="-120" y2="-20" stroke="#000" stroke-width="1.5" id="line_21" />
  <line x1="-160" y1="80" x2="-120" y2="80" stroke="#000" stroke-width="1.5" id="line_20" />
  <circle cx="-140" cy="90" r="3" fill="hsl(244, 44%, 51%)" id="circle_5" />
  <line x1="-90" y1="-40" x2="-90" y2="70" stroke="#000" stroke-width="1.5" id="line_19" />
  <rect x="-110" y="10" width="40" height="50" fill="hsl(5, 31%, 30%)" stroke="#000" stroke-width="1.5" opacity="0.7" id="rect_9" />
  <line x1="-110" y1="30" x2="-70" y2="30" stroke="#000" stroke-width="2" id="line_18" />
  <line x1="-110" y1="-40" x2="-70" y2="-40" stroke="#000" stroke-width="1.5" id="line_17" />
  <line x1="-110" y1="70" x2="-70" y2="70" stroke="#000" stroke-width="1.5" id="line_16" />
  <circle cx="-90" cy="80" r="3" fill="hsl(322, 23%, 50%)" id="circle_4" />
  <line x1="-20" y1="-30" x2="-20" y2="60" stroke="#000" stroke-width="1.5" id="line_15" />
  <rect x="-40" y="0" width="40" height="50" fill="hsl(284, 64%, 63%)" stroke="#000" stroke-width="1.5" opacity="0.7" id="rect_8" />
  <line x1="-40" y1="35" x2="0" y2="35" stroke="#000" stroke-width="2" id="line_14" />
  <line x1="-40" y1="-30" x2="0" y2="-30" stroke="#000" stroke-width="1.5" id="line_13" />
  <line x1="-40" y1="60" x2="0" y2="60" stroke="#000" stroke-width="1.5" id="line_12" />
  <circle cx="-20" cy="70" r="3" fill="hsl(300, 61%, 61%)" id="circle_3" />
  <line x1="30" y1="-50" x2="30" y2="50" stroke="#000" stroke-width="1.5" id="line_11" />
  <rect x="10" y="5" width="40" height="40" fill="hsl(11, 15%, 42%)" stroke="#000" stroke-width="1.5" opacity="0.7" id="rect_7" />
  <line x1="10" y1="25" x2="50" y2="25" stroke="#000" stroke-width="2" id="line_10" />
  <line x1="10" y1="-50" x2="50" y2="-50" stroke="#000" stroke-width="1.5" id="line_9" />
  <line x1="10" y1="50" x2="50" y2="50" stroke="#000" stroke-width="1.5" id="line_8" />
  <circle cx="30" cy="60" r="3" fill="hsl(49, 10%, 45%)" id="circle_2" />
  <line x1="100" y1="-30" x2="100" y2="70" stroke="#000" stroke-width="1.5" id="line_7" />
  <rect x="80" y="0" width="40" height="70" fill="hsl(15, 54%, 58%)" stroke="#000" stroke-width="1.5" opacity="0.7" id="rect_6" />
  <line x1="80" y1="50" x2="120" y2="50" stroke="#000" stroke-width="2" id="line_6" />
  <line x1="80" y1="-30" x2="120" y2="-30" stroke="#000" stroke-width="1.5" id="line_5" />
  <line x1="80" y1="70" x2="120" y2="70" stroke="#000" stroke-width="1.5" id="line_4" />
  <circle cx="100" cy="80" r="3" fill="hsl(18, 83%, 50%)" id="circle_1" />
  <line x1="150" y1="-40" x2="150" y2="60" stroke="#000" stroke-width="1.5" id="line_3" />
  <rect x="130" y="0" width="40" height="40" fill="hsl(200, 80%, 58%)" stroke="#000" stroke-width="1.5" opacity="0.7" id="rect_5" />
  <line x1="130" y1="15" x2="170" y2="15" stroke="#000" stroke-width="2" id="line_2" />
  <line x1="130" y1="-40" x2="170" y2="-40" stroke="#000" stroke-width="1.5" id="line_1" />
  <line x1="130" y1="60" x2="170" y2="60" stroke="#000" stroke-width="1.5" id="line" />
  <circle cx="150" cy="70" r="3" fill="hsl(183, 64%, 55%)" id="circle" />
  <text x="-355" y="140" font-size="14" text-anchor="middle" fill="hsl(23, 0%, 0%)" id="text_9">xxxxxxx</text>
  <text x="-235" y="140" font-size="14" text-anchor="middle" fill="hsl(23, 0%, 0%)" id="text_8">xxxxxxx</text>
  <text x="-110" y="140" font-size="14" text-anchor="middle" fill="hsl(23, 0%, 0%)" id="text_7">xxxxxxx</text>
  <text x="5" y="140" font-size="14" text-anchor="middle" fill="hsl(23, 0%, 0%)" id="text_6">xxxxxxx</text>
  <text x="125" y="140" font-size="14" text-anchor="middle" fill="hsl(23, 0%, 0%)" id="text_5">xxxxxxx</text>
  <rect x="300" y="-150" width="20" height="20" fill="hsl(234, 51%, 41%)" opacity="0.7" id="rect_4" />
  <text x="330" y="-135" font-size="12" fill="hsl(23, 0%, 0%)" id="text_4">xxxxxxxxxx</text>
  <rect x="300" y="-120" width="20" height="20" fill="hsl(18, 100%, 48%)" opacity="0.7" id="rect_3" />
  <text x="330" y="-105" font-size="12" fill="hsl(23, 0%, 0%)" id="text_3">xxxxxxxxxx</text>
  <rect x="300" y="-90" width="20" height="20" fill="hsl(141, 40%, 35%)" opacity="0.7" id="rect_2" />
  <text x="330" y="-75" font-size="12" fill="hsl(23, 0%, 0%)" id="text_2">xxxxxxxxxx</text>
  <rect x="300" y="-60" width="20" height="20" fill="hsl(20, 85%, 50%)" opacity="0.7" id="rect_1" />
  <text x="330" y="-45" font-size="12" fill="hsl(23, 0%, 0%)" id="text_1">xxxxxxxxxx</text>
  <rect x="300" y="-30" width="20" height="20" fill="hsl(277, 35%, 52%)" opacity="0.7" id="rect" />
  <text x="330" y="-15" font-size="12" fill="hsl(23, 0%, 0%)" id="text">xxxxxxxxxx</text>
</svg>