<?xml version='1.0' encoding='UTF-8'?>
<svg xmlns="http://www.w3.org/2000/svg" width="900" height="auto" viewBox="-70,-30,880,340" max-width="100%" font="10px sans-serif">
  <g id="Layer_2">
    <rect x="55" y="12.1" width="54.2" height="23" fill="hsl(210, 90%, 76%)" stroke="#FFFFFF" stroke-width="0.5"/>
    <rect x="55" y="35.1" width="54.2" height="23" fill="hsl(245, 87%, 75%)" stroke="#FFFFFF" stroke-width="0.5"/>
    <rect x="55" y="58.1" width="54.2" height="23" fill="hsl(245, 87%, 75%)" stroke="#FFFFFF" stroke-width="0.5"/>
    <rect x="55" y="81.1" width="54.2" height="23" fill="hsl(235, 49%, 71%)" stroke="#FFFFFF" stroke-width="0.5"/>
    <rect x="55" y="104.1" width="54.2" height="23" fill="hsl(210, 90%, 76%)" stroke="#FFFFFF" stroke-width="0.5"/>
    <rect x="55" y="127.1" width="54.2" height="23" fill="hsl(244, 83%, 63%)" stroke="#FFFFFF" stroke-width="0.5"/>
    <rect x="55" y="150.1" width="54.2" height="23" fill="hsl(225, 79%, 65%)" stroke="#FFFFFF" stroke-width="0.5"/>
    <rect x="55" y="173.1" width="54.2" height="23" fill="hsl(245, 87%, 75%)" stroke="#FFFFFF" stroke-width="0.5"/>
    <rect x="55" y="196.1" width="54.2" height="23" fill="hsl(210, 90%, 76%)" stroke="#FFFFFF" stroke-width="0.5"/>
    <rect x="55" y="219.1" width="54.2" height="23" fill="hsl(215, 75%, 65%)" stroke="#FFFFFF" stroke-width="0.5"/>
    <rect x="55" y="242.1" width="54.2" height="23" fill="hsl(210, 90%, 76%)" stroke="#FFFFFF" stroke-width="0.5"/>
    <rect x="55" y="265.1" width="54.2" height="23" fill="hsl(210, 90%, 76%)" stroke="#FFFFFF" stroke-width="0.5"/>
    <rect x="109.2" y="12.1" width="54.2" height="23" fill="hsl(235, 49%, 71%)" stroke="#FFFFFF" stroke-width="0.5"/>
    <rect x="109.2" y="35.1" width="54.2" height="23" fill="hsl(245, 87%, 75%)" stroke="#FFFFFF" stroke-width="0.5"/>
    <rect x="109.2" y="58.1" width="54.2" height="23" fill="hsl(210, 90%, 76%)" stroke="#FFFFFF" stroke-width="0.5"/>
    <rect x="109.2" y="81.1" width="54.2" height="23" fill="hsl(248, 25%, 72%)" stroke="#FFFFFF" stroke-width="0.5"/>
    <rect x="109.2" y="104.1" width="54.2" height="23" fill="hsl(235, 49%, 71%)" stroke="#FFFFFF" stroke-width="0.5"/>
    <rect x="109.2" y="127.1" width="54.2" height="23" fill="hsl(245, 87%, 75%)" stroke="#FFFFFF" stroke-width="0.5"/>
    <rect x="109.2" y="150.1" width="54.2" height="23" fill="hsl(244, 83%, 63%)" stroke="#FFFFFF" stroke-width="0.5"/>
    <rect x="109.2" y="173.1" width="54.2" height="23" fill="hsl(210, 90%, 76%)" stroke="#FFFFFF" stroke-width="0.5"/>
    <rect x="109.2" y="196.1" width="54.2" height="23" fill="hsl(210, 90%, 76%)" stroke="#FFFFFF" stroke-width="0.5"/>
    <rect x="109.2" y="219.1" width="54.2" height="23" fill="hsl(245, 87%, 75%)" stroke="#FFFFFF" stroke-width="0.5"/>
    <rect x="109.2" y="242.1" width="54.2" height="23" fill="hsl(235, 49%, 71%)" stroke="#FFFFFF" stroke-width="0.5"/>
    <rect x="109.2" y="265.1" width="54.2" height="23" fill="hsl(235, 49%, 71%)" stroke="#FFFFFF" stroke-width="0.5"/>
    <rect x="163.3" y="12.1" width="54.2" height="23" fill="hsl(235, 49%, 71%)" stroke="#FFFFFF" stroke-width="0.5"/>
    <rect x="163.3" y="35.1" width="54.2" height="23" fill="hsl(210, 90%, 76%)" stroke="#FFFFFF" stroke-width="0.5"/>
    <rect x="163.3" y="58.1" width="54.2" height="23" fill="hsl(235, 49%, 71%)" stroke="#FFFFFF" stroke-width="0.5"/>
    <rect x="163.3" y="81.1" width="54.2" height="23" fill="hsl(248, 25%, 72%)" stroke="#FFFFFF" stroke-width="0.5"/>
    <rect x="163.3" y="104.1" width="54.2" height="23" fill="hsl(248, 25%, 72%)" stroke="#FFFFFF" stroke-width="0.5"/>
    <rect x="163.3" y="127.1" width="54.2" height="23" fill="hsl(210, 83%, 73%)" stroke="#FFFFFF" stroke-width="0.5"/>
    <rect x="163.3" y="150.1" width="54.2" height="23" fill="hsl(210, 90%, 76%)" stroke="#FFFFFF" stroke-width="0.5"/>
    <rect x="163.3" y="173.1" width="54.2" height="23" fill="hsl(248, 25%, 72%)" stroke="#FFFFFF" stroke-width="0.5"/>
    <rect x="163.3" y="196.1" width="54.2" height="23" fill="hsl(235, 49%, 71%)" stroke="#FFFFFF" stroke-width="0.5"/>
    <rect x="163.3" y="219.1" width="54.2" height="23" fill="hsl(210, 90%, 76%)" stroke="#FFFFFF" stroke-width="0.5"/>
    <rect x="163.3" y="242.1" width="54.2" height="23" fill="hsl(317, 7%, 70%)" stroke="#FFFFFF" stroke-width="0.5"/>
    <rect x="163.3" y="265.1" width="54.2" height="23" fill="hsl(235, 49%, 71%)" stroke="#FFFFFF" stroke-width="0.5"/>
    <rect x="217.5" y="12.1" width="54.2" height="23" fill="hsl(317, 7%, 70%)" stroke="#FFFFFF" stroke-width="0.5"/>
    <rect x="217.5" y="35.1" width="54.2" height="23" fill="hsl(235, 49%, 71%)" stroke="#FFFFFF" stroke-width="0.5"/>
    <rect x="217.5" y="58.1" width="54.2" height="23" fill="hsl(317, 7%, 70%)" stroke="#FFFFFF" stroke-width="0.5"/>
    <rect x="217.5" y="81.1" width="54.2" height="23" fill="hsl(15, 20%, 74%)" stroke="#FFFFFF" stroke-width="0.5"/>
    <rect x="217.5" y="104.1" width="54.2" height="23" fill="hsl(248, 25%, 72%)" stroke="#FFFFFF" stroke-width="0.5"/>
    <rect x="217.5" y="127.1" width="54.2" height="23" fill="hsl(210, 90%, 76%)" stroke="#FFFFFF" stroke-width="0.5"/>
    <rect x="217.5" y="150.1" width="54.2" height="23" fill="hsl(235, 49%, 71%)" stroke="#FFFFFF" stroke-width="0.5"/>
    <rect x="217.5" y="173.1" width="54.2" height="23" fill="hsl(15, 20%, 74%)" stroke="#FFFFFF" stroke-width="0.5"/>
    <rect x="217.5" y="196.1" width="54.2" height="23" fill="hsl(248, 25%, 72%)" stroke="#FFFFFF" stroke-width="0.5"/>
    <rect x="217.5" y="219.1" width="54.2" height="23" fill="hsl(235, 49%, 71%)" stroke="#FFFFFF" stroke-width="0.5"/>
    <rect x="217.5" y="242.1" width="54.2" height="23" fill="hsl(31, 54%, 61%)" stroke="#FFFFFF" stroke-width="0.5"/>
    <rect x="217.5" y="265.1" width="54.2" height="23" fill="hsl(317, 7%, 70%)" stroke="#FFFFFF" stroke-width="0.5"/>
    <rect x="271.7" y="12.1" width="54.2" height="23" fill="hsl(317, 7%, 70%)" stroke="#FFFFFF" stroke-width="0.5"/>
    <rect x="271.7" y="35.1" width="54.2" height="23" fill="hsl(248, 25%, 72%)" stroke="#FFFFFF" stroke-width="0.5"/>
    <rect x="271.7" y="58.1" width="54.2" height="23" fill="hsl(15, 20%, 74%)" stroke="#FFFFFF" stroke-width="0.5"/>
    <rect x="271.7" y="81.1" width="54.2" height="23" fill="hsl(15, 20%, 74%)" stroke="#FFFFFF" stroke-width="0.5"/>
    <rect x="271.7" y="104.1" width="54.2" height="23" fill="hsl(248, 25%, 72%)" stroke="#FFFFFF" stroke-width="0.5"/>
    <rect x="271.7" y="127.1" width="54.2" height="23" fill="hsl(235, 49%, 71%)" stroke="#FFFFFF" stroke-width="0.5"/>
    <rect x="271.7" y="150.1" width="54.2" height="23" fill="hsl(317, 7%, 70%)" stroke="#FFFFFF" stroke-width="0.5"/>
    <rect x="271.7" y="173.1" width="54.2" height="23" fill="hsl(15, 20%, 74%)" stroke="#FFFFFF" stroke-width="0.5"/>
    <rect x="271.7" y="196.1" width="54.2" height="23" fill="hsl(15, 20%, 74%)" stroke="#FFFFFF" stroke-width="0.5"/>
    <rect x="271.7" y="219.1" width="54.2" height="23" fill="hsl(235, 49%, 71%)" stroke="#FFFFFF" stroke-width="0.5"/>
    <rect x="271.7" y="242.1" width="54.2" height="23" fill="hsl(32, 72%, 70%)" stroke="#FFFFFF" stroke-width="0.5"/>
    <rect x="271.7" y="265.1" width="54.2" height="23" fill="hsl(317, 7%, 70%)" stroke="#FFFFFF" stroke-width="0.5"/>
    <rect x="325.8" y="12.1" width="54.2" height="23" fill="hsl(15, 20%, 74%)" stroke="#FFFFFF" stroke-width="0.5"/>
    <rect x="325.8" y="35.1" width="54.2" height="23" fill="hsl(317, 7%, 70%)" stroke="#FFFFFF" stroke-width="0.5"/>
    <rect x="325.8" y="58.1" width="54.2" height="23" fill="hsl(28, 40%, 63%)" stroke="#FFFFFF" stroke-width="0.5"/>
    <rect x="325.8" y="81.1" width="54.2" height="23" fill="hsl(32, 72%, 70%)" stroke="#FFFFFF" stroke-width="0.5"/>
    <rect x="325.8" y="104.1" width="54.2" height="23" fill="hsl(15, 20%, 74%)" stroke="#FFFFFF" stroke-width="0.5"/>
    <rect x="325.8" y="127.1" width="54.2" height="23" fill="hsl(317, 7%, 70%)" stroke="#FFFFFF" stroke-width="0.5"/>
    <rect x="325.8" y="150.1" width="54.2" height="23" fill="hsl(28, 40%, 63%)" stroke="#FFFFFF" stroke-width="0.5"/>
    <rect x="325.8" y="173.1" width="54.2" height="23" fill="hsl(32, 72%, 70%)" stroke="#FFFFFF" stroke-width="0.5"/>
    <rect x="325.8" y="196.1" width="54.2" height="23" fill="hsl(15, 20%, 74%)" stroke="#FFFFFF" stroke-width="0.5"/>
    <rect x="325.8" y="219.1" width="54.2" height="23" fill="hsl(248, 25%, 72%)" stroke="#FFFFFF" stroke-width="0.5"/>
    <rect x="325.8" y="242.1" width="54.2" height="23" fill="hsl(32, 72%, 70%)" stroke="#FFFFFF" stroke-width="0.5"/>
    <rect x="325.8" y="265.1" width="54.2" height="23" fill="hsl(15, 20%, 74%)" stroke="#FFFFFF" stroke-width="0.5"/>
    <rect x="380" y="12.1" width="54.2" height="23" fill="hsl(32, 72%, 70%)" stroke="#FFFFFF" stroke-width="0.5"/>
    <rect x="380" y="35.1" width="54.2" height="23" fill="hsl(31, 54%, 61%)" stroke="#FFFFFF" stroke-width="0.5"/>
    <rect x="380" y="58.1" width="54.2" height="23" fill="hsl(34, 83%, 66%)" stroke="#FFFFFF" stroke-width="0.5"/>
    <rect x="380" y="81.1" width="54.2" height="23" fill="hsl(35, 100%, 60%)" stroke="#FFFFFF" stroke-width="0.5"/>
    <rect x="380" y="104.1" width="54.2" height="23" fill="hsl(28, 40%, 63%)" stroke="#FFFFFF" stroke-width="0.5"/>
    <rect x="380" y="127.1" width="54.2" height="23" fill="hsl(317, 7%, 70%)" stroke="#FFFFFF" stroke-width="0.5"/>
    <rect x="380" y="150.1" width="54.2" height="23" fill="hsl(31, 54%, 61%)" stroke="#FFFFFF" stroke-width="0.5"/>
    <rect x="380" y="173.1" width="54.2" height="23" fill="hsl(34, 83%, 66%)" stroke="#FFFFFF" stroke-width="0.5"/>
    <rect x="380" y="196.1" width="54.2" height="23" fill="hsl(28, 40%, 63%)" stroke="#FFFFFF" stroke-width="0.5"/>
    <rect x="380" y="219.1" width="54.2" height="23" fill="hsl(317, 7%, 70%)" stroke="#FFFFFF" stroke-width="0.5"/>
    <rect x="380" y="242.1" width="54.2" height="23" fill="hsl(35, 100%, 60%)" stroke="#FFFFFF" stroke-width="0.5"/>
    <rect x="380" y="265.1" width="54.2" height="23" fill="hsl(31, 54%, 61%)" stroke="#FFFFFF" stroke-width="0.5"/>
    <rect x="434.2" y="12.1" width="54.2" height="23" fill="hsl(15, 20%, 74%)" stroke="#FFFFFF" stroke-width="0.5"/>
    <rect x="434.2" y="35.1" width="54.2" height="23" fill="hsl(28, 40%, 63%)" stroke="#FFFFFF" stroke-width="0.5"/>
    <rect x="434.2" y="58.1" width="54.2" height="23" fill="hsl(31, 54%, 61%)" stroke="#FFFFFF" stroke-width="0.5"/>
    <rect x="434.2" y="81.1" width="54.2" height="23" fill="hsl(34, 83%, 66%)" stroke="#FFFFFF" stroke-width="0.5"/>
    <rect x="434.2" y="104.1" width="54.2" height="23" fill="hsl(28, 40%, 63%)" stroke="#FFFFFF" stroke-width="0.5"/>
    <rect x="434.2" y="127.1" width="54.2" height="23" fill="hsl(317, 7%, 70%)" stroke="#FFFFFF" stroke-width="0.5"/>
    <rect x="434.2" y="150.1" width="54.2" height="23" fill="hsl(15, 20%, 74%)" stroke="#FFFFFF" stroke-width="0.5"/>
    <rect x="434.2" y="173.1" width="54.2" height="23" fill="hsl(31, 54%, 61%)" stroke="#FFFFFF" stroke-width="0.5"/>
    <rect x="434.2" y="196.1" width="54.2" height="23" fill="hsl(15, 20%, 74%)" stroke="#FFFFFF" stroke-width="0.5"/>
    <rect x="434.2" y="219.1" width="54.2" height="23" fill="hsl(248, 25%, 72%)" stroke="#FFFFFF" stroke-width="0.5"/>
    <rect x="434.2" y="242.1" width="54.2" height="23" fill="hsl(34, 83%, 66%)" stroke="#FFFFFF" stroke-width="0.5"/>
    <rect x="434.2" y="265.1" width="54.2" height="23" fill="hsl(28, 40%, 63%)" stroke="#FFFFFF" stroke-width="0.5"/>
    <rect x="488.3" y="12.1" width="54.2" height="23" fill="hsl(317, 7%, 70%)" stroke="#FFFFFF" stroke-width="0.5"/>
    <rect x="488.3" y="35.1" width="54.2" height="23" fill="hsl(317, 7%, 70%)" stroke="#FFFFFF" stroke-width="0.5"/>
    <rect x="488.3" y="58.1" width="54.2" height="23" fill="hsl(15, 20%, 74%)" stroke="#FFFFFF" stroke-width="0.5"/>
    <rect x="488.3" y="81.1" width="54.2" height="23" fill="hsl(31, 54%, 61%)" stroke="#FFFFFF" stroke-width="0.5"/>
    <rect x="488.3" y="104.1" width="54.2" height="23" fill="hsl(317, 7%, 70%)" stroke="#FFFFFF" stroke-width="0.5"/>
    <rect x="488.3" y="127.1" width="54.2" height="23" fill="hsl(248, 25%, 72%)" stroke="#FFFFFF" stroke-width="0.5"/>
    <rect x="488.3" y="150.1" width="54.2" height="23" fill="hsl(317, 7%, 70%)" stroke="#FFFFFF" stroke-width="0.5"/>
    <rect x="488.3" y="173.1" width="54.2" height="23" fill="hsl(15, 20%, 74%)" stroke="#FFFFFF" stroke-width="0.5"/>
    <rect x="488.3" y="196.1" width="54.2" height="23" fill="hsl(317, 7%, 70%)" stroke="#FFFFFF" stroke-width="0.5"/>
    <rect x="488.3" y="219.1" width="54.2" height="23" fill="hsl(248, 25%, 72%)" stroke="#FFFFFF" stroke-width="0.5"/>
    <rect x="488.3" y="242.1" width="54.2" height="23" fill="hsl(31, 54%, 61%)" stroke="#FFFFFF" stroke-width="0.5"/>
    <rect x="488.3" y="265.1" width="54.2" height="23" fill="hsl(317, 7%, 70%)" stroke="#FFFFFF" stroke-width="0.5"/>
    <rect x="542.5" y="12.1" width="54.2" height="23" fill="hsl(248, 25%, 72%)" stroke="#FFFFFF" stroke-width="0.5"/>
    <rect x="542.5" y="35.1" width="54.2" height="23" fill="hsl(235, 49%, 71%)" stroke="#FFFFFF" stroke-width="0.5"/>
    <rect x="542.5" y="58.1" width="54.2" height="23" fill="hsl(248, 25%, 72%)" stroke="#FFFFFF" stroke-width="0.5"/>
    <rect x="542.5" y="81.1" width="54.2" height="23" fill="hsl(15, 20%, 74%)" stroke="#FFFFFF" stroke-width="0.5"/>
    <rect x="542.5" y="104.1" width="54.2" height="23" fill="hsl(248, 25%, 72%)" stroke="#FFFFFF" stroke-width="0.5"/>
    <rect x="542.5" y="127.1" width="54.2" height="23" fill="hsl(235, 49%, 71%)" stroke="#FFFFFF" stroke-width="0.5"/>
    <rect x="542.5" y="150.1" width="54.2" height="23" fill="hsl(210, 90%, 76%)" stroke="#FFFFFF" stroke-width="0.5"/>
    <rect x="542.5" y="173.1" width="54.2" height="23" fill="hsl(248, 25%, 72%)" stroke="#FFFFFF" stroke-width="0.5"/>
    <rect x="542.5" y="196.1" width="54.2" height="23" fill="hsl(235, 49%, 71%)" stroke="#FFFFFF" stroke-width="0.5"/>
    <rect x="542.5" y="219.1" width="54.2" height="23" fill="hsl(210, 90%, 76%)" stroke="#FFFFFF" stroke-width="0.5"/>
    <rect x="542.5" y="242.1" width="54.2" height="23" fill="hsl(15, 20%, 74%)" stroke="#FFFFFF" stroke-width="0.5"/>
    <rect x="542.5" y="265.1" width="54.2" height="23" fill="hsl(317, 7%, 70%)" stroke="#FFFFFF" stroke-width="0.5"/>
    <rect x="596.7" y="12.1" width="54.2" height="23" fill="hsl(235, 49%, 71%)" stroke="#FFFFFF" stroke-width="0.5"/>
    <rect x="596.7" y="35.1" width="54.2" height="23" fill="hsl(210, 90%, 76%)" stroke="#FFFFFF" stroke-width="0.5"/>
    <rect x="596.7" y="58.1" width="54.2" height="23" fill="hsl(248, 25%, 72%)" stroke="#FFFFFF" stroke-width="0.5"/>
    <rect x="596.7" y="81.1" width="54.2" height="23" fill="hsl(248, 25%, 72%)" stroke="#FFFFFF" stroke-width="0.5"/>
    <rect x="596.7" y="104.1" width="54.2" height="23" fill="hsl(235, 49%, 71%)" stroke="#FFFFFF" stroke-width="0.5"/>
    <rect x="596.7" y="127.1" width="54.2" height="23" fill="hsl(210, 90%, 76%)" stroke="#FFFFFF" stroke-width="0.5"/>
    <rect x="596.7" y="150.1" width="54.2" height="23" fill="hsl(210, 83%, 73%)" stroke="#FFFFFF" stroke-width="0.5"/>
    <rect x="596.7" y="173.1" width="54.2" height="23" fill="hsl(235, 49%, 71%)" stroke="#FFFFFF" stroke-width="0.5"/>
    <rect x="596.7" y="196.1" width="54.2" height="23" fill="hsl(210, 90%, 76%)" stroke="#FFFFFF" stroke-width="0.5"/>
    <rect x="596.7" y="219.1" width="54.2" height="23" fill="hsl(210, 90%, 76%)" stroke="#FFFFFF" stroke-width="0.5"/>
    <rect x="596.7" y="242.1" width="54.2" height="23" fill="hsl(248, 25%, 72%)" stroke="#FFFFFF" stroke-width="0.5"/>
    <rect x="596.7" y="265.1" width="54.2" height="23" fill="hsl(235, 49%, 71%)" stroke="#FFFFFF" stroke-width="0.5"/>
    <rect x="650.8" y="12.1" width="54.2" height="23" fill="hsl(235, 49%, 71%)" stroke="#FFFFFF" stroke-width="0.5"/>
    <rect x="650.8" y="35.1" width="54.2" height="23" fill="hsl(245, 87%, 75%)" stroke="#FFFFFF" stroke-width="0.5"/>
    <rect x="650.8" y="58.1" width="54.2" height="23" fill="hsl(210, 90%, 76%)" stroke="#FFFFFF" stroke-width="0.5"/>
    <rect x="650.8" y="81.1" width="54.2" height="23" fill="hsl(248, 25%, 72%)" stroke="#FFFFFF" stroke-width="0.5"/>
    <rect x="650.8" y="104.1" width="54.2" height="23" fill="hsl(235, 49%, 71%)" stroke="#FFFFFF" stroke-width="0.5"/>
    <rect x="650.8" y="127.1" width="54.2" height="23" fill="hsl(210, 83%, 73%)" stroke="#FFFFFF" stroke-width="0.5"/>
    <rect x="650.8" y="150.1" width="54.2" height="23" fill="hsl(245, 87%, 75%)" stroke="#FFFFFF" stroke-width="0.5"/>
    <rect x="650.8" y="173.1" width="54.2" height="23" fill="hsl(210, 90%, 76%)" stroke="#FFFFFF" stroke-width="0.5"/>
    <rect x="650.8" y="196.1" width="54.2" height="23" fill="hsl(210, 90%, 76%)" stroke="#FFFFFF" stroke-width="0.5"/>
    <rect x="650.8" y="219.1" width="54.2" height="23" fill="hsl(245, 87%, 75%)" stroke="#FFFFFF" stroke-width="0.5"/>
    <rect x="650.8" y="242.1" width="54.2" height="23" fill="hsl(210, 90%, 76%)" stroke="#FFFFFF" stroke-width="0.5"/>
    <rect x="650.8" y="265.1" width="54.2" height="23" fill="hsl(210, 90%, 76%)" stroke="#FFFFFF" stroke-width="0.5"/>
  </g>
</svg>
