<?xml version='1.0' encoding='UTF-8'?>
<svg xmlns="http://www.w3.org/2000/svg" width="900" height="auto" max-width="100%" font="10px sans-serif">
  <rect x="509.6" y="22.5" width="131.3" height="53.3" fill="hsl(6, 82%, 55%)" stroke="#FFFFFF"/>
  <rect x="640.9" y="22.5" width="66.6" height="67.3" fill="hsl(6, 82%, 55%)" stroke="#FFFFFF"/>
  <rect x="312.7" y="73.6" width="196.9" height="27.5" fill="hsl(350, 82%, 52%)" stroke="#FFFFFF"/>
  <rect x="312.7" y="22.4" width="196.9" height="52.5" fill="hsl(5, 90%, 47%)" stroke="#FFFFFF" opacity="1"/>
  <rect x="640.9" y="154" width="66.6" height="78.3" fill="hsl(245, 40%, 89%)" stroke="#FFFFFF"/>
  <rect x="640.9" y="88.5" width="66.6" height="65.5" fill="hsl(350, 82%, 52%)" stroke="#FFFFFF"/>
  <rect x="50.1" y="22.5" width="262.5" height="13.6" fill="hsl(6, 82%, 55%)" stroke="#FFFFFF"/>
  <rect x="509.6" y="127.9" width="131.3" height="78.3" fill="hsl(245, 40%, 89%)" stroke="#FFFFFF"/>
  <rect x="509.6" y="75.7" width="131.3" height="52.2" fill="hsl(350, 82%, 52%)" stroke="#FFFFFF"/>
  <rect x="312.7" y="101.8" width="196.9" height="78.3" fill="hsl(245, 40%, 89%)" stroke="#FFFFFF"/>
  <rect x="50.1" y="63" width="262.5" height="64.9" fill="hsl(245, 40%, 89%)" stroke="#FFFFFF"/>
  <rect x="50.1" y="35.8" width="262.5" height="27.2" fill="hsl(350, 82%, 52%)" stroke="#FFFFFF"/>
  <rect x="640" y="232.3" width="67.5" height="52.2" fill="hsl(208, 71%, 53%)" stroke="#FFFFFF"/>
  <rect x="312.7" y="180.1" width="196.9" height="104.4" fill="hsl(208, 71%, 53%)" stroke="#FFFFFF"/>
  <rect x="509.6" y="206.2" width="131.3" height="78.3" fill="hsl(208, 71%, 53%)" stroke="#FFFFFF"/>
  <rect x="50.1" y="127.9" width="262.5" height="156.6" fill="hsl(208, 71%, 53%)" stroke="#FFFFFF"/>
</svg>
