<?xml version='1.0' encoding='UTF-8'?>
<svg xmlns="http://www.w3.org/2000/svg" version="1.1" width="800" height="400" viewBox="0 0 800 400" aria-hidden="false" aria-label="Interactive chart" font-family="-apple-system, BlinkMacSystemFont, &quot;Segoe UI&quot;, Roboto, Helvetica, Arial, &quot;Apple Color Emoji&quot;, &quot;Segoe UI Emoji&quot;, &quot;Segoe UI Symbol&quot;, sans-serif" font-size="1rem">
  <g data-z-index="0.1" transform="translate(77,68) scale(1 1)" clip-path="url(#highcharts-4v2vbvl-27-)" aria-hidden="true" opacity="1">
    <path d="M 6.9901960784251 59.213025 L 76.89215686274 59.71725 L 146.79411764706 65.7801 L 216.69607843137 25.812675 L 286.59803921568 74.7225 L 356.5 61.703775 L 426.40196078431 42.8409 L 496.30392156863 39.42675 L 566.20588235294 68.46525 L 636.10784313726 79.2423 L 706.00980392157 72.626625 L 706.00980392157 153.4302 L 636.10784313726 160.434675 L 566.20588235294 159.95475 L 496.30392156863 137.81745 L 426.40196078431 136.900125 L 356.5 139.5306 L 286.59803921568 137.89035 L 216.69607843137 133.935525 L 146.79411764706 135.843075 L 76.89215686274 137.045925 L 6.9901960784251 139.609575 Z" data-z-index="0" fill-opacity="0.75" pointer-events="none" fill="hsl(222, 97%, 54%)"/>
    <path d="M 6.9901960784251 59.213025 L 76.89215686274 59.71725 L 146.79411764706 65.7801 L 216.69607843137 25.812675 L 286.59803921568 74.7225 L 356.5 61.703775 L 426.40196078431 42.8409 L 496.30392156863 39.42675 L 566.20588235294 68.46525 L 636.10784313726 79.2423 L 706.00980392157 72.626625" data-z-index="1" stroke-linejoin="round" stroke-linecap="round" filter="none" fill="none" stroke="#666666" stroke-width="1"/>
    <path d="M 6.9901960784251 59.213025 L 76.89215686274 59.71725 L 146.79411764706 65.7801 L 216.69607843137 25.812675 L 286.59803921568 74.7225 L 356.5 61.703775 L 426.40196078431 42.8409 L 496.30392156863 39.42675 L 566.20588235294 68.46525 L 636.10784313726 79.2423 L 706.00980392157 72.626625" data-z-index="2" stroke-linecap="round" stroke-linejoin="round" fill="none" stroke="rgba(192,192,192,0.0001)" stroke-width="21"/>
  </g>
  <g data-z-index="0.1" transform="translate(77,68) scale(1 1)" clip-path="none" aria-hidden="false" role="region" tabindex="-1" aria-label="Ocean transport, series 1 of 5 with 11 data points." outline="none" opacity="1">
    <path d="M 566.5 68.46525 A 0 0 0 1 1 566.5 68.46525 Z" data-z-index="-1" fill-opacity="0.25" visibility="hidden" fill="hsl(198, 100%, 55%)"/>
    <path d="M 6.5 63.213025 A 4 4 0 1 1 6.500199999999918 63.213024995000005 Z" tabindex="-1" role="img" aria-label="x, 2012, 13,234. Ocean transport." outline="none" fill="hsl(213, 100%, 62%)" stroke="#666666" stroke-width="1" opacity="1"/>
    <path d="M 76.5 63.71725 A 4 4 0 1 1 76.50019999999992 63.717249995 Z" tabindex="-1" role="img" aria-label="x, 2013, 12,729. Ocean transport." outline="none" fill="hsl(213, 100%, 62%)" stroke="#666666" stroke-width="1" opacity="1"/>
    <path d="M 146.5 69.7801 A 4 4 0 1 1 146.50019999999992 69.780099995 Z" tabindex="-1" role="img" aria-label="x, 2014, 11,533. Ocean transport." outline="none" fill="hsl(213, 100%, 62%)" stroke="#666666" stroke-width="1" opacity="1"/>
    <path d="M 216.5 29.812675 A 4 4 0 1 1 216.50019999999992 29.812674995 Z" tabindex="-1" role="img" aria-label="x, 2015, 17,798. Ocean transport." outline="none" fill="hsl(213, 100%, 62%)" stroke="#666666" stroke-width="1" opacity="1"/>
    <path d="M 286.5 78.7225 A 4 4 0 1 1 286.5001999999999 78.72249999499999 Z" tabindex="-1" role="img" aria-label="x, 2016, 10,398. Ocean transport." outline="none" fill="hsl(213, 100%, 62%)" stroke="#666666" stroke-width="1" opacity="1"/>
    <path d="M 356.5 65.70377500000001 A 4 4 0 1 1 356.5001999999999 65.703774995 Z" tabindex="-1" role="img" aria-label="x, 2017, 12,811. Ocean transport." outline="none" fill="hsl(213, 100%, 62%)" stroke="#666666" stroke-width="1" opacity="1"/>
    <path d="M 426.5 46.8409 A 4 4 0 1 1 426.5001999999999 46.840899995 Z" tabindex="-1" role="img" aria-label="x, 2018, 15,483. Ocean transport." outline="none" fill="hsl(213, 100%, 62%)" stroke="#666666" stroke-width="1" opacity="1"/>
    <path d="M 496.5 43.42675 A 4 4 0 1 1 496.5001999999999 43.426749995 Z" tabindex="-1" role="img" aria-label="x, 2019, 16,196. Ocean transport." outline="none" fill="hsl(213, 100%, 62%)" stroke="#666666" stroke-width="1" opacity="1"/>
    <path d="M 566.5 72.46525 A 4 4 0 1 1 566.5002 72.465249995 Z" tabindex="-1" role="img" aria-label="x, 2020, 15,060. Ocean transport." outline="none" fill="hsl(213, 100%, 62%)" stroke="#666666" stroke-width="1" opacity="1"/>
    <path d="M 636.5 83.2423 A 4 4 0 1 1 636.5002 83.242299995 Z" tabindex="-1" role="img" aria-label="x, 2021, 13,365. Ocean transport." outline="none" fill="hsl(213, 100%, 62%)" stroke="#666666" stroke-width="1" opacity="1"/>
    <path d="M 706.5 76.626625 A 4 4 0 1 1 706.5002 76.626624995 Z" tabindex="-1" role="img" aria-label="x, 2022, 13,301. Ocean transport." outline="none" fill="hsl(213, 100%, 62%)" stroke="#666666" stroke-width="1" opacity="1"/>
  </g>
  <g data-z-index="0.1" transform="translate(77,68) scale(1 1)" clip-path="url(#highcharts-4v2vbvl-27-)" aria-hidden="true" opacity="1">
    <path d="M 6.9901960784251 139.609575 L 76.89215686274 137.045925 L 146.79411764706 135.843075 L 216.69607843137 133.935525 L 286.59803921568 137.89035 L 356.5 139.5306 L 426.40196078431 136.900125 L 496.30392156863 137.81745 L 566.20588235294 159.95475 L 636.10784313726 160.434675 L 706.00980392157 153.4302 L 706.00980392157 183.7323 L 636.10784313726 191.344275 L 566.20588235294 190.809675 L 496.30392156863 168.43545 L 426.40196078431 170.98695 L 356.5 174.273525 L 286.59803921568 175.865175 L 216.69607843137 172.718325 L 146.79411764706 174.65625 L 76.89215686274 176.752125 L 6.9901960784251 180.227025 Z" data-z-index="0" fill-opacity="0.75" pointer-events="none" fill="hsl(262, 51%, 51%)"/>
    <path d="M 6.9901960784251 139.609575 L 76.89215686274 137.045925 L 146.79411764706 135.843075 L 216.69607843137 133.935525 L 286.59803921568 137.89035 L 356.5 139.5306 L 426.40196078431 136.900125 L 496.30392156863 137.81745 L 566.20588235294 159.95475 L 636.10784313726 160.434675 L 706.00980392157 153.4302" data-z-index="1" stroke-linejoin="round" stroke-linecap="round" filter="none" fill="none" stroke="#666666" stroke-width="1"/>
    <path d="M 6.9901960784251 139.609575 L 76.89215686274 137.045925 L 146.79411764706 135.843075 L 216.69607843137 133.935525 L 286.59803921568 137.89035 L 356.5 139.5306 L 426.40196078431 136.900125 L 496.30392156863 137.81745 L 566.20588235294 159.95475 L 636.10784313726 160.434675 L 706.00980392157 153.4302" data-z-index="2" stroke-linecap="round" stroke-linejoin="round" fill="none" stroke="rgba(192,192,192,0.0001)" stroke-width="21"/>
  </g>
  <g data-z-index="0.1" transform="translate(77,68) scale(1 1)" clip-path="none" aria-hidden="false" role="region" tabindex="-1" aria-label="Households, series 2 of 5 with 11 data points." outline="none" opacity="1">
    <path d="M 566.5 159.95475 A 0 0 0 1 1 566.5 159.95475 Z" data-z-index="-1" fill-opacity="0.25" visibility="hidden" fill="hsl(222, 53%, 54%)"/>
    <path d="M 6.5 135.609575 L 10.5 139.609575 L 6.5 143.609575 L 2.5 139.609575 Z" tabindex="-1" role="img" aria-label="x, 2012, 6,686. Households." outline="none" fill="hsl(265, 46%, 54%)" stroke="#666666" stroke-width="1" opacity="1"/>
    <path d="M 76.5 133.045925 L 80.5 137.045925 L 76.5 141.045925 L 72.5 137.045925 Z" tabindex="-1" role="img" aria-label="x, 2013, 6,536. Households." outline="none" fill="hsl(265, 46%, 54%)" stroke="#666666" stroke-width="1" opacity="1"/>
    <path d="M 146.5 131.843075 L 150.5 135.843075 L 146.5 139.843075 L 142.5 135.843075 Z" tabindex="-1" role="img" aria-label="x, 2014, 6,389. Households." outline="none" fill="hsl(265, 46%, 54%)" stroke="#666666" stroke-width="1" opacity="1"/>
    <path d="M 216.5 129.935525 L 220.5 133.935525 L 216.5 137.935525 L 212.5 133.935525 Z" tabindex="-1" role="img" aria-label="x, 2015, 6,384. Households." outline="none" fill="hsl(265, 46%, 54%)" stroke="#666666" stroke-width="1" opacity="1"/>
    <path d="M 286.5 133.89035 L 290.5 137.89035 L 286.5 141.89035 L 282.5 137.89035 Z" tabindex="-1" role="img" aria-label="x, 2016, 6,251. Households." outline="none" fill="hsl(265, 46%, 54%)" stroke="#666666" stroke-width="1" opacity="1"/>
    <path d="M 356.5 135.5306 L 360.5 139.5306 L 356.5 143.5306 L 352.5 139.5306 Z" tabindex="-1" role="img" aria-label="x, 2017, 5,719. Households." outline="none" fill="hsl(265, 46%, 54%)" stroke="#666666" stroke-width="1" opacity="1"/>
    <path d="M 426.5 132.900125 L 430.5 136.900125 L 426.5 140.900125 L 422.5 136.900125 Z" tabindex="-1" role="img" aria-label="x, 2018, 5,611. Households." outline="none" fill="hsl(265, 46%, 54%)" stroke="#666666" stroke-width="1" opacity="1"/>
    <path d="M 496.5 133.81745 L 500.5 137.81745 L 496.5 141.81745 L 492.5 137.81745 Z" tabindex="-1" role="img" aria-label="x, 2019, 5,040. Households." outline="none" fill="hsl(265, 46%, 54%)" stroke="#666666" stroke-width="1" opacity="1"/>
    <path d="M 566.5 155.95475 L 570.5 159.95475 L 566.5 163.95475 L 562.5 159.95475 Z" tabindex="-1" role="img" aria-label="x, 2020, 5,079. Households." outline="none" fill="hsl(265, 46%, 54%)" stroke="#666666" stroke-width="1" opacity="1"/>
    <path d="M 636.5 156.434675 L 640.5 160.434675 L 636.5 164.434675 L 632.5 160.434675 Z" tabindex="-1" role="img" aria-label="x, 2021, 5,088. Households." outline="none" fill="hsl(265, 46%, 54%)" stroke="#666666" stroke-width="1" opacity="1"/>
    <path d="M 706.5 149.4302 L 710.5 153.4302 L 706.5 157.4302 L 702.5 153.4302 Z" tabindex="-1" role="img" aria-label="x, 2022, 4,988. Households." outline="none" fill="hsl(265, 46%, 54%)" stroke="#666666" stroke-width="1" opacity="1"/>
  </g>
  <g data-z-index="0.1" transform="translate(77,68) scale(1 1)" clip-path="url(#highcharts-4v2vbvl-27-)" aria-hidden="true" opacity="1">
    <path d="M 6.9901960784251 180.227025 L 76.89215686274 176.752125 L 146.79411764706 174.65625 L 216.69607843137 172.718325 L 286.59803921568 175.865175 L 356.5 174.273525 L 426.40196078431 170.98695 L 496.30392156863 168.43545 L 566.20588235294 190.809675 L 636.10784313726 191.344275 L 706.00980392157 183.7323 L 706.00980392157 213.712425 L 636.10784313726 222.180975 L 566.20588235294 221.2758 L 496.30392156863 198.83475 L 426.40196078431 201.635325 L 356.5 204.86115 L 286.59803921568 206.665425 L 216.69607843137 203.0994 L 146.79411764706 204.794325 L 76.89215686274 206.349525 L 6.9901960784251 209.459925 Z" data-z-index="0" fill-opacity="0.75" pointer-events="none" fill="hsl(143, 100%, 45%)"/>
    <path d="M 6.9901960784251 180.227025 L 76.89215686274 176.752125 L 146.79411764706 174.65625 L 216.69607843137 172.718325 L 286.59803921568 175.865175 L 356.5 174.273525 L 426.40196078431 170.98695 L 496.30392156863 168.43545 L 566.20588235294 190.809675 L 636.10784313726 191.344275 L 706.00980392157 183.7323" data-z-index="1" stroke-linejoin="round" stroke-linecap="round" filter="none" fill="none" stroke="#666666" stroke-width="1"/>
    <path d="M 6.9901960784251 180.227025 L 76.89215686274 176.752125 L 146.79411764706 174.65625 L 216.69607843137 172.718325 L 286.59803921568 175.865175 L 356.5 174.273525 L 426.40196078431 170.98695 L 496.30392156863 168.43545 L 566.20588235294 190.809675 L 636.10784313726 191.344275 L 706.00980392157 183.7323" data-z-index="2" stroke-linecap="round" stroke-linejoin="round" fill="none" stroke="rgba(192,192,192,0.0001)" stroke-width="21"/>
  </g>
  <g data-z-index="0.1" transform="translate(77,68) scale(1 1)" clip-path="none" aria-hidden="false" role="region" tabindex="-1" aria-label="Agriculture and hunting, series 3 of 5 with 11 data points." outline="none" opacity="1">
    <path d="M 566.5 190.809675 A 0 0 0 1 1 566.5 190.809675 Z" data-z-index="-1" fill-opacity="0.25" visibility="hidden" fill="hsl(148, 100%, 46%)"/>
    <path d="M 2.5 176.227025 L 10.5 176.227025 L 10.5 184.227025 L 2.5 184.227025 Z" tabindex="-1" role="img" aria-label="x, 2012, 4,812. Agriculture and hunting." outline="none" fill="hsl(162, 100%, 48%)" stroke="#666666" stroke-width="1" opacity="1"/>
    <path d="M 72.5 172.752125 L 80.5 172.752125 L 80.5 180.752125 L 72.5 180.752125 Z" tabindex="-1" role="img" aria-label="x, 2013, 4,872. Agriculture and hunting." outline="none" fill="hsl(162, 100%, 48%)" stroke="#666666" stroke-width="1" opacity="1"/>
    <path d="M 142.5 170.65625 L 150.5 170.65625 L 150.5 178.65625 L 142.5 178.65625 Z" tabindex="-1" role="img" aria-label="x, 2014, 4,961. Agriculture and hunting." outline="none" fill="hsl(162, 100%, 48%)" stroke="#666666" stroke-width="1" opacity="1"/>
    <path d="M 212.5 168.718325 L 220.5 168.718325 L 220.5 176.718325 L 212.5 176.718325 Z" tabindex="-1" role="img" aria-label="x, 2015, 5,001. Agriculture and hunting." outline="none" fill="hsl(162, 100%, 48%)" stroke="#666666" stroke-width="1" opacity="1"/>
    <path d="M 282.5 171.865175 L 290.5 171.865175 L 290.5 179.865175 L 282.5 179.865175 Z" tabindex="-1" role="img" aria-label="x, 2016, 5,070. Agriculture and hunting." outline="none" fill="hsl(162, 100%, 48%)" stroke="#666666" stroke-width="1" opacity="1"/>
    <path d="M 352.5 170.273525 L 360.5 170.273525 L 360.5 178.273525 L 352.5 178.273525 Z" tabindex="-1" role="img" aria-label="x, 2017, 5,035. Agriculture and hunting." outline="none" fill="hsl(162, 100%, 48%)" stroke="#666666" stroke-width="1" opacity="1"/>
    <path d="M 422.5 166.98695 L 430.5 166.98695 L 430.5 174.98695 L 422.5 174.98695 Z" tabindex="-1" role="img" aria-label="x, 2018, 5,045. Agriculture and hunting." outline="none" fill="hsl(162, 100%, 48%)" stroke="#666666" stroke-width="1" opacity="1"/>
    <path d="M 492.5 164.43545 L 500.5 164.43545 L 500.5 172.43545 L 492.5 172.43545 Z" tabindex="-1" role="img" aria-label="x, 2019, 5,004. Agriculture and hunting." outline="none" fill="hsl(162, 100%, 48%)" stroke="#666666" stroke-width="1" opacity="1"/>
    <path d="M 562.5 186.809675 L 570.5 186.809675 L 570.5 194.809675 L 562.5 194.809675 Z" tabindex="-1" role="img" aria-label="x, 2020, 5,015. Agriculture and hunting." outline="none" fill="hsl(162, 100%, 48%)" stroke="#666666" stroke-width="1" opacity="1"/>
    <path d="M 632.5 187.344275 L 640.5 187.344275 L 640.5 195.344275 L 632.5 195.344275 Z" tabindex="-1" role="img" aria-label="x, 2021, 5,076. Agriculture and hunting." outline="none" fill="hsl(162, 100%, 48%)" stroke="#666666" stroke-width="1" opacity="1"/>
    <path d="M 702.5 179.7323 L 710.5 179.7323 L 710.5 187.7323 L 702.5 187.7323 Z" tabindex="-1" role="img" aria-label="x, 2022, 4,935. Agriculture and hunting." outline="none" fill="hsl(162, 100%, 48%)" stroke="#666666" stroke-width="1" opacity="1"/>
  </g>
  <g data-z-index="0.1" transform="translate(77,68) scale(1 1)" clip-path="url(#highcharts-4v2vbvl-27-)" aria-hidden="true" opacity="1">
    <path d="M 6.9901960784251 209.459925 L 76.89215686274 206.349525 L 146.79411764706 204.794325 L 216.69607843137 203.0994 L 286.59803921568 206.665425 L 356.5 204.86115 L 426.40196078431 201.635325 L 496.30392156863 198.83475 L 566.20588235294 221.2758 L 636.10784313726 222.180975 L 706.00980392157 213.712425 L 706.00980392157 230.078475 L 636.10784313726 229.7565 L 566.20588235294 230.74065 L 496.30392156863 229.6593 L 426.40196078431 228.7359 L 356.5 229.28265 L 286.59803921568 229.762575 L 216.69607843137 229.531725 L 146.79411764706 229.93875 L 76.89215686274 229.701825 L 6.9901960784251 230.734575 Z" data-z-index="0" fill-opacity="0.75" pointer-events="none" fill="hsl(16, 89%, 57%)"/>
    <path d="M 6.9901960784251 209.459925 L 76.89215686274 206.349525 L 146.79411764706 204.794325 L 216.69607843137 203.0994 L 286.59803921568 206.665425 L 356.5 204.86115 L 426.40196078431 201.635325 L 496.30392156863 198.83475 L 566.20588235294 221.2758 L 636.10784313726 222.180975 L 706.00980392157 213.712425" data-z-index="1" stroke-linejoin="round" stroke-linecap="round" filter="none" fill="none" stroke="#666666" stroke-width="1"/>
    <path d="M 6.9901960784251 209.459925 L 76.89215686274 206.349525 L 146.79411764706 204.794325 L 216.69607843137 203.0994 L 286.59803921568 206.665425 L 356.5 204.86115 L 426.40196078431 201.635325 L 496.30392156863 198.83475 L 566.20588235294 221.2758 L 636.10784313726 222.180975 L 706.00980392157 213.712425" data-z-index="2" stroke-linecap="round" stroke-linejoin="round" fill="none" stroke="rgba(192,192,192,0.0001)" stroke-width="21"/>
  </g>
  <g data-z-index="0.1" transform="translate(77,68) scale(1 1)" clip-path="none" aria-hidden="false" role="region" tabindex="-1" aria-label="Air transport, series 4 of 5 with 11 data points." outline="none" opacity="1">
    <path d="M 566.5 221.2758 A 0 0 0 1 1 566.5 221.2758 Z" data-z-index="-1" fill-opacity="0.25" visibility="hidden" fill="hsl(14, 100%, 56%)"/>
    <path d="M 6.5 205.459925 L 10.5 213.459925 L 2.5 213.459925 Z" tabindex="-1" role="img" aria-label="x, 2012, 3,502. Air transport." outline="none" fill="hsl(15, 91%, 54%)" stroke="#666666" stroke-width="1" opacity="1"/>
    <path d="M 76.5 202.349525 L 80.5 210.349525 L 72.5 210.349525 Z" tabindex="-1" role="img" aria-label="x, 2013, 3,844. Air transport." outline="none" fill="hsl(15, 91%, 54%)" stroke="#666666" stroke-width="1" opacity="1"/>
    <path d="M 146.5 200.794325 L 150.5 208.794325 L 142.5 208.794325 Z" tabindex="-1" role="img" aria-label="x, 2014, 4,139. Air transport." outline="none" fill="hsl(15, 91%, 54%)" stroke="#666666" stroke-width="1" opacity="1"/>
    <path d="M 216.5 199.0994 L 220.5 207.0994 L 212.5 207.0994 Z" tabindex="-1" role="img" aria-label="x, 2015, 4,351. Air transport." outline="none" fill="hsl(15, 91%, 54%)" stroke="#666666" stroke-width="1" opacity="1"/>
    <path d="M 286.5 202.665425 L 290.5 210.665425 L 282.5 210.665425 Z" tabindex="-1" role="img" aria-label="x, 2016, 3,802. Air transport." outline="none" fill="hsl(15, 91%, 54%)" stroke="#666666" stroke-width="1" opacity="1"/>
    <path d="M 356.5 200.86115 L 360.5 208.86115 L 352.5 208.86115 Z" tabindex="-1" role="img" aria-label="x, 2017, 4,020. Air transport." outline="none" fill="hsl(15, 91%, 54%)" stroke="#666666" stroke-width="1" opacity="1"/>
    <path d="M 426.5 197.635325 L 430.5 205.635325 L 422.5 205.635325 Z" tabindex="-1" role="img" aria-label="x, 2018, 4,461. Air transport." outline="none" fill="hsl(15, 91%, 54%)" stroke="#666666" stroke-width="1" opacity="1"/>
    <path d="M 496.5 194.83475 L 500.5 202.83475 L 492.5 202.83475 Z" tabindex="-1" role="img" aria-label="x, 2019, 5,074. Air transport." outline="none" fill="hsl(15, 91%, 54%)" stroke="#666666" stroke-width="1" opacity="1"/>
    <path d="M 566.5 217.2758 L 570.5 225.2758 L 562.5 225.2758 Z" tabindex="-1" role="img" aria-label="x, 2020, 1,558. Air transport." outline="none" fill="hsl(15, 91%, 54%)" stroke="#666666" stroke-width="1" opacity="1"/>
    <path d="M 636.5 218.180975 L 640.5 226.180975 L 632.5 226.180975 Z" tabindex="-1" role="img" aria-label="x, 2021, 1,247. Air transport." outline="none" fill="hsl(15, 91%, 54%)" stroke="#666666" stroke-width="1" opacity="1"/>
    <path d="M 706.5 209.712425 L 710.5 217.712425 L 702.5 217.712425 Z" tabindex="-1" role="img" aria-label="x, 2022, 2,694. Air transport." outline="none" fill="hsl(15, 91%, 54%)" stroke="#666666" stroke-width="1" opacity="1"/>
  </g>
  <g data-z-index="0.1" transform="translate(77,68) scale(1 1)" clip-path="url(#highcharts-4v2vbvl-27-)" aria-hidden="true" opacity="1">
    <path d="M 6.9901960784251 230.734575 L 76.89215686274 229.701825 L 146.79411764706 229.93875 L 216.69607843137 229.531725 L 286.59803921568 229.762575 L 356.5 229.28265 L 426.40196078431 228.7359 L 496.30392156863 229.6593 L 566.20588235294 230.74065 L 636.10784313726 229.7565 L 706.00980392157 230.078475 L 706.00980392157 243 L 636.10784313726 243 L 566.20588235294 243 L 496.30392156863 243 L 426.40196078431 243 L 356.5 243 L 286.59803921568 243 L 216.69607843137 243 L 146.79411764706 243 L 76.89215686274 243 L 6.9901960784251 243 Z" data-z-index="0" fill-opacity="0.75" pointer-events="none" fill="hsl(238, 34%, 55%)"/>
    <path d="M 6.9901960784251 230.734575 L 76.89215686274 229.701825 L 146.79411764706 229.93875 L 216.69607843137 229.531725 L 286.59803921568 229.762575 L 356.5 229.28265 L 426.40196078431 228.7359 L 496.30392156863 229.6593 L 566.20588235294 230.74065 L 636.10784313726 229.7565 L 706.00980392157 230.078475" data-z-index="1" stroke-linejoin="round" stroke-linecap="round" filter="none" fill="none" stroke="#666666" stroke-width="1"/>
    <path d="M 6.9901960784251 230.734575 L 76.89215686274 229.701825 L 146.79411764706 229.93875 L 216.69607843137 229.531725 L 286.59803921568 229.762575 L 356.5 229.28265 L 426.40196078431 228.7359 L 496.30392156863 229.6593 L 566.20588235294 230.74065 L 636.10784313726 229.7565 L 706.00980392157 230.078475" data-z-index="2" stroke-linecap="round" stroke-linejoin="round" fill="none" stroke="rgba(192,192,192,0.0001)" stroke-width="21"/>
  </g>
  <g data-z-index="0.1" transform="translate(77,68) scale(1 1)" clip-path="none" aria-hidden="false" role="region" tabindex="-1" aria-label="Construction, series 5 of 5 with 11 data points." outline="none" opacity="1">
    <path d="M 566.5 230.74065 A 0 0 0 1 1 566.5 230.74065 Z" data-z-index="-1" fill-opacity="0.25" visibility="hidden" fill="hsl(207, 39%, 63%)"/>
    <path d="M 2.5 226.734575 L 10.5 226.734575 L 6.5 234.734575 Z" tabindex="-1" role="img" aria-label="x, 2012, 2,019. Construction." outline="none" fill="hsl(211, 39%, 57%)" stroke="#666666" stroke-width="1" opacity="1"/>
    <path d="M 72.5 225.701825 L 80.5 225.701825 L 76.5 233.701825 Z" tabindex="-1" role="img" aria-label="x, 2013, 2,189. Construction." outline="none" fill="hsl(211, 39%, 57%)" stroke="#666666" stroke-width="1" opacity="1"/>
    <path d="M 142.5 225.93875 L 150.5 225.93875 L 146.5 233.93875 Z" tabindex="-1" role="img" aria-label="x, 2014, 2,150. Construction." outline="none" fill="hsl(211, 39%, 57%)" stroke="#666666" stroke-width="1" opacity="1"/>
    <path d="M 212.5 225.531725 L 220.5 225.531725 L 216.5 233.531725 Z" tabindex="-1" role="img" aria-label="x, 2015, 2,217. Construction." outline="none" fill="hsl(211, 39%, 57%)" stroke="#666666" stroke-width="1" opacity="1"/>
    <path d="M 282.5 225.762575 L 290.5 225.762575 L 286.5 233.762575 Z" tabindex="-1" role="img" aria-label="x, 2016, 2,179. Construction." outline="none" fill="hsl(211, 39%, 57%)" stroke="#666666" stroke-width="1" opacity="1"/>
    <path d="M 352.5 225.28265 L 360.5 225.28265 L 356.5 233.28265 Z" tabindex="-1" role="img" aria-label="x, 2017, 2,258. Construction." outline="none" fill="hsl(211, 39%, 57%)" stroke="#666666" stroke-width="1" opacity="1"/>
    <path d="M 422.5 224.7359 L 430.5 224.7359 L 426.5 232.7359 Z" tabindex="-1" role="img" aria-label="x, 2018, 2,348. Construction." outline="none" fill="hsl(211, 39%, 57%)" stroke="#666666" stroke-width="1" opacity="1"/>
    <path d="M 492.5 225.6593 L 500.5 225.6593 L 496.5 233.6593 Z" tabindex="-1" role="img" aria-label="x, 2019, 2,196. Construction." outline="none" fill="hsl(211, 39%, 57%)" stroke="#666666" stroke-width="1" opacity="1"/>
    <path d="M 562.5 226.74065 L 570.5 226.74065 L 566.5 234.74065 Z" tabindex="-1" role="img" aria-label="x, 2020, 2,018. Construction." outline="none" fill="hsl(211, 39%, 57%)" stroke="#666666" stroke-width="1" opacity="1"/>
    <path d="M 632.5 225.7565 L 640.5 225.7565 L 636.5 233.7565 Z" tabindex="-1" role="img" aria-label="x, 2021, 2,180. Construction." outline="none" fill="hsl(211, 39%, 57%)" stroke="#666666" stroke-width="1" opacity="1"/>
    <path d="M 702.5 226.078475 L 710.5 226.078475 L 706.5 234.078475 Z" tabindex="-1" role="img" aria-label="x, 2022, 2,127. Construction." outline="none" fill="hsl(211, 39%, 57%)" stroke="#666666" stroke-width="1" opacity="1"/>
  </g>
</svg>
